<svg width="104" height="115" viewBox="0 0 104 115" fill="none" xmlns="http://www.w3.org/2000/svg">
<path opacity="0.9" d="M11.3984 25.3851L44.7161 3.40112V47.3691L11.3984 25.3851Z" fill="#565966"/>
<path opacity="0.9" d="M84.793 88.847L51.4753 66.863V110.831L84.793 88.847Z" fill="#C2192E"/>
<g filter="url(#filter0_d_2511_7245)">
<path fill-rule="evenodd" clip-rule="evenodd" d="M4 60.2876C5.61934 81.5879 23.4154 98.3669 45.1304 98.3669H51.4753V79.3282H45.1304C33.9399 79.3282 24.6821 71.0527 23.1433 60.2876H4ZM45.1296 34.9046V15.866C45.1298 15.866 45.1301 15.866 45.1304 15.866H54.6498C76.3639 15.866 94.1594 32.6436 95.78 53.9426H76.6365C75.0965 43.1788 65.8394 34.9046 54.6498 34.9046H45.1304C45.1301 34.9046 45.1298 34.9046 45.1296 34.9046Z" fill="white"/>
</g>
<defs>
<filter id="filter0_d_2511_7245" x="0" y="11.866" width="103.78" height="94.501" filterUnits="userSpaceOnUse" color-interpolation-filters="sRGB">
<feFlood flood-opacity="0" result="BackgroundImageFix"/>
<feColorMatrix in="SourceAlpha" type="matrix" values="0 0 0 0 0 0 0 0 0 0 0 0 0 0 0 0 0 0 127 0" result="hardAlpha"/>
<feOffset dx="2" dy="2"/>
<feGaussianBlur stdDeviation="3"/>
<feComposite in2="hardAlpha" operator="out"/>
<feColorMatrix type="matrix" values="0 0 0 0 0 0 0 0 0 0 0 0 0 0 0 0 0 0 0.25 0"/>
<feBlend mode="normal" in2="BackgroundImageFix" result="effect1_dropShadow_2511_7245"/>
<feBlend mode="normal" in="SourceGraphic" in2="effect1_dropShadow_2511_7245" result="shape"/>
</filter>
</defs>
</svg>
