<svg width="109" height="109" viewBox="0 0 109 109" fill="none" xmlns="http://www.w3.org/2000/svg">
<g filter="url(#filter0_d_2511_6964)">
<path d="M11.7583 8C11.7583 5.79086 13.5492 4 15.7583 4H74.9898C77.1989 4 78.9898 5.79086 78.9898 8V93.211H11.7583V8Z" fill="white"/>
</g>
<g filter="url(#filter1_d_2511_6964)">
<rect x="4" y="93.2112" width="96.9685" height="7.75748" rx="3.87874" fill="white"/>
</g>
<g style="mix-blend-mode:multiply">
<circle cx="83.9537" cy="66.9368" r="20.0465" fill="#C2192E"/>
</g>
<path fill-rule="evenodd" clip-rule="evenodd" d="M82.0856 68.6571L77.4195 64.3008L75.0947 66.4712L82.0856 72.998L93.7426 62.1149L91.4178 59.9443L82.0856 68.6571Z" fill="white"/>
<rect x="28.5649" y="23.3933" width="10.3433" height="10.3433" rx="1" fill="#CED2DE"/>
<rect x="51.8369" y="23.3933" width="10.3433" height="10.3433" rx="1" fill="#CED2DE"/>
<rect x="28.5649" y="42.7886" width="10.3433" height="10.3433" rx="1" fill="#CED2DE"/>
<rect x="51.8369" y="42.7886" width="10.3433" height="10.3433" rx="1" fill="#CED2DE"/>
<rect x="28.5649" y="62.1809" width="10.3433" height="10.3433" rx="1" fill="#CED2DE"/>
<defs>
<filter id="filter0_d_2511_6964" x="7.7583" y="0" width="79.2314" height="101.211" filterUnits="userSpaceOnUse" color-interpolation-filters="sRGB">
<feFlood flood-opacity="0" result="BackgroundImageFix"/>
<feColorMatrix in="SourceAlpha" type="matrix" values="0 0 0 0 0 0 0 0 0 0 0 0 0 0 0 0 0 0 127 0" result="hardAlpha"/>
<feOffset dx="2" dy="2"/>
<feGaussianBlur stdDeviation="3"/>
<feComposite in2="hardAlpha" operator="out"/>
<feColorMatrix type="matrix" values="0 0 0 0 0 0 0 0 0 0 0 0 0 0 0 0 0 0 0.25 0"/>
<feBlend mode="normal" in2="BackgroundImageFix" result="effect1_dropShadow_2511_6964"/>
<feBlend mode="normal" in="SourceGraphic" in2="effect1_dropShadow_2511_6964" result="shape"/>
</filter>
<filter id="filter1_d_2511_6964" x="0" y="89.2112" width="108.968" height="19.7576" filterUnits="userSpaceOnUse" color-interpolation-filters="sRGB">
<feFlood flood-opacity="0" result="BackgroundImageFix"/>
<feColorMatrix in="SourceAlpha" type="matrix" values="0 0 0 0 0 0 0 0 0 0 0 0 0 0 0 0 0 0 127 0" result="hardAlpha"/>
<feOffset dx="2" dy="2"/>
<feGaussianBlur stdDeviation="3"/>
<feComposite in2="hardAlpha" operator="out"/>
<feColorMatrix type="matrix" values="0 0 0 0 0 0 0 0 0 0 0 0 0 0 0 0 0 0 0.09 0"/>
<feBlend mode="normal" in2="BackgroundImageFix" result="effect1_dropShadow_2511_6964"/>
<feBlend mode="normal" in="SourceGraphic" in2="effect1_dropShadow_2511_6964" result="shape"/>
</filter>
</defs>
</svg>
