<svg width="453" height="453" viewBox="0 0 453 453" fill="none" xmlns="http://www.w3.org/2000/svg">
<path d="M181.646 79.983V82.575H165.902V80.527L173.998 72.751C174.616 72.0896 175.182 71.471 175.694 70.895C176.227 70.2976 176.675 69.7003 177.038 69.103C177.422 68.5056 177.72 67.9083 177.934 67.311C178.147 66.6923 178.254 66.0416 178.254 65.3589C178.232 64.6549 178.115 64.047 177.902 63.535C177.688 63.023 177.379 62.5963 176.974 62.2549C176.59 61.9136 176.131 61.6576 175.598 61.4869C175.086 61.3163 174.531 61.2309 173.934 61.2309C173.336 61.2309 172.782 61.3163 172.27 61.4869C171.758 61.6576 171.31 61.903 170.926 62.2229C170.542 62.5429 170.211 62.9163 169.934 63.343C169.678 63.7483 169.496 64.207 169.39 64.719C169.304 65.1456 169.262 65.519 169.262 65.839L166.382 65.3589C166.531 64.2709 166.83 63.3216 167.278 62.511C167.726 61.679 168.28 60.9856 168.942 60.431C169.624 59.8549 170.403 59.4283 171.278 59.1509C172.152 58.8523 173.091 58.7029 174.094 58.7029C175.075 58.7029 176.003 58.8523 176.878 59.1509C177.752 59.4496 178.51 59.8869 179.15 60.4629C179.79 61.0176 180.291 61.7003 180.654 62.511C181.016 63.3216 181.198 64.2496 181.198 65.295C181.198 66.1696 181.059 66.991 180.782 67.759C180.526 68.5056 180.174 69.2203 179.726 69.903C179.278 70.5643 178.755 71.2256 178.158 71.887C177.582 72.5483 176.963 73.2096 176.302 73.871L169.742 80.367C170.19 80.239 170.638 80.143 171.086 80.079C171.555 80.015 171.992 79.983 172.398 79.983H181.646ZM199.876 70.895C199.876 72.9856 199.652 74.7883 199.204 76.303C198.756 77.8176 198.148 79.0763 197.38 80.079C196.612 81.0816 195.706 81.8283 194.66 82.319C193.615 82.7883 192.484 83.023 191.268 83.023C190.052 83.023 188.922 82.7883 187.876 82.319C186.831 81.8283 185.914 81.0816 185.124 80.079C184.356 79.0763 183.748 77.8176 183.3 76.303C182.874 74.7883 182.66 72.9856 182.66 70.895C182.66 68.8043 182.874 67.0016 183.3 65.4869C183.748 63.951 184.356 62.6816 185.124 61.6789C185.914 60.6763 186.831 59.9403 187.876 59.4709C188.922 58.9803 190.052 58.7349 191.268 58.7349C192.484 58.7349 193.615 58.9803 194.66 59.4709C195.706 59.9403 196.612 60.6763 197.38 61.6789C198.148 62.6816 198.756 63.951 199.204 65.4869C199.652 67.0016 199.876 68.8043 199.876 70.895ZM196.932 70.895C196.932 69.0603 196.772 67.5243 196.452 66.287C196.154 65.0283 195.738 64.0256 195.204 63.2789C194.692 62.5109 194.095 61.9669 193.412 61.6469C192.73 61.3056 192.015 61.135 191.268 61.135C190.522 61.135 189.807 61.3056 189.124 61.6469C188.442 61.9669 187.844 62.5109 187.332 63.2789C186.82 64.0256 186.404 65.0283 186.084 66.287C185.786 67.5243 185.636 69.0603 185.636 70.895C185.636 72.7083 185.786 74.2443 186.084 75.503C186.404 76.7403 186.82 77.743 187.332 78.511C187.844 79.279 188.442 79.8336 189.124 80.175C189.807 80.495 190.522 80.655 191.268 80.655C192.015 80.655 192.73 80.495 193.412 80.175C194.095 79.8336 194.692 79.279 195.204 78.511C195.738 77.743 196.154 76.7403 196.452 75.503C196.772 74.2443 196.932 72.7083 196.932 70.895ZM216.571 79.983V82.575H200.827V80.527L208.923 72.751C209.541 72.0896 210.107 71.471 210.619 70.895C211.152 70.2976 211.6 69.7003 211.963 69.103C212.347 68.5056 212.645 67.9083 212.859 67.311C213.072 66.6923 213.179 66.0416 213.179 65.3589C213.157 64.6549 213.04 64.047 212.827 63.535C212.613 63.023 212.304 62.5963 211.899 62.2549C211.515 61.9136 211.056 61.6576 210.523 61.4869C210.011 61.3163 209.456 61.2309 208.859 61.2309C208.261 61.2309 207.707 61.3163 207.195 61.4869C206.683 61.6576 206.235 61.903 205.851 62.2229C205.467 62.5429 205.136 62.9163 204.859 63.343C204.603 63.7483 204.421 64.207 204.315 64.719C204.229 65.1456 204.187 65.519 204.187 65.839L201.307 65.3589C201.456 64.2709 201.755 63.3216 202.203 62.511C202.651 61.679 203.205 60.9856 203.867 60.431C204.549 59.8549 205.328 59.4283 206.203 59.1509C207.077 58.8523 208.016 58.7029 209.019 58.7029C210 58.7029 210.928 58.8523 211.803 59.1509C212.677 59.4496 213.435 59.8869 214.075 60.4629C214.715 61.0176 215.216 61.7003 215.579 62.511C215.941 63.3216 216.123 64.2496 216.123 65.295C216.123 66.1696 215.984 66.991 215.707 67.759C215.451 68.5056 215.099 69.2203 214.651 69.903C214.203 70.5643 213.68 71.2256 213.083 71.887C212.507 72.5483 211.888 73.2096 211.227 73.871L204.667 80.367C205.115 80.239 205.563 80.143 206.011 80.079C206.48 80.015 206.917 79.983 207.323 79.983H216.571ZM234.033 79.983V82.575H218.289V80.527L226.385 72.751C227.004 72.0896 227.569 71.471 228.081 70.895C228.615 70.2976 229.063 69.7003 229.425 69.103C229.809 68.5056 230.108 67.9083 230.321 67.311C230.535 66.6923 230.641 66.0416 230.641 65.3589C230.62 64.6549 230.503 64.047 230.289 63.535C230.076 63.023 229.767 62.5963 229.361 62.2549C228.977 61.9136 228.519 61.6576 227.985 61.4869C227.473 61.3163 226.919 61.2309 226.321 61.2309C225.724 61.2309 225.169 61.3163 224.657 61.4869C224.145 61.6576 223.697 61.903 223.313 62.2229C222.929 62.5429 222.599 62.9163 222.321 63.343C222.065 63.7483 221.884 64.207 221.777 64.719C221.692 65.1456 221.649 65.519 221.649 65.839L218.769 65.3589C218.919 64.2709 219.217 63.3216 219.665 62.511C220.113 61.679 220.668 60.9856 221.329 60.431C222.012 59.8549 222.791 59.4283 223.665 59.1509C224.54 58.8523 225.479 58.7029 226.481 58.7029C227.463 58.7029 228.391 58.8523 229.265 59.1509C230.14 59.4496 230.897 59.8869 231.537 60.4629C232.177 61.0176 232.679 61.7003 233.041 62.511C233.404 63.3216 233.585 64.2496 233.585 65.295C233.585 66.1696 233.447 66.991 233.169 67.759C232.913 68.5056 232.561 69.2203 232.113 69.903C231.665 70.5643 231.143 71.2256 230.545 71.887C229.969 72.5483 229.351 73.2096 228.689 73.871L222.129 80.367C222.577 80.239 223.025 80.143 223.473 80.079C223.943 80.015 224.38 79.983 224.785 79.983H234.033ZM244.06 82.991C243.484 82.991 242.983 82.7883 242.556 82.383C242.151 81.9776 241.948 81.4443 241.948 80.783C241.948 80.1216 242.151 79.5776 242.556 79.151C242.983 78.7243 243.484 78.511 244.06 78.511C244.636 78.511 245.127 78.7243 245.532 79.151C245.959 79.5776 246.172 80.1216 246.172 80.783C246.172 81.4443 245.959 81.9776 245.532 82.383C245.127 82.7883 244.636 82.991 244.06 82.991ZM269.307 80.207V82.575H256.635V80.207H261.851V64.143C261.851 63.9083 261.851 63.6416 261.851 63.343C261.851 63.0229 261.861 62.7456 261.883 62.511L257.627 66.319L256.059 64.431L262.363 58.9909H264.699V80.207H269.307ZM286.769 80.207V82.575H274.097V80.207H279.313V64.143C279.313 63.9083 279.313 63.6416 279.313 63.343C279.313 63.0229 279.324 62.7456 279.345 62.511L275.089 66.319L273.521 64.431L279.825 58.9909H282.161V80.207H286.769Z" fill="#182869"/>
<path opacity="0.3" d="M71.4923 185.477V174.924H70.3883L68.3904 175.826V177.042L70.2531 176.231V185.477H71.4923Z" fill="black"/>
<path opacity="0.3" d="M72.9126 225.384C73.6337 224.918 74.0467 224.145 74.0467 223.311C74.0467 221.982 72.9277 220.802 71.3955 220.802C69.8708 220.802 68.7517 221.982 68.7517 223.303C68.7517 224.137 69.1648 224.911 69.8783 225.376C68.6165 225.857 67.9181 227.036 67.9181 228.336C67.9181 230.266 69.4052 231.7 71.3955 231.7C73.3933 231.7 74.8654 230.266 74.8654 228.336C74.8654 227.051 74.1669 225.857 72.9126 225.384ZM71.388 221.989C72.1015 221.989 72.7925 222.545 72.7925 223.431C72.7925 224.235 72.2367 224.926 71.403 224.926C70.5618 224.926 69.9985 224.235 69.9985 223.431C69.9985 222.545 70.682 221.989 71.388 221.989ZM71.3955 230.514C70.0135 230.514 69.1723 229.672 69.1723 228.358C69.1723 227.036 70.0886 226 71.403 226C72.7098 226 73.6186 227.036 73.6186 228.358C73.6186 229.672 72.7774 230.514 71.3955 230.514Z" fill="black"/>
<path d="M67.2003 277.578V267.026H66.0963L64.0985 267.927V269.144L65.9611 268.332V277.578H67.2003ZM73.1098 277.773C75.1827 277.773 76.7825 276.181 76.7825 274.108C76.7825 271.908 75.3405 270.488 73.3201 270.488C72.6216 270.488 71.6152 270.736 71.0819 271.307L71.2997 268.175H76.0089V267.026H70.2483L69.8577 272.568H70.9768C71.3523 271.938 72.2611 271.457 73.0948 271.457C74.5368 271.457 75.6184 272.493 75.6184 274.086C75.6184 275.588 74.4767 276.677 73.1023 276.677C72.0884 276.677 71.2246 276.271 70.5712 274.994L69.6023 275.453C70.3384 277.105 71.6302 277.773 73.1098 277.773Z" fill="black"/>
<path d="M70.8731 322.558V321.409H65.9461L68.5448 318.863C69.8366 317.593 70.8355 316.392 70.8355 314.889C70.8355 313.2 69.6113 311.825 67.5759 311.825C66.1188 311.825 64.9321 312.621 64.2712 313.981L65.2626 314.461C65.6982 313.613 66.4868 312.989 67.5008 312.989C68.8302 312.989 69.5887 313.815 69.5887 314.942C69.5887 315.896 68.8752 316.917 67.636 318.134L64.0985 321.612V322.558H70.8731ZM78.325 322.558V321.409H73.398L75.9967 318.863C77.2885 317.593 78.2875 316.392 78.2875 314.889C78.2875 313.2 77.0632 311.825 75.0278 311.825C73.5708 311.825 72.3841 312.621 71.7232 313.981L72.7146 314.461C73.1502 313.613 73.9388 312.989 74.9527 312.989C76.2821 312.989 77.0407 313.815 77.0407 314.942C77.0407 315.896 76.3272 316.917 75.0879 318.134L71.5504 321.612V322.558H78.325Z" fill="black"/>
<path d="M69.7998 368.608V367.459H64.8728L67.4715 364.913C68.7633 363.644 69.7623 362.442 69.7623 360.94C69.7623 359.25 68.538 357.876 66.5026 357.876C65.0456 357.876 63.8589 358.672 63.198 360.031L64.1894 360.512C64.625 359.663 65.4136 359.04 66.4275 359.04C67.7569 359.04 68.5155 359.866 68.5155 360.993C68.5155 361.947 67.802 362.968 66.5627 364.185L63.0252 367.662V368.608H69.7998ZM74.8183 357.868C72.7529 357.868 71.078 359.551 71.078 361.624C71.078 363.704 72.6553 365.244 74.5254 365.244C74.916 365.244 75.3516 365.169 75.7346 364.996L73.196 368.631H74.593L77.77 364.05C78.2282 363.389 78.5661 362.525 78.5661 361.624C78.5661 359.551 76.8913 357.868 74.8183 357.868ZM74.8183 364.207C73.3913 364.207 72.2572 363.051 72.2572 361.616C72.2572 360.182 73.3913 359.017 74.8183 359.017C76.2529 359.017 77.3945 360.182 77.3945 361.616C77.3945 363.051 76.2529 364.207 74.8183 364.207Z" fill="black"/>
<path d="M62.9081 140.68V131.667H64.8651L67.7363 137.384L70.5689 131.667H72.526V140.68H70.8779V134.461L68.3672 139.392H67.0668L64.5561 134.461V140.68H62.9081ZM76.9784 140.834C76.3604 140.834 75.8025 140.693 75.3046 140.409C74.8154 140.126 74.4248 139.736 74.133 139.238C73.8497 138.731 73.7081 138.148 73.7081 137.487C73.7081 136.826 73.854 136.246 74.1459 135.749C74.4377 135.242 74.8283 134.847 75.3175 134.564C75.8154 134.281 76.3733 134.139 76.9913 134.139C77.6008 134.139 78.1501 134.281 78.6394 134.564C79.1372 134.847 79.5278 135.242 79.811 135.749C80.1029 136.246 80.2488 136.826 80.2488 137.487C80.2488 138.148 80.1029 138.731 79.811 139.238C79.5278 139.736 79.1372 140.126 78.6394 140.409C78.1415 140.693 77.5879 140.834 76.9784 140.834ZM76.9784 139.405C77.4076 139.405 77.781 139.246 78.0986 138.929C78.4162 138.603 78.575 138.122 78.575 137.487C78.575 136.852 78.4162 136.375 78.0986 136.058C77.781 135.731 77.4119 135.568 76.9913 135.568C76.5536 135.568 76.1759 135.731 75.8583 136.058C75.5493 136.375 75.3948 136.852 75.3948 137.487C75.3948 138.122 75.5493 138.603 75.8583 138.929C76.1759 139.246 76.5493 139.405 76.9784 139.405Z" fill="#3649F9"/>
<path opacity="0.3" d="M124.521 185.477V184.328H119.594L122.192 181.782C123.484 180.512 124.483 179.311 124.483 177.809C124.483 176.119 123.259 174.744 121.223 174.744C119.766 174.744 118.58 175.54 117.919 176.9L118.91 177.38C119.346 176.532 120.134 175.908 121.148 175.908C122.478 175.908 123.236 176.735 123.236 177.861C123.236 178.815 122.523 179.836 121.283 181.053L117.746 184.531V185.477H124.521Z" fill="black"/>
<path opacity="0.3" d="M121.014 220.787C118.948 220.787 117.274 222.47 117.274 224.543C117.274 226.623 118.851 228.163 120.721 228.163C121.111 228.163 121.547 228.088 121.93 227.915L119.392 231.55H120.789L123.966 226.969C124.424 226.308 124.762 225.444 124.762 224.543C124.762 222.47 123.087 220.787 121.014 220.787ZM121.014 227.126C119.587 227.126 118.453 225.97 118.453 224.535C118.453 223.101 119.587 221.936 121.014 221.936C122.448 221.936 123.59 223.101 123.59 224.535C123.59 225.97 122.448 227.126 121.014 227.126Z" fill="black"/>
<path d="M117.629 277.578V267.026H116.525L114.527 267.927V269.144L116.39 268.332V277.578H117.629ZM123.922 270.405C123.531 270.405 123.095 270.481 122.712 270.653L125.251 267.018H123.854L120.677 271.6C120.219 272.261 119.881 273.124 119.881 274.026C119.881 276.098 121.556 277.781 123.629 277.781C125.694 277.781 127.369 276.098 127.369 274.026C127.369 271.945 125.792 270.405 123.922 270.405ZM123.629 276.632C122.194 276.632 121.053 275.468 121.053 274.033C121.053 272.599 122.194 271.442 123.629 271.442C125.056 271.442 126.19 272.599 126.19 274.033C126.19 275.468 125.056 276.632 123.629 276.632Z" fill="black"/>
<path d="M120.229 322.558V321.409H115.302L117.9 318.863C119.192 317.593 120.191 316.392 120.191 314.889C120.191 313.2 118.967 311.825 116.931 311.825C115.474 311.825 114.288 312.621 113.627 313.981L114.618 314.461C115.054 313.613 115.842 312.989 116.856 312.989C118.186 312.989 118.944 313.815 118.944 314.942C118.944 315.896 118.231 316.917 116.991 318.134L113.454 321.612V322.558H120.229ZM124.353 322.746C126.426 322.746 127.876 321.319 127.876 319.366C127.876 317.774 126.757 316.144 124.549 316.256L127.282 313.14V312.005H121.492V313.17H125.803L123.174 316.279V317.203H123.73C125.57 317.203 126.629 317.841 126.629 319.328C126.629 320.673 125.683 321.627 124.293 321.627C123.227 321.627 122.378 320.981 121.905 320.124L120.906 320.598C121.537 321.844 122.814 322.746 124.353 322.746Z" fill="black"/>
<path d="M115.829 368.796C117.902 368.796 119.352 367.369 119.352 365.416C119.352 363.824 118.232 362.194 116.024 362.307L118.758 359.19V358.056H112.967V359.22H117.279L114.65 362.33V363.253H115.206C117.046 363.253 118.105 363.892 118.105 365.379C118.105 366.723 117.158 367.677 115.769 367.677C114.702 367.677 113.854 367.031 113.381 366.175L112.382 366.648C113.013 367.895 114.289 368.796 115.829 368.796ZM125.239 368.781C127.8 368.781 129.617 366.746 129.617 363.328C129.617 359.911 127.8 357.883 125.239 357.883C122.677 357.883 120.86 359.911 120.86 363.328C120.86 366.746 122.677 368.781 125.239 368.781ZM125.239 367.587C123.413 367.587 122.114 366.055 122.114 363.336C122.114 360.61 123.413 359.07 125.239 359.07C127.071 359.07 128.371 360.61 128.371 363.336C128.371 366.055 127.071 367.587 125.239 367.587Z" fill="black"/>
<path d="M117.623 140.68V132.993H114.997V131.667H121.911V132.993H119.271V140.68H117.623ZM124.525 140.834C123.726 140.834 123.108 140.585 122.671 140.088C122.241 139.59 122.027 138.86 122.027 137.899V134.294H123.662V137.744C123.662 138.294 123.774 138.714 123.997 139.006C124.22 139.298 124.572 139.444 125.053 139.444C125.508 139.444 125.881 139.281 126.173 138.955C126.473 138.628 126.623 138.173 126.623 137.59V134.294H128.271V140.68H126.817L126.688 139.598C126.49 139.976 126.203 140.276 125.825 140.5C125.456 140.723 125.023 140.834 124.525 140.834Z" fill="#3649F9"/>
<path opacity="0.3" d="M171.621 185.665C173.694 185.665 175.144 184.238 175.144 182.285C175.144 180.693 174.024 179.063 171.816 179.176L174.55 176.059V174.924H168.759V176.089H173.071L170.442 179.198V180.122H170.998C172.838 180.122 173.897 180.76 173.897 182.247C173.897 183.592 172.95 184.546 171.561 184.546C170.494 184.546 169.646 183.9 169.173 183.043L168.174 183.517C168.805 184.763 170.081 185.665 171.621 185.665Z" fill="black"/>
<path opacity="0.3" d="M168.057 231.528V220.975H166.953L164.955 221.876V223.093L166.818 222.282V231.528H168.057ZM174.687 231.7C177.248 231.7 179.066 229.665 179.066 226.248C179.066 222.83 177.248 220.802 174.687 220.802C172.126 220.802 170.309 222.83 170.309 226.248C170.309 229.665 172.126 231.7 174.687 231.7ZM174.687 230.506C172.862 230.506 171.563 228.974 171.563 226.255C171.563 223.529 172.862 221.989 174.687 221.989C176.52 221.989 177.819 223.529 177.819 226.255C177.819 228.974 176.52 230.506 174.687 230.506Z" fill="black"/>
<path d="M169.13 277.578V267.026H168.026L166.028 267.927V269.144L167.891 268.332V277.578H169.13ZM172.989 277.578L177.788 268.055V267.026H170.976V268.182H176.399L171.667 277.578H172.989Z" fill="black"/>
<path d="M170.656 322.558V321.409H165.729L168.328 318.863C169.62 317.593 170.619 316.392 170.619 314.889C170.619 313.2 169.394 311.825 167.359 311.825C165.902 311.825 164.715 312.621 164.054 313.981L165.046 314.461C165.481 313.613 166.27 312.989 167.284 312.989C168.613 312.989 169.372 313.815 169.372 314.942C169.372 315.896 168.658 316.917 167.419 318.134L163.882 321.612V322.558H170.656ZM177.576 322.558V320.568H178.995V319.448H177.576V312.005H176.63L171.177 319.539V320.568H176.412V322.558H177.576ZM176.412 314.048V319.448H172.551L176.412 314.048Z" fill="black"/>
<path d="M169.476 368.796C171.548 368.796 172.998 367.369 172.998 365.416C172.998 363.824 171.879 362.194 169.671 362.307L172.405 359.19V358.056H166.614V359.22H170.925L168.296 362.33V363.253H168.852C170.692 363.253 171.751 363.892 171.751 365.379C171.751 366.723 170.805 367.677 169.415 367.677C168.349 367.677 167.5 367.031 167.027 366.175L166.028 366.648C166.659 367.895 167.936 368.796 169.476 368.796ZM177.007 368.608V358.056H175.903L173.906 358.957V360.174L175.768 359.363V368.608H177.007Z" fill="black"/>
<path d="M165.172 140.68L162.79 131.667H164.554L166.176 138.839L168.081 131.667H169.897L171.751 138.839L173.373 131.667H175.15L172.704 140.68H170.747L168.957 133.997L167.116 140.68H165.172ZM178.408 140.834C177.764 140.834 177.193 140.697 176.695 140.422C176.198 140.148 175.807 139.761 175.524 139.264C175.241 138.766 175.099 138.191 175.099 137.538C175.099 136.877 175.236 136.289 175.511 135.774C175.794 135.259 176.18 134.86 176.67 134.577C177.168 134.285 177.751 134.139 178.421 134.139C179.047 134.139 179.601 134.276 180.082 134.551C180.562 134.826 180.936 135.203 181.202 135.684C181.477 136.156 181.614 136.684 181.614 137.268C181.614 137.362 181.61 137.461 181.601 137.564C181.601 137.667 181.597 137.774 181.588 137.886H176.734C176.768 138.384 176.94 138.774 177.249 139.058C177.567 139.341 177.949 139.482 178.395 139.482C178.73 139.482 179.009 139.409 179.232 139.264C179.464 139.109 179.635 138.912 179.747 138.671H181.421C181.301 139.075 181.099 139.444 180.816 139.779C180.541 140.105 180.198 140.362 179.786 140.551C179.382 140.74 178.923 140.834 178.408 140.834ZM178.421 135.478C178.017 135.478 177.661 135.594 177.352 135.826C177.043 136.049 176.846 136.392 176.76 136.856H179.94C179.914 136.435 179.76 136.1 179.477 135.852C179.193 135.603 178.841 135.478 178.421 135.478Z" fill="#3649F9"/>
<ellipse cx="225.426" cy="227.702" rx="18.7766" ry="18.7415" fill="#3649F9"/>
<path opacity="0.3" d="M227.343 185.477V183.487H228.763V182.368H227.343V174.924H226.397L220.944 182.458V183.487H226.179V185.477H227.343ZM226.179 176.967V182.368H222.319L226.179 176.967Z" fill="black"/>
<path d="M223.851 232.598V222.046H222.747L220.749 222.947V224.164L222.611 223.353V232.598H223.851ZM228.604 232.598V222.046H227.5L225.502 222.947V224.164L227.364 223.353V232.598H228.604Z" fill="white"/>
<path d="M221.704 277.578V267.026H220.6L218.602 267.927V269.144L220.465 268.332V277.578H221.704ZM228.951 271.434C229.672 270.969 230.085 270.195 230.085 269.361C230.085 268.032 228.966 266.853 227.433 266.853C225.909 266.853 224.79 268.032 224.79 269.354C224.79 270.188 225.203 270.961 225.916 271.427C224.655 271.908 223.956 273.087 223.956 274.386C223.956 276.316 225.443 277.751 227.433 277.751C229.431 277.751 230.903 276.316 230.903 274.386C230.903 273.102 230.205 271.908 228.951 271.434ZM227.426 268.04C228.139 268.04 228.83 268.595 228.83 269.482C228.83 270.285 228.275 270.976 227.441 270.976C226.6 270.976 226.036 270.285 226.036 269.482C226.036 268.595 226.72 268.04 227.426 268.04ZM227.433 276.564C226.052 276.564 225.21 275.723 225.21 274.409C225.21 273.087 226.127 272.05 227.441 272.05C228.748 272.05 229.657 273.087 229.657 274.409C229.657 275.723 228.815 276.564 227.433 276.564Z" fill="black"/>
<path d="M223.231 322.558V321.409H218.304L220.903 318.863C222.195 317.593 223.194 316.392 223.194 314.889C223.194 313.2 221.97 311.825 219.934 311.825C218.477 311.825 217.291 312.621 216.63 313.981L217.621 314.461C218.057 313.613 218.845 312.989 219.859 312.989C221.189 312.989 221.947 313.815 221.947 314.942C221.947 315.896 221.234 316.917 219.994 318.134L216.457 321.612V322.558H223.231ZM228.167 322.753C230.24 322.753 231.84 321.161 231.84 319.088C231.84 316.887 230.398 315.468 228.378 315.468C227.679 315.468 226.673 315.716 226.139 316.286L226.357 313.155H231.066V312.005H225.306L224.915 317.548H226.034C226.41 316.917 227.319 316.437 228.152 316.437C229.594 316.437 230.676 317.473 230.676 319.065C230.676 320.568 229.534 321.657 228.16 321.657C227.146 321.657 226.282 321.251 225.629 319.974L224.66 320.432C225.396 322.085 226.688 322.753 228.167 322.753Z" fill="black"/>
<path d="M220.841 140.68V132.993H218.215V131.667H225.129V132.993H222.489V140.68H220.841ZM225.989 140.68V131.41H227.637V135.272C227.852 134.92 228.139 134.646 228.5 134.448C228.869 134.242 229.289 134.139 229.762 134.139C230.551 134.139 231.161 134.388 231.59 134.886C232.028 135.384 232.246 136.113 232.246 137.075V140.68H230.611V137.229C230.611 136.68 230.5 136.259 230.277 135.967C230.062 135.676 229.719 135.53 229.247 135.53C228.783 135.53 228.397 135.693 228.088 136.019C227.787 136.345 227.637 136.8 227.637 137.384V140.68H225.989Z" fill="#3649F9"/>
<path opacity="0.3" d="M278.655 185.672C280.728 185.672 282.328 184.08 282.328 182.007C282.328 179.806 280.885 178.387 278.865 178.387C278.167 178.387 277.16 178.635 276.627 179.206L276.845 176.074H281.554V174.925H275.793L275.403 180.467H276.522C276.897 179.837 277.806 179.356 278.64 179.356C280.082 179.356 281.163 180.392 281.163 181.985C281.163 183.487 280.022 184.576 278.647 184.576C277.633 184.576 276.77 184.17 276.116 182.893L275.147 183.351C275.883 185.004 277.175 185.672 278.655 185.672Z" fill="black"/>
<path d="M275.353 231.528V220.975H274.249L272.251 221.876V223.093L274.113 222.282V231.528H275.353ZM283.778 231.528V230.378H278.851L281.45 227.832C282.742 226.563 283.741 225.361 283.741 223.859C283.741 222.169 282.516 220.795 280.481 220.795C279.024 220.795 277.837 221.591 277.176 222.95L278.168 223.431C278.603 222.582 279.392 221.959 280.406 221.959C281.735 221.959 282.494 222.785 282.494 223.912C282.494 224.866 281.78 225.887 280.541 227.104L277.004 230.581V231.528H283.778Z" fill="black"/>
<path d="M275.353 277.578V267.026H274.249L272.251 267.927V269.144L274.113 268.333V277.578H275.353ZM281.345 266.838C279.279 266.838 277.604 268.52 277.604 270.593C277.604 272.674 279.182 274.213 281.052 274.213C281.442 274.213 281.878 274.138 282.261 273.966L279.722 277.601H281.119L284.296 273.019C284.755 272.358 285.093 271.495 285.093 270.593C285.093 268.52 283.418 266.838 281.345 266.838ZM281.345 273.177C279.918 273.177 278.784 272.02 278.784 270.586C278.784 269.151 279.918 267.987 281.345 267.987C282.779 267.987 283.921 269.151 283.921 270.586C283.921 272.02 282.779 273.177 281.345 273.177Z" fill="black"/>
<path d="M276.879 322.558V321.409H271.952L274.551 318.863C275.842 317.593 276.841 316.392 276.841 314.89C276.841 313.2 275.617 311.825 273.582 311.825C272.125 311.825 270.938 312.621 270.277 313.981L271.268 314.461C271.704 313.613 272.493 312.989 273.507 312.989C274.836 312.989 275.595 313.816 275.595 314.942C275.595 315.896 274.881 316.917 273.642 318.134L270.104 321.612V322.558H276.879ZM282.198 315.385C281.807 315.385 281.372 315.46 280.989 315.633L283.527 311.998H282.13L278.953 316.579C278.495 317.24 278.157 318.104 278.157 319.005C278.157 321.078 279.832 322.761 281.905 322.761C283.97 322.761 285.645 321.078 285.645 319.005C285.645 316.925 284.068 315.385 282.198 315.385ZM281.905 321.612C280.47 321.612 279.329 320.447 279.329 319.013C279.329 317.578 280.47 316.422 281.905 316.422C283.332 316.422 284.466 317.578 284.466 319.013C284.466 320.447 283.332 321.612 281.905 321.612Z" fill="black"/>
<path d="M274.013 140.68V131.667H279.833V132.993H275.661V135.517H279.034V136.817H275.661V140.68H274.013ZM280.744 140.68V134.294H282.212L282.366 135.491C282.598 135.079 282.911 134.753 283.306 134.513C283.71 134.264 284.182 134.139 284.722 134.139V135.877H284.259C283.898 135.877 283.577 135.933 283.293 136.045C283.01 136.156 282.787 136.349 282.624 136.624C282.469 136.899 282.392 137.281 282.392 137.77V140.68H280.744Z" fill="#3649F9"/>
<path opacity="0.3" d="M329.467 178.304C329.076 178.304 328.64 178.379 328.257 178.552L330.796 174.917H329.399L326.222 179.498C325.764 180.159 325.426 181.023 325.426 181.924C325.426 183.997 327.101 185.68 329.174 185.68C331.239 185.68 332.914 183.997 332.914 181.924C332.914 179.844 331.337 178.304 329.467 178.304ZM329.174 184.531C327.739 184.531 326.598 183.366 326.598 181.932C326.598 180.497 327.739 179.341 329.174 179.341C330.601 179.341 331.735 180.497 331.735 181.932C331.735 183.366 330.601 184.531 329.174 184.531Z" fill="black"/>
<path d="M325.781 231.528V220.975H324.677L322.68 221.876V223.093L324.542 222.282V231.528H325.781ZM330.88 231.715C332.953 231.715 334.402 230.288 334.402 228.336C334.402 226.743 333.283 225.113 331.075 225.226L333.809 222.109V220.975H328.018V222.139H332.329L329.701 225.249V226.172H330.256C332.096 226.172 333.155 226.811 333.155 228.298C333.155 229.642 332.209 230.596 330.82 230.596C329.753 230.596 328.904 229.95 328.431 229.094L327.432 229.567C328.063 230.814 329.34 231.715 330.88 231.715Z" fill="black"/>
<path d="M327.309 277.578V276.429H322.382L324.98 273.883C326.272 272.614 327.271 271.412 327.271 269.91C327.271 268.22 326.047 266.845 324.011 266.845C322.554 266.845 321.368 267.641 320.707 269.001L321.698 269.482C322.134 268.633 322.922 268.01 323.936 268.01C325.266 268.01 326.024 268.836 326.024 269.962C326.024 270.916 325.311 271.938 324.072 273.154L320.534 276.632V277.578H327.309ZM332.966 277.751C335.527 277.751 337.344 275.715 337.344 272.298C337.344 268.881 335.527 266.853 332.966 266.853C330.404 266.853 328.587 268.881 328.587 272.298C328.587 275.715 330.404 277.751 332.966 277.751ZM332.966 276.557C331.14 276.557 329.841 275.024 329.841 272.306C329.841 269.579 331.14 268.04 332.966 268.04C334.798 268.04 336.097 269.579 336.097 272.306C336.097 275.024 334.798 276.557 332.966 276.557Z" fill="black"/>
<path d="M328.381 322.558V321.409H323.454L326.053 318.863C327.344 317.593 328.343 316.392 328.343 314.889C328.343 313.2 327.119 311.825 325.084 311.825C323.627 311.825 322.44 312.621 321.779 313.981L322.77 314.461C323.206 313.613 323.995 312.989 325.009 312.989C326.338 312.989 327.097 313.815 327.097 314.942C327.097 315.896 326.383 316.917 325.144 318.134L321.606 321.612V322.558H328.381ZM331.266 322.558L336.066 313.034V312.005H329.254V313.162H334.676L329.944 322.558H331.266Z" fill="black"/>
<path d="M326.06 140.834C325.399 140.834 324.816 140.723 324.309 140.5C323.803 140.268 323.404 139.942 323.112 139.521C322.82 139.092 322.67 138.573 322.661 137.963H324.399C324.417 138.384 324.567 138.74 324.85 139.032C325.142 139.315 325.541 139.457 326.047 139.457C326.485 139.457 326.833 139.354 327.09 139.148C327.348 138.933 327.477 138.65 327.477 138.298C327.477 137.929 327.361 137.641 327.129 137.435C326.906 137.229 326.605 137.062 326.228 136.933C325.85 136.804 325.447 136.667 325.017 136.521C324.322 136.281 323.79 135.972 323.421 135.594C323.06 135.216 322.88 134.714 322.88 134.088C322.872 133.555 322.996 133.101 323.254 132.723C323.52 132.337 323.88 132.04 324.335 131.834C324.79 131.62 325.314 131.513 325.906 131.513C326.507 131.513 327.035 131.62 327.49 131.834C327.953 132.049 328.314 132.349 328.571 132.736C328.837 133.122 328.979 133.581 328.996 134.113H327.232C327.223 133.796 327.099 133.517 326.859 133.276C326.627 133.028 326.301 132.903 325.88 132.903C325.52 132.894 325.215 132.985 324.966 133.173C324.726 133.354 324.605 133.62 324.605 133.972C324.605 134.272 324.7 134.513 324.889 134.693C325.078 134.864 325.335 135.01 325.661 135.131C325.987 135.251 326.361 135.379 326.781 135.517C327.228 135.671 327.635 135.852 328.005 136.058C328.374 136.264 328.67 136.538 328.893 136.882C329.116 137.216 329.228 137.65 329.228 138.182C329.228 138.654 329.108 139.092 328.867 139.495C328.627 139.899 328.271 140.225 327.799 140.474C327.326 140.714 326.747 140.834 326.06 140.834ZM332.507 140.834C331.957 140.834 331.507 140.748 331.155 140.577C330.803 140.397 330.541 140.161 330.369 139.869C330.198 139.577 330.112 139.255 330.112 138.903C330.112 138.311 330.344 137.83 330.807 137.461C331.271 137.092 331.966 136.907 332.893 136.907H334.515V136.753C334.515 136.315 334.391 135.993 334.142 135.787C333.893 135.581 333.584 135.478 333.215 135.478C332.88 135.478 332.588 135.56 332.339 135.723C332.09 135.877 331.936 136.109 331.876 136.418H330.266C330.309 135.955 330.464 135.551 330.73 135.208C331.005 134.864 331.357 134.603 331.786 134.422C332.215 134.234 332.696 134.139 333.228 134.139C334.138 134.139 334.854 134.367 335.378 134.822C335.902 135.276 336.163 135.92 336.163 136.753V140.68H334.76L334.605 139.65C334.417 139.993 334.151 140.276 333.807 140.5C333.472 140.723 333.039 140.834 332.507 140.834ZM332.88 139.547C333.352 139.547 333.717 139.392 333.975 139.083C334.241 138.774 334.408 138.392 334.477 137.937H333.073C332.636 137.937 332.322 138.019 332.133 138.182C331.945 138.336 331.85 138.53 331.85 138.761C331.85 139.01 331.945 139.203 332.133 139.341C332.322 139.478 332.571 139.547 332.88 139.547Z" fill="#3649F9"/>
<path opacity="0.3" d="M378.534 185.477L383.333 175.953V174.924H376.521V176.081H381.944L377.212 185.477H378.534Z" fill="black"/>
<path d="M376.209 231.528V220.975H375.105L373.107 221.876V223.093L374.97 222.282V231.528H376.209ZM384.454 231.528V229.537H385.874V228.418H384.454V220.975H383.508L378.055 228.508V229.537H383.29V231.528H384.454ZM383.29 223.018V228.418H379.43L383.29 223.018Z" fill="black"/>
<path d="M380.954 277.578V276.429H376.027L378.626 273.883C379.918 272.614 380.917 271.412 380.917 269.91C380.917 268.22 379.692 266.845 377.657 266.845C376.2 266.845 375.013 267.641 374.352 269.001L375.344 269.482C375.779 268.633 376.568 268.01 377.582 268.01C378.911 268.01 379.67 268.836 379.67 269.962C379.67 270.916 378.956 271.938 377.717 273.154L374.18 276.632V277.578H380.954ZM384.733 277.578V267.026H383.629L381.631 267.927V269.144L383.494 268.332V277.578H384.733Z" fill="black"/>
<path d="M378.809 322.558V321.409H373.882L376.48 318.863C377.772 317.593 378.771 316.392 378.771 314.889C378.771 313.2 377.547 311.825 375.511 311.825C374.054 311.825 372.868 312.621 372.207 313.981L373.198 314.461C373.634 313.613 374.422 312.989 375.436 312.989C376.766 312.989 377.524 313.815 377.524 314.942C377.524 315.896 376.811 316.917 375.572 318.134L372.034 321.612V322.558H378.809ZM385.081 316.414C385.802 315.948 386.215 315.175 386.215 314.341C386.215 313.012 385.096 311.833 383.564 311.833C382.04 311.833 380.92 313.012 380.92 314.334C380.92 315.167 381.334 315.941 382.047 316.407C380.785 316.887 380.087 318.066 380.087 319.366C380.087 321.296 381.574 322.731 383.564 322.731C385.562 322.731 387.034 321.296 387.034 319.366C387.034 318.082 386.336 316.887 385.081 316.414ZM383.557 313.019C384.27 313.019 384.961 313.575 384.961 314.461C384.961 315.265 384.405 315.956 383.572 315.956C382.731 315.956 382.167 315.265 382.167 314.461C382.167 313.575 382.851 313.019 383.557 313.019ZM383.564 321.544C382.182 321.544 381.341 320.703 381.341 319.388C381.341 318.066 382.257 317.03 383.572 317.03C384.879 317.03 385.787 318.066 385.787 319.388C385.787 320.703 384.946 321.544 383.564 321.544Z" fill="black"/>
<path d="M376.823 140.834C376.162 140.834 375.578 140.723 375.072 140.5C374.566 140.268 374.166 139.942 373.875 139.521C373.583 139.092 373.433 138.573 373.424 137.963H375.162C375.179 138.384 375.33 138.74 375.613 139.032C375.905 139.315 376.304 139.457 376.81 139.457C377.248 139.457 377.596 139.354 377.853 139.148C378.111 138.933 378.239 138.65 378.239 138.298C378.239 137.929 378.123 137.641 377.892 137.435C377.669 137.229 377.368 137.062 376.99 136.933C376.613 136.804 376.209 136.667 375.78 136.521C375.085 136.281 374.553 135.972 374.184 135.594C373.823 135.216 373.643 134.714 373.643 134.088C373.634 133.555 373.759 133.101 374.016 132.723C374.282 132.337 374.643 132.04 375.098 131.834C375.553 131.62 376.076 131.513 376.669 131.513C377.269 131.513 377.797 131.62 378.252 131.834C378.716 132.049 379.076 132.349 379.334 132.736C379.6 133.122 379.741 133.581 379.759 134.113H377.995C377.986 133.796 377.862 133.517 377.621 133.276C377.39 133.028 377.063 132.903 376.643 132.903C376.282 132.894 375.978 132.985 375.729 133.173C375.488 133.354 375.368 133.62 375.368 133.972C375.368 134.272 375.463 134.513 375.651 134.693C375.84 134.864 376.098 135.01 376.424 135.131C376.75 135.251 377.123 135.379 377.544 135.517C377.99 135.671 378.398 135.852 378.767 136.058C379.136 136.264 379.432 136.538 379.656 136.882C379.879 137.216 379.99 137.65 379.99 138.182C379.99 138.654 379.87 139.092 379.63 139.495C379.39 139.899 379.033 140.225 378.561 140.474C378.089 140.714 377.51 140.834 376.823 140.834ZM383.463 140.834C382.664 140.834 382.046 140.585 381.609 140.088C381.179 139.59 380.965 138.86 380.965 137.899V134.294H382.6V137.744C382.6 138.294 382.712 138.714 382.935 139.006C383.158 139.298 383.51 139.444 383.991 139.444C384.445 139.444 384.819 139.281 385.111 138.955C385.411 138.628 385.561 138.173 385.561 137.59V134.294H387.209V140.68H385.754L385.626 139.598C385.428 139.976 385.141 140.276 384.763 140.5C384.394 140.723 383.96 140.834 383.463 140.834Z" fill="#3649F9"/>
<rect x="0.5" y="1.07495" width="451.999" height="451" stroke="#A5AECA"/>
</svg>
