<svg width="164" height="120" viewBox="0 0 164 120" fill="none" xmlns="http://www.w3.org/2000/svg">
<path d="M139.691 21.3702H24.0779C22.5196 21.3729 21.0261 21.9939 19.9252 23.0968C18.8243 24.1997 18.2061 25.6942 18.2061 27.2525V118.63H145.584V27.2525C145.586 26.4787 145.434 25.7124 145.138 24.9974C144.843 24.2824 144.408 23.6328 143.861 23.0862C143.313 22.5395 142.663 22.1066 141.947 21.8121C141.232 21.5176 140.465 21.3674 139.691 21.3702V21.3702Z" fill="#EBEBEB"/>
<path d="M136.386 105.402H27.2061V30.5923H136.386V105.402Z" fill="#93BAF4"/>
<g style="mix-blend-mode:multiply" opacity="0.5">
<path d="M110.38 39.15C110.388 45.3205 108.565 51.3547 105.143 56.4891C101.721 61.6236 96.8522 65.6275 91.1536 67.9943C85.4551 70.3612 79.1826 70.9845 73.1297 69.7856C67.0768 68.5866 61.5156 65.6192 57.1496 61.2588C52.7836 56.8984 49.809 51.341 48.6023 45.2896C47.3955 39.2383 48.0109 32.9649 50.3704 27.2634C52.7299 21.5618 56.7276 16.6882 61.8576 13.2592C66.9877 9.83027 73.0195 8.00001 79.19 8C87.4552 7.99999 95.3824 11.2806 101.231 17.1212C107.079 22.9618 110.369 30.8849 110.38 39.15V39.15Z" fill="#B4B4B4"/>
</g>
<path d="M110.792 31.19C110.792 37.3588 108.963 43.3891 105.536 48.5182C102.108 53.6474 97.2372 57.6451 91.538 60.0058C85.8388 62.3665 79.5675 62.9842 73.5172 61.7807C67.467 60.5773 61.9094 57.6067 57.5474 53.2447C53.1854 48.8827 50.2149 43.3251 49.0114 37.2749C47.808 31.2246 48.4256 24.9533 50.7863 19.2541C53.147 13.5549 57.1447 8.68367 62.2739 5.25647C67.403 1.82927 73.4333 0 79.6021 0C87.8742 0 95.8075 3.28609 101.657 9.13535C107.506 14.9846 110.792 22.9179 110.792 31.19V31.19Z" fill="#C2192E"/>
<path d="M91 36.6954C91.001 35.4346 90.7473 34.1861 90.2533 33.021C89.7594 31.856 89.0348 30.7973 88.1211 29.9055C87.2074 29.0136 86.1225 28.3061 84.9283 27.8234C83.7341 27.3407 82.4541 27.0923 81.1615 27.0923H79.8465C78.5531 27.0913 77.2723 27.339 76.0772 27.8212C74.8821 28.3034 73.7962 29.0108 72.8817 29.9027C71.9671 30.7947 71.2418 31.8537 70.7474 33.0192C70.2529 34.1848 69.999 35.434 70 36.6954V43.0923H91V36.6954Z" fill="white" fill-opacity="0.6"/>
<path d="M86 24.0923C86 25.2793 85.6479 26.4397 84.9882 27.4265C84.3286 28.4134 83.3911 29.1824 82.2943 29.6363C81.1974 30.0902 79.9906 30.2086 78.8265 29.9764C77.6624 29.7443 76.5934 29.172 75.7546 28.3321C74.9158 27.4922 74.3449 26.4224 74.1143 25.2579C73.8837 24.0935 74.0037 22.8869 74.459 21.7907C74.9143 20.6945 75.6846 19.7579 76.6724 19.0996C77.6601 18.4413 78.8209 18.0907 80.0079 18.0923C80.7955 18.0923 81.5753 18.2475 82.3028 18.5492C83.0303 18.8508 83.6912 19.2928 84.2477 19.8501C84.8043 20.4074 85.2455 21.0689 85.5462 21.7968C85.8468 22.5247 86.001 23.3047 86 24.0923V24.0923Z" fill="white"/>
<path d="M0.389047 111.25C0.271645 111.644 0.210068 112.052 0.206055 112.463C0.206055 116.18 4.7816 119.2 10.3981 119.2H153.614C159.241 119.2 163.794 116.18 163.794 112.463C163.794 112.052 163.736 111.644 163.623 111.25H0.389047Z" fill="#EDEDED"/>
<path d="M58.9839 84.3861L60.2091 82.2697L58 81.2858L58.4455 79.9121L60.8217 80.4505L61.0631 78H62.5296L62.7524 80.4505L65.1286 79.9121L65.5742 81.2858L63.3465 82.2697L64.5903 84.3861L63.4207 85.24L61.7871 83.3836L60.1534 85.24L58.9839 84.3861Z" fill="white"/>
<path d="M72.5581 84.3861L73.7833 82.2697L71.5742 81.2858L72.0198 79.9121L74.396 80.4505L74.6373 78H76.1039L76.3266 80.4505L78.7028 79.9121L79.1484 81.2858L76.9207 82.2697L78.1645 84.3861L76.9949 85.24L75.3613 83.3836L73.7277 85.24L72.5581 84.3861Z" fill="white"/>
<path d="M86.1323 84.3861L87.3576 82.2697L85.1484 81.2858L85.594 79.9121L87.9702 80.4505L88.2115 78H89.6781L89.9008 80.4505L92.2771 79.9121L92.7226 81.2858L90.4949 82.2697L91.7387 84.3861L90.5692 85.24L88.9355 83.3836L87.3019 85.24L86.1323 84.3861Z" fill="white"/>
<path d="M99.7066 84.3861L100.932 82.2697L98.7227 81.2858L99.1682 79.9121L101.544 80.4505L101.786 78H103.252L103.475 80.4505L105.851 79.9121L106.297 81.2858L104.069 82.2697L105.313 84.3861L104.143 85.24L102.51 83.3836L100.876 85.24L99.7066 84.3861Z" fill="white"/>
<rect x="45" y="71" width="74.2966" height="21.24" rx="10.62" stroke="white" stroke-width="2"/>
</svg>
