<svg width="98" height="117" viewBox="0 0 98 117" fill="none" xmlns="http://www.w3.org/2000/svg">
<path d="M52.2636 114.329H15.6696C11.5378 114.327 7.57589 112.685 4.65427 109.763C1.73265 106.841 0.0902727 102.879 0.0878906 98.7477V16.1818C0.0902727 12.05 1.73265 8.08812 4.65427 5.1665C7.57589 2.24488 11.5378 0.60248 15.6696 0.600098H52.2636C56.3939 0.604861 60.3535 2.2483 63.2731 5.16966C66.1928 8.09102 67.834 12.0516 67.8363 16.1818V98.7567C67.8316 102.885 66.1894 106.844 63.27 109.763C60.3505 112.682 56.3923 114.325 52.2636 114.329Z" fill="#EBEBEB"/>
<path style="mix-blend-mode:multiply" opacity="0.6" d="M38.688 10.7602C38.688 11.207 38.5111 11.6355 38.1961 11.9523C37.881 12.269 37.4534 12.4482 37.0067 12.4505H30.9286C30.4803 12.4505 30.0504 12.2725 29.7334 11.9555C29.4164 11.6385 29.2383 11.2085 29.2383 10.7602V10.7602C29.2407 10.3135 29.4198 9.88581 29.7365 9.57075C30.0533 9.2557 30.4819 9.07885 30.9286 9.07886H37.0067C37.4526 9.07886 37.8802 9.25599 38.1955 9.5713C38.5108 9.88662 38.688 10.3143 38.688 10.7602V10.7602Z" fill="url(#paint0_linear_2518_7867)"/>
<path d="M51.6973 63.3632C51.6989 61.3795 51.3078 59.4149 50.5464 57.5818C49.7851 55.7486 48.6683 54.0828 47.26 52.6796C45.8517 51.2763 44.1794 50.1631 42.3387 49.4036C40.4981 48.6441 38.5252 48.2532 36.5327 48.2532H34.5059C32.5124 48.2516 30.5381 48.6413 28.6961 49.4001C26.854 50.1589 25.1803 51.2719 23.7707 52.6753C22.3611 54.0787 21.2432 55.745 20.4811 57.5789C19.7189 59.4129 19.3275 61.3785 19.3291 63.3632V73.4284H51.6973V63.3632Z" fill="#93BAF4"/>
<g style="mix-blend-mode:soft-light">
<path d="M44.5048 43.3076C44.5048 45.1754 43.9771 47.0012 42.9887 48.5539C42.0002 50.1067 40.5953 51.3168 38.9516 52.031C37.308 52.7451 35.4996 52.9314 33.7552 52.5661C32.0107 52.2008 30.4087 51.3004 29.1517 49.9789C27.8948 48.6573 27.0394 46.9739 26.6938 45.1418C26.3482 43.3096 26.528 41.4111 27.2103 39.6862C27.8926 37.9614 29.0469 36.4878 30.5271 35.4519C32.0072 34.416 33.7467 33.8645 35.5255 33.867C36.7057 33.867 37.8743 34.1112 38.9645 34.5858C40.0547 35.0604 41.045 35.756 41.879 36.6328C42.713 37.5096 43.3742 38.5505 43.8247 39.6958C44.2753 40.8411 44.5064 42.0684 44.5048 43.3076V43.3076Z" fill="white"/>
</g>
<g style="mix-blend-mode:multiply">
<path d="M43.0664 64.2513L70.5047 52.2905L97.9125 64.2513V87.9835C97.9022 88.2247 97.8798 88.4651 97.8454 88.704C97.7536 89.4382 97.617 90.1662 97.4363 90.8837C97.1534 92.0071 96.7965 93.1105 96.3678 94.1868C95.7939 95.6106 95.1079 96.9866 94.3164 98.3019C93.131 100.268 91.7502 102.109 90.1951 103.797C89.083 105.01 87.8962 106.151 86.6417 107.216C85.9579 107.827 85.2374 108.382 84.4987 108.938C83.7599 109.493 83.1188 109.951 82.3922 110.446C80.7871 111.53 79.1284 112.533 77.4223 113.45C75.0413 114.637 72.5952 115.689 70.0957 116.6V116.6C69.076 116.179 68.0686 115.739 67.0918 115.281C65.6081 114.592 64.1794 113.859 62.8179 113.102C61.1287 112.153 59.527 111.154 58.0128 110.104C57.3656 109.652 56.7367 109.194 56.1323 108.724C54.1906 107.243 52.3825 105.594 50.7289 103.797C49.1709 102.111 47.7899 100.27 46.6076 98.3019C45.816 96.9866 45.1301 95.6106 44.5562 94.1868C44.1575 93.1414 43.8291 92.0705 43.5732 90.9814C43.5767 90.953 43.5767 90.9243 43.5732 90.8959C43.3595 89.9923 43.2374 89.2718 43.1763 88.8017C43.1793 88.7712 43.1793 88.7406 43.1763 88.7101C43.1214 88.2583 43.1153 88.0019 43.1153 87.9897V64.2513H43.0664Z" fill="#C2192E"/>
</g>
<g style="mix-blend-mode:color-burn" opacity="0.5">
<path d="M67.9576 98.8025C66.1251 98.7954 64.3695 98.0647 63.0732 96.7693V96.7693L56.2411 89.9677C55.183 88.9058 54.5889 87.4677 54.5889 85.9686C54.5889 84.4695 55.183 83.0315 56.2411 81.9695V81.9695C56.7661 81.4441 57.3896 81.0273 58.0758 80.7429C58.762 80.4586 59.4974 80.3122 60.2402 80.3122C60.983 80.3122 61.7185 80.4586 62.4047 80.7429C63.0909 81.0273 63.7143 81.4441 64.2394 81.9695V81.9695L67.9576 85.6878L71.6576 81.9695L78.4836 75.1618C79.5437 74.1026 80.981 73.5076 82.4797 73.5076C83.9783 73.5076 85.4156 74.1026 86.4758 75.1618V75.1618C87.0012 75.6868 87.418 76.3103 87.7023 76.9965C87.9867 77.6827 88.133 78.4182 88.133 79.1609C88.133 79.9037 87.9867 80.6392 87.7023 81.3254C87.418 82.0116 87.0012 82.635 86.4758 83.1601V83.1601L79.6742 89.9616L72.8787 96.7693C71.5824 98.0647 69.8268 98.7954 67.9943 98.8025H67.9576Z" fill="#BABABA"/>
</g>
<path d="M67.94 93.6373C66.4393 93.6308 65.002 93.0317 63.9409 91.9705L58.0735 86.1092C56.6631 84.6988 55.7228 81.4629 57.1332 80.0525C57.2734 79.531 57.5543 79.058 57.9453 78.6855C58.3363 78.313 58.8222 78.0553 59.35 77.9405C59.8777 77.8258 60.4268 77.8585 60.9372 78.035C61.4475 78.2115 61.8995 78.525 62.2436 78.9413C62.5488 78.636 66.2488 81.8414 66.5541 82.1467L67.4394 83.032L68.8437 82.6657L72.5619 78.9413L79.3696 72.1397C79.8393 71.6654 80.4222 71.3188 81.0633 71.1329C81.7044 70.947 82.3824 70.9279 83.0329 71.0773C83.5084 71.0765 83.9793 71.17 84.4184 71.3523C84.8575 71.5347 85.2562 71.8023 85.5912 72.1397C86.0664 72.6086 86.4132 73.1918 86.5981 73.8333C86.7831 74.4748 86.8001 75.1531 86.6474 75.803C86.6493 76.2772 86.5568 76.747 86.3755 77.1851C86.1942 77.6233 85.9276 78.021 85.5912 78.3552L78.7835 85.1628L71.9819 91.9705C70.922 93.026 69.4908 93.6243 67.995 93.6373H67.9461H67.94Z" fill="white"/>
<defs>
<linearGradient id="paint0_linear_2518_7867" x1="33.9676" y1="6.45344" x2="33.9676" y2="9.76219" gradientUnits="userSpaceOnUse">
<stop stop-color="white"/>
<stop offset="1"/>
</linearGradient>
</defs>
</svg>
