<svg width="354" height="48" viewBox="0 0 354 48" fill="none" xmlns="http://www.w3.org/2000/svg">
<g clip-path="url(#clip0_2444_4471)">
<path d="M31.4564 31.5839C20.1755 41.8961 6.96035 45.8116 1.93752 40.3218C-3.08532 34.832 1.98961 22.0294 13.2704 11.7195C24.5513 1.40959 37.7665 -2.50823 42.7893 2.98042C47.8122 8.46908 42.7372 21.2729 31.4564 31.5839ZM41.3666 3.69065C36.7223 -1.38158 24.1508 2.55822 13.2855 12.4899C2.42023 22.4215 -2.62344 34.5833 2.02086 39.6567C6.66517 44.7301 19.2379 40.7914 30.0974 30.8586C40.9568 20.9258 46.0109 8.76404 41.3666 3.69065Z" fill="#F29600"/>
<path d="M9.56885 8.95338C9.188 6.97075 9.42299 5.40802 10.3792 4.45719L10.4949 4.35193C8.4371 5.83119 6.6045 7.60044 5.0542 9.60461C6.03122 8.73591 7.60208 8.54852 9.56885 8.95338Z" fill="#B8CE46"/>
<path d="M10.4878 4.35184C10.6869 4.20841 10.8879 4.06883 11.0909 3.93311C10.8733 4.04721 10.6707 4.18786 10.4878 4.35184V4.35184Z" fill="#EA6026"/>
<path d="M47.2082 40.0217C47.0705 40.2242 46.9304 40.4266 46.7869 40.6255C46.9517 40.4424 47.0932 40.2396 47.2082 40.0217V40.0217Z" fill="#EA6026"/>
<path d="M4.90473 9.73185C4.64717 9.99055 4.43888 10.2939 4.29004 10.6272C4.53198 10.2801 4.78086 9.94006 5.04132 9.60461C4.99502 9.6451 4.94756 9.68674 4.90473 9.73185Z" fill="#EA6026"/>
<path d="M12.8331 10.0059C12.6132 9.91455 12.3979 9.82663 12.1837 9.74451C11.7855 10.0846 11.3996 10.4424 11.0261 10.8179C10.7946 11.0493 10.5631 11.2991 10.3315 11.5455C10.4126 11.7618 10.4971 11.9793 10.5885 12.1991C11.2368 12.0834 12.0066 12.1112 12.8736 12.2881C12.7058 11.4194 12.6873 10.6502 12.8331 10.0059Z" fill="#EA6026"/>
<path d="M38.9336 40.5226C39.1551 40.6129 39.3731 40.6988 39.5877 40.7806C39.8342 40.555 40.0796 40.326 40.317 40.0866C40.692 39.7118 41.0486 39.3231 41.39 38.9298C41.3079 38.717 41.2187 38.4995 41.1284 38.2809C40.4848 38.4255 39.715 38.4081 38.8445 38.2416C39.0228 39.108 39.0563 39.876 38.9336 40.5226Z" fill="#0050A2"/>
<path d="M32.406 25.299C32.1822 25.0469 31.955 24.7943 31.7242 24.5414C31.5054 24.7959 31.2855 25.0515 31.0586 25.306C32.4127 26.8231 33.6767 28.4183 34.844 30.0832C35.1114 29.7906 35.3718 29.4956 35.6277 29.2018C34.6414 27.9144 33.5706 26.6073 32.406 25.299Z" fill="#EA6026"/>
<path d="M29.2145 21.9133C28.1148 20.8121 27.0035 19.7676 25.8945 18.7844C25.0564 18.0402 24.221 17.3323 23.3883 16.6606C22.1844 15.6878 20.9898 14.789 19.8217 13.9782C17.3294 12.2431 14.9598 10.9001 12.8333 10.006C12.6874 10.6503 12.706 11.4195 12.8738 12.2882C15.0964 12.7439 17.9557 14.1482 21.0384 16.2905C21.9645 16.9371 22.9183 17.6519 23.878 18.4281C24.5401 18.9625 25.205 19.5258 25.8725 20.1181C26.7569 20.9016 27.6386 21.7321 28.5176 22.6097C29.4113 23.5038 30.261 24.406 31.0644 25.306C31.2959 25.0515 31.5112 24.7959 31.73 24.5414C30.9243 23.6634 30.0873 22.7843 29.2145 21.9133Z" fill="#919495"/>
<path d="M41.1284 38.2821C40.2335 36.1618 38.8884 33.7893 37.1543 31.3001C36.6739 30.606 36.1611 29.912 35.6228 29.2018C35.367 29.4956 35.1065 29.7906 34.8391 30.0832C36.9842 33.1647 38.3883 36.0195 38.8444 38.2427C39.7149 38.4093 40.4847 38.4267 41.1284 38.2821Z" fill="#919495"/>
<path d="M33.8772 37.8622C35.4868 38.8861 37.178 39.7759 38.9336 40.5226C39.0563 39.8737 39.0228 39.1057 38.8445 38.2404C37.0097 37.8876 34.7246 36.8674 32.2288 35.3058C31.7137 34.9831 31.1869 34.6361 30.6568 34.2648C29.5918 35.2341 28.5268 36.1306 27.4757 36.953C26.9154 37.3887 26.3621 37.8028 25.8157 38.1953C26.6028 38.7598 27.3746 39.2765 28.1309 39.7453C29.3776 38.7621 30.6394 37.6991 31.9012 36.5528C32.5691 37.0178 33.229 37.455 33.8772 37.8622Z" fill="#0050A2"/>
<path d="M10.5886 12.1991C11.3351 13.9541 12.2257 15.6445 13.2511 17.2528C13.6563 17.9006 14.0915 18.5587 14.5569 19.2273C15.3672 20.3991 16.2667 21.5963 17.2448 22.8051C17.9139 23.6341 18.6197 24.4654 19.3621 25.299C20.3472 26.4083 21.3914 27.5199 22.4946 28.6222C23.3697 29.4967 24.2491 30.3342 25.1328 31.1346C25.377 30.9241 25.6236 30.7113 25.8678 30.4938C24.9661 29.6945 24.0608 28.8478 23.166 27.949C22.2862 27.0734 21.4562 26.1873 20.6714 25.3036C20.0798 24.6408 19.5137 23.9757 18.9847 23.3175C18.2068 22.3551 17.4903 21.4008 16.8432 20.4696C16.475 19.9376 16.1266 19.4124 15.8013 18.8965C14.2374 16.4049 13.2199 14.1204 12.8656 12.2858C12.0067 12.1112 11.2369 12.0776 10.5886 12.1991Z" fill="#EA6026"/>
<path d="M42.1841 41.5441C42.5881 43.5105 42.4018 45.0767 41.5312 46.0668C43.5359 44.5169 45.306 42.6858 46.7868 40.6302C46.7532 40.6684 46.7185 40.7054 46.6814 40.7459C45.731 41.6898 44.1648 41.9246 42.1841 41.5441Z" fill="#B8CE46"/>
<path d="M35.6228 29.2018C36.1611 29.9074 36.6739 30.6083 37.1543 31.3001C38.2687 30.0716 39.3063 28.8478 40.2671 27.6286C39.8041 26.8721 39.282 26.0948 38.7159 25.3059C37.8049 26.5795 36.7677 27.8866 35.6228 29.2018Z" fill="#919495"/>
<path d="M35.6184 21.4055C35.6066 21.4186 35.5957 21.4325 35.5859 21.4472C34.6124 22.7196 33.5532 24.0081 32.406 25.299C33.5636 26.6073 34.6413 27.9144 35.623 29.2018C36.7679 27.8866 37.8051 26.5795 38.7161 25.306C37.8027 24.0313 36.7632 22.7196 35.6184 21.4055Z" fill="#EA6026"/>
<path d="M13.6053 8.62477C13.7515 8.49536 13.9123 8.38355 14.0846 8.29163C16.2678 7.13491 20.7744 8.811 25.8157 12.4142C26.3633 12.8052 26.9155 13.2239 27.4746 13.6577C28.5268 14.4801 29.5918 15.3754 30.6568 16.3424C31.3645 16.984 32.0691 17.6561 32.7706 18.3586C33.4895 19.0781 34.1817 19.8045 34.8392 20.5298C35.1067 20.8213 35.3636 21.1081 35.6183 21.4054C36.1585 20.6967 36.6706 19.995 37.1544 19.3002C36.3279 18.3887 35.462 17.4814 34.5568 16.5784C33.6747 15.6985 32.7899 14.8549 31.9024 14.0475C30.5607 12.8271 29.226 11.7028 27.9052 10.671C27.2045 10.1243 26.5099 9.60374 25.8215 9.10943C19.4906 4.58433 13.8334 2.48257 11.091 3.9331C10.8888 4.06882 10.6878 4.2084 10.4879 4.35183L10.3722 4.45709C9.41945 5.40792 9.18446 6.97065 9.56184 8.95328C10.4537 9.14515 11.3283 9.40977 12.1769 9.74447C12.6457 9.34888 13.1191 8.9741 13.6053 8.62477Z" fill="#919495"/>
<path d="M42.0209 25.299C41.4699 26.0659 40.8818 26.8455 40.2637 27.6286C42.7757 31.6991 43.8152 35.1901 42.8417 37.0293C42.7506 37.2029 42.6378 37.3642 42.5059 37.5093C42.1587 37.9963 41.7824 38.4694 41.3865 38.9309C41.7229 39.7786 41.9885 40.6526 42.1807 41.544C44.1613 41.9245 45.7276 41.6897 46.6779 40.7343C46.715 40.6961 46.7497 40.6591 46.7833 40.6186C46.9268 40.4196 47.0669 40.2172 47.2047 40.0148C48.6574 37.2838 46.5529 31.6251 42.0209 25.299Z" fill="#919495"/>
<path d="M13.6054 8.62488C13.1192 8.9719 12.6457 9.34899 12.1838 9.74459C12.398 9.82671 12.6133 9.91463 12.8333 10.006C12.9312 9.51859 13.1675 9.06965 13.5139 8.71279C13.544 8.6804 13.5753 8.65264 13.6054 8.62488Z" fill="#EA6026"/>
<path d="M41.1284 38.2821C41.2187 38.5007 41.3078 38.7182 41.39 38.931C41.7859 38.4683 42.161 37.9964 42.5094 37.5094C42.4841 37.5416 42.4562 37.5718 42.4261 37.5996C42.0678 37.9464 41.6174 38.1833 41.1284 38.2821V38.2821Z" fill="#0050A2"/>
<path d="M13.6052 8.62476C13.7642 8.5114 13.924 8.40036 14.0845 8.29163C13.9122 8.38355 13.7514 8.49536 13.6052 8.62476V8.62476Z" fill="#808080"/>
<path d="M42.8452 37.0293C42.7353 37.1912 42.6253 37.3509 42.5095 37.5093C42.6414 37.3643 42.7542 37.2029 42.8452 37.0293Z" fill="#808080"/>
<path d="M34.8439 20.5298C33.9352 21.8357 32.8898 23.1902 31.7288 24.5413C31.9603 24.7935 32.1876 25.046 32.4106 25.299C33.5578 24.0081 34.617 22.7171 35.5905 21.4471L34.8439 20.5298Z" fill="#A75835"/>
<path d="M32.7707 18.3586C32.0691 17.6576 31.3646 16.9871 30.6569 16.3471C29.5919 15.38 28.5269 14.4847 27.4746 13.6623C26.9155 13.2262 26.3633 12.8098 25.8158 12.4188C20.7744 8.81563 16.2679 7.14185 14.0846 8.29626C13.9241 8.40499 13.7644 8.51603 13.6054 8.62939C13.5753 8.65716 13.544 8.68492 13.5139 8.71499C13.1671 9.07248 12.9308 9.52228 12.8333 10.0105C14.9551 10.9047 17.3294 12.2488 19.8217 13.9827C20.9897 14.7924 22.1844 15.6923 23.3883 16.6652C24.2202 17.3376 25.0556 18.0455 25.8945 18.7889C27.0035 19.7721 28.1148 20.8166 29.2145 21.9178C30.0873 22.7888 30.9243 23.668 31.7242 24.5459C32.8818 23.1891 33.9306 21.8403 34.8393 20.5344C34.1818 19.8045 33.4895 19.0781 32.7707 18.3586Z" fill="#6B6E6F"/>
<path d="M41.1284 38.2821C41.6173 38.1833 42.0677 37.9465 42.426 37.5996C42.4562 37.5718 42.484 37.5416 42.5094 37.5094C42.6251 37.3509 42.7351 37.1913 42.8451 37.0294C43.8186 35.1902 42.7791 31.6992 40.2671 27.6287C39.3078 28.8448 38.2718 30.0686 37.1589 31.3001C38.8884 33.7894 40.2335 36.1618 41.1284 38.2821Z" fill="#6B6E6F"/>
<path d="M35.6182 21.4054C35.3635 21.1128 35.1065 20.8271 34.8391 20.5298L35.5858 21.4471C35.5956 21.4324 35.6064 21.4185 35.6182 21.4054Z" fill="#808080"/>
<path d="M41.4029 46.2057C41.4492 46.1594 41.4909 46.1132 41.5314 46.0669C41.1957 46.3283 40.853 46.577 40.5081 46.8188C40.841 46.6703 41.1442 46.4625 41.4029 46.2057Z" fill="#EA6026"/>
<path d="M42.1841 41.5441C41.2995 41.3638 40.4317 41.1092 39.5899 40.783C39.179 41.1543 38.7588 41.5105 38.327 41.8437C38.2934 41.8818 38.261 41.9177 38.2251 41.9536C38.0173 42.159 37.7737 42.3248 37.5062 42.4429C36.7885 42.7679 35.8451 42.8188 34.728 42.6187C33.2023 42.3457 31.357 41.6031 29.3336 40.4649C28.9377 40.2404 28.5337 40.0022 28.125 39.7477C28.0486 39.8067 27.9734 39.8634 27.8935 39.927C27.1931 40.4753 26.4986 40.9981 25.8098 41.4886C27.2368 42.5181 28.7184 43.4699 30.2481 44.3399C32.7948 45.7707 35.11 46.7019 37.0235 47.0466C38.423 47.2953 39.6084 47.234 40.5079 46.8245C40.8552 46.5828 41.1955 46.3341 41.5312 46.0727C42.4017 45.0767 42.5881 43.5093 42.1841 41.5441Z" fill="#B8CE46"/>
<path d="M38.3247 41.8436C38.7565 41.5104 39.1767 41.1495 39.5877 40.7829C39.3723 40.7011 39.1543 40.6151 38.9336 40.5249C38.8542 41.0116 38.6437 41.4674 38.3247 41.8436Z" fill="#182263"/>
<path d="M38.2229 41.9535C38.2587 41.9177 38.2912 41.8818 38.3247 41.8436C38.0573 42.0507 37.7841 42.2508 37.5144 42.4428C37.7781 42.3237 38.0181 42.1579 38.2229 41.9535V41.9535Z" fill="#B8CE46"/>
<path d="M34.735 42.6186C35.8498 42.8187 36.7932 42.7678 37.5132 42.4427C37.7864 42.2507 38.0596 42.0506 38.3235 41.8436C38.6426 41.4674 38.8531 41.0115 38.9324 40.5249C37.1768 39.7781 35.4856 38.8883 33.876 37.8644C33.2278 37.4607 32.5679 37.0235 31.9012 36.5608C30.6394 37.7071 29.3776 38.7701 28.1309 39.7534C28.5395 40.0067 28.9412 40.2461 29.3394 40.4705C31.364 41.6029 33.2093 42.3456 34.735 42.6186Z" fill="#182263"/>
<path d="M21.0383 34.3214C20.3098 33.6621 19.5852 32.973 18.8644 32.2543C18.1629 31.5518 17.4907 30.8477 16.8478 30.1421C15.8801 29.078 14.9818 28.0126 14.1576 26.9635C13.7215 26.4059 13.3071 25.8534 12.9143 25.3059C12.0972 24.173 11.3413 22.9973 10.65 21.7837C9.51209 19.7629 8.76891 17.9202 8.49456 16.3945C8.29545 15.2806 8.34292 14.3378 8.67168 13.6184C8.79008 13.3536 8.9556 13.1126 9.16018 12.907C9.19491 12.8711 9.23195 12.8376 9.27594 12.804C9.60817 12.3749 9.95546 11.9515 10.3317 11.5455C10.0039 10.7047 9.74867 9.83751 9.56882 8.95329C7.60089 8.54843 6.03118 8.73582 5.04143 9.60452C4.78097 9.93997 4.53209 10.2812 4.29015 10.6271C3.8792 11.527 3.81669 12.7092 4.06789 14.1088C4.41517 16.0243 5.34125 18.3389 6.77552 20.8779C7.6441 22.4014 8.59393 23.8772 9.62091 25.2989C10.114 25.986 10.6327 26.687 11.1825 27.381C12.2151 28.702 13.3449 30.0415 14.5616 31.3717C15.3719 32.2578 16.2123 33.1462 17.0944 34.0253C17.9973 34.9298 18.9095 35.7951 19.8217 36.621C20.9897 35.8112 22.1844 34.9136 23.3883 33.9374C24.2202 33.2657 25.0556 32.5585 25.8945 31.8159C25.6414 31.5931 25.389 31.3663 25.1374 31.1358C24.7149 31.4967 24.2958 31.8483 23.8779 32.1849C22.9206 32.9599 21.9679 33.6748 21.0383 34.3214Z" fill="#B8CE46"/>
<path d="M10.5886 12.1991C10.4972 11.9793 10.4127 11.7618 10.3317 11.5455C9.95544 11.9515 9.60816 12.3749 9.26782 12.8075C9.64555 12.4901 10.1017 12.2799 10.5886 12.1991V12.1991Z" fill="#C2192E"/>
<path d="M8.66919 13.6218C8.86251 13.3465 9.06046 13.0759 9.26767 12.8121C9.22947 12.8457 9.19243 12.8792 9.15191 12.9151C8.94986 13.1198 8.78634 13.3592 8.66919 13.6218Z" fill="#B8CE46"/>
<path d="M19.3667 25.299C18.6258 24.4662 17.9201 23.6349 17.2494 22.8051C16.2713 21.5963 15.373 20.3991 14.5615 19.2274C14.0984 18.5595 13.6632 17.9014 13.2557 17.2528C12.2303 15.6445 11.3397 13.9542 10.5932 12.1991C10.1063 12.2799 9.65013 12.4901 9.2724 12.8075C9.06519 13.0759 8.86724 13.3466 8.67392 13.6172C8.34516 14.3344 8.2977 15.2771 8.49681 16.3934C8.76653 17.9214 9.50971 19.7641 10.65 21.7837C11.3421 22.997 12.0987 24.1723 12.9165 25.3048C13.3101 25.8523 13.7245 26.4048 14.1598 26.9624C14.984 28.0115 15.8823 29.0769 16.8501 30.141C17.4937 30.8459 18.1659 31.5499 18.8666 32.2532C19.5874 32.9727 20.3121 33.6617 21.0406 34.3203C21.9667 33.6737 22.9205 32.9588 23.8802 32.1827C24.2981 31.8461 24.7171 31.4886 25.1397 31.1335C24.2583 30.3331 23.3789 29.4956 22.5015 28.6211C21.396 27.5199 20.3518 26.4106 19.3667 25.299Z" fill="#C2192E"/>
<path d="M1.37988 47.455V47.5021H1.40406C1.38955 47.455 1.40647 47.4815 1.37988 47.455Z" fill="#191419"/>
<path d="M41.7895 13.1545C42.4286 13.1807 43.0455 13.3955 43.5624 13.772C44.0793 14.1485 44.4728 14.6697 44.6933 15.2696C44.9138 15.8696 44.9513 16.5214 44.8011 17.1426C44.6509 17.7639 44.3197 18.3267 43.8495 18.7599C43.3792 19.1931 42.7909 19.4773 42.1591 19.5764C41.5272 19.6756 40.8801 19.5854 40.2996 19.3171C39.719 19.0488 39.2311 18.6145 38.8975 18.0692C38.564 17.5239 38.3997 16.892 38.4255 16.2534C38.4604 15.3967 38.8344 14.589 39.4653 14.0078C40.0961 13.4267 40.9322 13.1198 41.7895 13.1545V13.1545Z" fill="#D7000F"/>
</g>
<path d="M82.7871 14.25H78.9001V28.786H82.7871V14.25ZM70.1831 14.273C66.3421 14.273 63.7201 16.619 63.7201 20.161C63.7201 23.726 66.3421 26.049 70.1831 26.049C74.0241 26.049 76.6461 23.726 76.6461 20.161C76.6461 16.619 74.0241 14.273 70.1831 14.273ZM70.1831 17.516C71.6781 17.516 72.7821 18.459 72.7821 20.161C72.7821 21.863 71.6781 22.806 70.1831 22.806C68.6881 22.806 67.5841 21.863 67.5841 20.161C67.5841 18.459 68.6881 17.516 70.1831 17.516ZM69.4011 27.015H65.4451V33.892H83.0631V30.396H69.4011V27.015ZM105.509 21.426H103.209V14.25H99.3221V33.892H103.209V25.198H105.509V21.426ZM93.9861 14.779L90.0301 14.641C90.0071 22.852 87.9141 28.602 84.7631 28.97V32.972C87.7531 32.949 90.2141 30.902 91.8241 27.222L95.7341 32.949L98.9081 30.718L93.2271 22.714C93.7101 20.414 93.9861 17.746 93.9861 14.779ZM115.558 21.61L123.608 26.555L125.609 23.381L117.306 18.551C117.812 17.401 118.157 16.136 118.341 14.802L114.385 14.181C113.672 19.379 110.038 22.783 106.128 22.783V26.463C109.877 26.463 113.281 24.623 115.558 21.61ZM117.651 25.221H113.695V29.568H105.737V33.202H125.609V29.568H117.651V25.221ZM138.579 23.749V22.898H145.617V20.506H131.771V19.701H145.065V17.493H131.771V16.665H145.387V14.25H127.93V22.898H134.715V23.749H126.711V26.578H146.583V23.749H138.579ZM136.647 27.13C131.357 27.13 127.654 28.142 127.654 30.649C127.654 33.156 131.357 34.168 136.647 34.168C141.937 34.168 145.64 33.156 145.64 30.649C145.64 28.142 141.937 27.13 136.647 27.13ZM136.647 31.477C133.772 31.477 131.771 31.247 131.771 30.649C131.771 30.074 133.772 29.821 136.647 29.821C139.522 29.821 141.523 30.074 141.523 30.649C141.523 31.247 139.522 31.477 136.647 31.477ZM168.431 21.426H166.131V14.25H162.244V33.892H166.131V25.198H168.431V21.426ZM148.352 32.972H159.783V14.71H148.352V32.972ZM152.239 18.321H155.896V29.361H152.239V18.321ZM187.105 17.516V14.25H183.218V25.06H187.105V21.288H189.405V17.516H187.105ZM182.298 23.588V20.46C181.263 20.874 179.538 21.104 177.767 21.104H172.983V17.677H181.171V14.48H169.096V24.278H177.606C179.446 24.278 181.286 24.025 182.298 23.588ZM178.434 25.336C173.489 25.336 169.579 26.463 169.579 29.729C169.579 32.995 173.489 34.122 178.434 34.122C183.379 34.122 187.289 32.995 187.289 29.729C187.289 26.463 183.379 25.336 178.434 25.336ZM178.434 31.017C175.835 31.017 173.765 30.672 173.765 29.729C173.765 28.809 175.835 28.441 178.434 28.441C181.033 28.441 183.103 28.809 183.103 29.729C183.103 30.672 181.033 31.017 178.434 31.017ZM206.821 24.048V22.783C210.984 22.461 213.882 21.058 213.882 18.39C213.882 15.331 210.041 13.928 204.866 13.928C199.691 13.928 195.85 15.331 195.85 18.39C195.85 21.058 198.748 22.461 202.911 22.783V24.048H194.93V27.245H214.802V24.048H206.821ZM199.99 18.39C199.99 17.447 201.922 16.918 204.866 16.918C207.81 16.918 209.742 17.447 209.742 18.39C209.742 19.356 207.81 19.862 204.866 19.862C201.922 19.862 199.99 19.356 199.99 18.39ZM200.036 28.119H196.08V33.892H213.882V30.649H200.036V28.119ZM236.65 21.426H234.35V14.25H230.463V33.892H234.35V25.198H236.65V21.426ZM220.435 29.476V25.52H227.749V14.71H216.525V18.206H223.885V22.07H216.571V32.972H224.345C226.231 32.972 228.347 32.627 229.543 32.029V28.579C228.347 29.131 226.323 29.476 224.46 29.476H220.435ZM255.876 14.25H251.989V28.786H255.876V14.25ZM243.272 14.273C239.431 14.273 236.809 16.619 236.809 20.161C236.809 23.726 239.431 26.049 243.272 26.049C247.113 26.049 249.735 23.726 249.735 20.161C249.735 16.619 247.113 14.273 243.272 14.273ZM243.272 17.516C244.767 17.516 245.871 18.459 245.871 20.161C245.871 21.863 244.767 22.806 243.272 22.806C241.777 22.806 240.673 21.863 240.673 20.161C240.673 18.459 241.777 17.516 243.272 17.516ZM242.49 27.015H238.534V33.892H256.152V30.396H242.49V27.015ZM272.963 14.25V33.892H276.85V14.25H272.963ZM267.374 14.779L263.418 14.641C263.395 22.852 261.187 28.602 258.036 28.97V32.972C261.049 32.949 263.579 30.856 265.235 27.084L269.283 32.949L272.434 30.695L266.615 22.599C267.098 20.322 267.374 17.7 267.374 14.779ZM288.624 21.725L296.674 26.877L298.721 23.726L290.349 18.689C290.878 17.47 291.246 16.182 291.43 14.802L287.474 14.181C286.761 19.448 283.127 23.082 279.217 23.105V26.785C282.966 26.762 286.347 24.807 288.624 21.725ZM278.826 33.202H298.698V29.568H278.826V33.202ZM315.716 14.25V25.888H319.35V14.25H315.716ZM310.771 25.681H314.359V14.342H310.771V17.47H309.299V20.874H310.771V25.681ZM309.851 24.853V21.978C308.816 22.369 307.091 22.622 305.32 22.622H303.756V21.403H308.31V18.62H303.756V17.424H308.701V14.48H300.145V25.543H305.09C306.93 25.543 308.816 25.29 309.851 24.853ZM301.272 33.892H319.35V26.578H301.272V33.892ZM305.09 29.568H315.532V30.902H305.09V29.568Z" fill="white"/>
<defs>
<clipPath id="clip0_2444_4471">
<rect width="47.662" height="47" fill="white" transform="translate(0 0.5)"/>
</clipPath>
</defs>
</svg>
