<svg width="60" height="76" viewBox="0 0 60 76" fill="none" xmlns="http://www.w3.org/2000/svg">
<path opacity="0.9" d="M4.33264 16.4216L20.4822 5.76564C21.1471 5.32695 22.0329 5.80377 22.0329 6.60032V27.9122C22.0329 28.7087 21.1471 29.1856 20.4822 28.7469L4.33264 18.0909C3.73363 17.6957 3.73363 16.8168 4.33264 16.4216Z" stroke="#4F4023" stroke-width="2"/>
<path opacity="0.9" d="M57.925 58.7441L36.144 44.3723V73.1158L57.925 58.7441Z" fill="#C2192E"/>
<path fill-rule="evenodd" clip-rule="evenodd" d="M0.108078 40.0746C1.16701 53.9991 12.8008 64.9678 26.9965 64.9678H33.2197C34.1954 64.9678 35.1591 64.916 36.1081 64.815V52.2343C35.1746 52.4227 34.2087 52.5216 33.2197 52.5216H26.9965C19.681 52.5216 13.6291 47.1119 12.6228 40.0746H0.108078ZM22.9951 24.0385V11.3288C24.3007 11.1346 25.6369 11.0339 26.9965 11.0339H33.2197C46.7537 11.0339 57.9591 21.004 59.8919 34.0002H47.1822C45.4451 27.9262 39.8516 23.4802 33.2197 23.4802H26.9965C25.6086 23.4802 24.2662 23.6749 22.9951 24.0385Z" fill="#4F4023"/>
</svg>
