<svg width="72" height="70" viewBox="0 0 72 70" fill="none" xmlns="http://www.w3.org/2000/svg">
<path d="M6.93018 4.81518C6.93018 2.60604 8.72104 0.815186 10.9302 0.815186H49.9926C52.2017 0.815186 53.9926 2.60605 53.9926 4.81519V63.2634H6.93018V4.81518Z" fill="#F4B91D"/>
<rect x="0.499878" y="63.7544" width="67.8785" height="5.43028" rx="2.71514" fill="#A47806"/>
<circle cx="57.4675" cy="44.8715" r="14.0326" fill="#C2192E"/>
<path d="M63.0336 39.6101L62.6924 39.2915L62.3511 39.6101L56.1598 45.3905L53.2347 42.6596L52.8935 42.3411L52.5523 42.6596L50.9249 44.179L50.5334 44.5444L50.9249 44.9099L55.8186 49.4787L56.1598 49.7972L56.501 49.4787L64.6609 41.8605L65.0524 41.495L64.661 41.1295L63.0336 39.6101Z" fill="white" stroke="white"/>
<rect x="18.6953" y="14.3904" width="7.24037" height="7.24037" rx="1" fill="white"/>
<rect x="34.986" y="14.3904" width="7.24037" height="7.24037" rx="1" fill="white"/>
<rect x="18.6953" y="27.9673" width="7.24037" height="7.24037" rx="1" fill="white"/>
<rect x="34.986" y="27.9673" width="7.24037" height="7.24037" rx="1" fill="white"/>
<rect x="18.6953" y="41.542" width="7.24037" height="7.24037" rx="1" fill="white"/>
</svg>
