<svg width="70" height="66" viewBox="0 0 70 66" fill="none" xmlns="http://www.w3.org/2000/svg">
<path fill-rule="evenodd" clip-rule="evenodd" d="M65.906 26.7134C68.1151 26.7134 69.906 28.5042 69.906 30.7134V57.9135H69.8635V65.568L62.209 57.9135H38.0259C35.8167 57.9135 34.0259 56.1226 34.0259 53.9135V30.7134C34.0259 28.5042 35.8167 26.7134 38.0259 26.7134H65.906Z" fill="#6A9600"/>
<path fill-rule="evenodd" clip-rule="evenodd" d="M4.22729 0.431641C2.01816 0.431641 0.227295 2.2225 0.227295 4.43164V42.6613H0.0939941V57.081L11.2656 45.9094H53.9064C56.1156 45.9094 57.9064 44.1186 57.9064 41.9094V4.43164C57.9064 2.2225 56.1156 0.431641 53.9065 0.431641H4.22729Z" fill="white"/>
<line x1="17.3896" y1="16.9043" x2="39.2513" y2="16.9043" stroke="#46CE9B" stroke-width="4" stroke-linecap="round"/>
<line x1="17.3896" y1="26.7563" x2="29.3992" y2="26.7563" stroke="#46CE9B" stroke-width="4" stroke-linecap="round"/>
</svg>
