<svg width="265" height="65" viewBox="0 0 265 65" fill="none" xmlns="http://www.w3.org/2000/svg">
<g clip-path="url(#clip0_2434_2916)">
<path d="M44.2498 43.3337C28.38 57.6337 9.73542 63.0745 2.72544 55.435C-4.28454 47.7955 2.72544 29.9807 18.6602 15.6165C34.5949 1.25226 53.1259 -4.18848 60.1846 3.45102C67.2432 11.0905 60.0385 28.8893 44.2498 43.3337ZM58.1887 4.49423C51.6979 -2.5675 33.962 2.88929 18.6926 16.7399C3.42319 30.5905 -3.68415 47.4584 2.83903 54.5683C9.3622 61.6782 27.0657 56.1732 42.3351 42.3226C57.6045 28.472 64.7118 11.5078 58.1887 4.44609V4.49423Z" fill="#F29600"/>
<path d="M13.452 11.7643C12.9815 9.00381 13.2573 6.83714 14.6041 5.50504L14.7664 5.3606C13.1406 6.51705 11.6104 7.7997 10.1904 9.1964C9.08004 10.2877 8.04463 11.4512 7.09113 12.6791C8.48663 11.4594 10.6935 11.2347 13.452 11.7643Z" fill="#B4D245"/>
<path d="M14.7502 5.36038L15.594 4.8147C15.2923 4.96362 15.0091 5.14674 14.7502 5.36038V5.36038Z" fill="#EA6026"/>
<path d="M66.4001 55.0173L65.7997 55.868C66.0413 55.6153 66.2436 55.3287 66.4001 55.0173V55.0173Z" fill="#EA6026"/>
<path d="M6.8964 12.8394C6.53604 13.1961 6.24458 13.6149 6.03638 14.0752C6.37714 13.5937 6.7179 13.1283 7.09112 12.6628L6.8964 12.8394Z" fill="#EA6026"/>
<path d="M18.0442 13.2408L17.1355 12.8396C16.5838 13.305 16.0321 13.8026 15.5128 14.3322L14.6041 15.3754C14.7177 15.6803 14.8313 15.9853 14.9611 16.2902C16.0406 16.1162 17.1445 16.1599 18.2065 16.4186C17.9358 15.3811 17.8806 14.3001 18.0442 13.2408Z" fill="#EA6026"/>
<path d="M54.7655 55.7234L55.6742 56.0765C56.0312 55.7715 56.3719 55.4505 56.7127 55.1135C57.0535 54.7765 57.735 54.0542 58.2218 53.5086C58.1082 53.2036 57.9784 52.8987 57.8486 52.5938C56.7791 52.822 55.6727 52.822 54.6032 52.5938C54.8484 53.6186 54.9034 54.6791 54.7655 55.7234V55.7234Z" fill="#0050A2"/>
<path d="M45.5811 34.5221L44.6237 33.4629C44.3154 33.832 44.0071 34.1851 43.6826 34.5382C45.5851 36.6494 47.3622 38.8679 49.005 41.1826L50.1084 39.9629C48.7345 38.1654 47.2254 36.3518 45.5811 34.5221Z" fill="#EA6026"/>
<path d="M41.0863 29.8199C39.5447 28.2149 37.9869 26.8186 36.4292 25.4544C35.2446 24.4273 34.0763 23.4322 32.8917 22.4692C31.269 21.105 29.5165 19.8692 27.8776 18.7297C24.8005 16.5599 21.5052 14.7098 18.0442 13.2087C17.8229 14.2675 17.8229 15.3598 18.0442 16.4186C22.1978 17.5332 26.0975 19.4236 29.5328 21.9878C30.8309 22.8865 32.1777 23.8816 33.5246 24.9569C34.4495 25.7112 35.3906 26.4816 36.3318 27.3161C37.565 28.4075 38.8145 29.5631 40.0477 30.7828C41.281 32.0026 42.498 33.2865 43.6176 34.5384C43.9422 34.1853 44.2505 33.8322 44.5588 33.4631C43.4878 32.2433 42.3195 31.0236 41.0863 29.8199Z" fill="#919495"/>
<path d="M57.8486 52.5938C56.3205 49.1808 54.4505 45.9279 52.2665 42.8839C51.585 41.9209 50.8548 40.9419 50.1084 39.9629L49.0049 41.1826C51.5904 44.5847 53.5009 48.4403 54.6356 52.5456C55.6912 52.7852 56.7861 52.8016 57.8486 52.5938V52.5938Z" fill="#919495"/>
<path d="M47.6419 52.0161C49.9103 53.4419 52.2927 54.6819 54.7655 55.7235C54.9241 54.6548 54.8801 53.5663 54.6357 52.5136C51.3173 51.7003 48.1699 50.3149 45.3377 48.421C44.6075 47.9716 43.8611 47.4901 43.1146 46.9766C41.6218 48.3247 40.1289 49.5766 38.6523 50.7161C37.8518 51.3259 37.0729 51.9037 36.3156 52.4494C37.419 53.2358 38.5062 53.958 39.561 54.6161C41.3351 53.2358 43.1038 51.7539 44.8671 50.1704C45.8083 50.8445 46.7332 51.4543 47.6419 52.0161Z" fill="#0050A2"/>
<path d="M14.8962 16.2901C15.9497 18.7305 17.2033 21.0816 18.6446 23.3197C19.2126 24.2185 19.8292 25.1493 20.4783 26.0802C21.6304 27.6851 22.8798 29.3703 24.2591 31.0555C25.2003 32.2111 26.2063 33.3666 27.2448 34.5222C28.6241 36.1271 30.1008 37.6197 31.6423 39.1444C32.8755 40.3641 34.125 41.5358 35.3582 42.6432L36.3968 41.7604C35.1148 40.653 33.8491 39.4654 32.5835 38.2135C31.3178 36.9617 30.1819 35.774 29.0785 34.5382C28.2509 33.6074 27.4558 32.6925 26.7094 31.7777C25.6222 30.4296 24.5999 29.0975 23.6912 27.7975C23.1719 27.0592 22.6851 26.337 22.2308 25.6148C20.3266 22.8097 18.9319 19.6976 18.1091 16.4185C17.0576 16.1641 15.9651 16.1204 14.8962 16.2901V16.2901Z" fill="#EA6026"/>
<path d="M59.3252 57.1358C59.9094 59.8803 59.6335 62.063 58.4165 63.4432C59.6507 62.4914 60.8265 61.4678 61.9377 60.3778C63.3441 58.9783 64.6355 57.4703 65.7997 55.8679L65.6537 56.0284C64.3231 57.3445 62.1162 57.6654 59.3252 57.1358Z" fill="#B4D245"/>
<path d="M50.1084 39.9628C50.8548 40.9419 51.585 41.9209 52.2666 42.8838C53.8892 41.1665 55.2848 39.4653 56.6316 37.7641C55.9825 36.7209 55.2523 35.6295 54.4572 34.5542C53.1753 36.3036 51.7149 38.1332 50.1084 39.9628Z" fill="#919495"/>
<path d="M50.0922 29.0974C48.7129 30.8628 47.22 32.6604 45.6136 34.4579C47.2579 36.2875 48.767 38.1011 50.1409 39.8986C51.7635 38.069 53.2077 36.2394 54.4897 34.474C53.116 32.6099 51.6483 30.8154 50.0922 29.0974V29.0974Z" fill="#EA6026"/>
<path d="M19.1314 11.3147C19.3414 11.1362 19.5698 10.9802 19.8129 10.8493C22.8798 9.24435 29.2245 11.5715 36.3156 16.595C37.0783 17.1246 37.8572 17.7184 38.636 18.3122C40.1289 19.4678 41.6218 20.7036 43.1146 22.0518C44.1207 22.9505 45.1105 23.8814 46.1004 24.8604C47.0902 25.8394 48.08 26.8826 49.005 27.8777L50.0922 29.0974C50.8548 28.1184 51.585 27.1394 52.2666 26.1764C51.0982 24.9085 49.8812 23.6406 48.5993 22.3727C47.3174 21.1048 46.1166 19.9814 44.8671 18.8579C42.9848 17.1567 41.1025 15.6481 39.2527 14.1555C38.2628 13.4011 37.2892 12.6789 36.3156 11.9888C27.4071 5.68138 19.4722 2.7604 15.594 4.81472L14.7502 5.3925L14.6041 5.50484C13.2735 6.83694 12.9815 9.00361 13.4683 11.7641C14.7171 12.0276 15.9433 12.3871 17.1355 12.8394C17.8495 12.3258 18.4499 11.7962 19.1314 11.3147Z" fill="#919495"/>
<path d="M59.1142 34.5222C58.3353 35.5975 57.4916 36.6728 56.6315 37.7321C60.169 43.3975 61.6294 48.2605 60.2663 50.8284C60.138 51.0664 59.9799 51.2875 59.7958 51.4864C59.3089 52.1765 58.7735 52.8346 58.1731 53.4765C58.6446 54.6523 59.0137 55.8658 59.2765 57.1037C62.0675 57.6333 64.2744 57.3123 65.605 55.9963L65.751 55.8358L66.3514 54.9852C68.4446 51.2136 65.4751 43.3333 59.1142 34.5222Z" fill="#919495"/>
<path d="M19.1314 11.3147C18.4499 11.7962 17.7846 12.3258 17.1355 12.9196L18.0442 13.2888C18.193 12.6102 18.5237 11.9838 19.0016 11.4752L19.1314 11.3147Z" fill="#EA6026"/>
<path d="M57.8486 52.5939C57.9784 52.8988 58.1082 53.2037 58.2218 53.5087C58.7735 52.8667 59.309 52.2087 59.8445 51.5186L59.7309 51.647C59.212 52.1399 58.5569 52.4694 57.8486 52.5939Z" fill="#0050A2"/>
<path d="M19.1314 11.3148L19.8129 10.8494C19.5698 10.9803 19.3414 11.1363 19.1314 11.3148V11.3148Z" fill="#808080"/>
<path d="M60.2664 50.8606C60.1041 51.0853 59.958 51.31 59.7958 51.5186C59.98 51.3197 60.1381 51.0986 60.2664 50.8606V50.8606Z" fill="#808080"/>
<path d="M49.005 27.8777C47.6401 29.8109 46.1778 31.6749 44.6237 33.4629L45.5811 34.5221C47.2038 32.7246 48.6804 30.9271 50.0597 29.1616L49.005 27.8777Z" fill="#A75835"/>
<path d="M46.1003 24.8604C45.1105 23.8814 44.1207 22.9505 43.1146 22.0517C41.6217 20.7036 40.1289 19.4678 38.636 18.3122C37.8571 17.7184 37.0133 17.1246 36.3156 16.595C29.2082 11.5715 22.8798 9.24434 19.8129 10.8493L19.1314 11.3147L19.0016 11.4271C18.5237 11.9356 18.193 12.5621 18.0442 13.2406C21.5052 14.7417 24.8005 16.5918 27.8776 18.7616C29.5003 19.9011 31.2041 21.1369 32.8917 22.5011C34.06 23.432 35.2446 24.4271 36.4292 25.4542C38.0518 26.8184 39.5447 28.2789 41.0863 29.8196C42.3195 31.0233 43.4878 32.2431 44.6237 33.4629C46.1778 31.6749 47.6401 29.8108 49.0049 27.8777C48.08 26.8826 47.0577 25.8715 46.1003 24.8604Z" fill="#6B6E6F"/>
<path d="M57.8486 52.5938C58.5396 52.4605 59.1766 52.1315 59.6822 51.6469L59.7958 51.5185C59.958 51.3098 60.1041 51.0851 60.2664 50.8605C61.6294 48.2926 60.169 43.4296 56.6316 37.7642C55.2847 39.4654 53.8243 41.1666 52.2665 42.8839C54.4505 45.928 56.3205 49.1809 57.8486 52.5938Z" fill="#6B6E6F"/>
<path d="M50.0921 29.0974L49.0049 27.8777L50.0597 29.1616C50.0597 29.1616 50.0759 29.1295 50.0921 29.0974Z" fill="#808080"/>
<path d="M58.238 63.6357L58.4165 63.4431L56.9723 64.4863C57.4415 64.2787 57.87 63.9908 58.238 63.6357V63.6357Z" fill="#EA6026"/>
<path d="M59.3252 57.1358C58.0788 56.8907 56.857 56.5363 55.6742 56.0766C55.1063 56.6062 54.5059 57.0877 53.9055 57.5531L53.7594 57.7136C53.4759 58.006 53.133 58.2357 52.7534 58.3877C51.5112 58.8604 50.1535 58.9499 48.8589 58.6445C46.1816 58.0521 43.6176 57.0389 41.2648 55.6433L39.561 54.6482L39.2527 54.8889C38.2628 55.6593 37.2892 56.3815 36.3156 57.0717C38.3209 58.4854 40.4009 59.7926 42.5467 60.9877C45.493 62.7493 48.7104 64.0233 52.0718 64.7593C53.6893 65.1358 55.3833 65.0297 56.9399 64.4544L58.3841 63.4112C59.6335 62.063 59.9094 59.8803 59.3252 57.1358Z" fill="#B4D245"/>
<path d="M53.9055 57.553C54.5058 57.0876 55.1062 56.6061 55.6742 56.0765L54.7655 55.7234C54.6506 56.3987 54.3534 57.0308 53.9055 57.553V57.553Z" fill="#182263"/>
<path d="M53.7594 57.7777L53.9055 57.6172C53.5322 57.9061 53.1428 58.195 52.7534 58.4518C53.133 58.2997 53.4759 58.07 53.7594 57.7777V57.7777Z" fill="#B4D245"/>
<path d="M48.8589 58.6444C50.1535 58.9498 51.5112 58.8603 52.7534 58.3876C53.1428 58.1308 53.5323 57.8419 53.9055 57.553C54.3534 57.0308 54.6506 56.3987 54.7655 55.7234C52.2927 54.6818 49.9103 53.4418 47.6419 52.016C46.7332 51.4542 45.8083 50.8444 44.8671 50.2024C43.0822 51.7966 41.3135 53.2785 39.561 54.6481L41.2648 55.6431C43.6176 57.0387 46.1816 58.052 48.8589 58.6444V58.6444Z" fill="#182263"/>
<path d="M29.5977 47.0888C28.5592 46.174 27.5531 45.2111 26.5308 44.216C25.5085 43.2209 24.5998 42.2419 23.6911 41.2629C22.3281 39.7864 21.0786 38.3098 19.9103 36.8493C19.2937 36.0629 18.7257 35.2444 18.1578 34.5382C16.9869 32.9605 15.9035 31.3211 14.9124 29.6271C13.4995 27.3067 12.4748 24.7757 11.878 22.132C11.5727 20.8471 11.6573 19.5017 12.1214 18.2641C12.2898 17.8974 12.5265 17.5653 12.8192 17.2851L12.9814 17.1407C13.452 16.5308 13.955 15.953 14.4905 15.3753C14.0241 14.2046 13.6604 12.9965 13.4033 11.7641C10.6935 11.2345 8.48661 11.4592 7.09111 12.679C6.71789 13.1444 6.37713 13.6098 6.03636 14.0913C5.4508 15.63 5.34343 17.3067 5.72805 18.9061C6.46828 22.2295 7.75076 25.4115 9.52513 28.3271C10.748 30.4461 12.0859 32.4981 13.5331 34.474C14.2309 35.437 14.9611 36.4 15.7238 37.379C17.1842 39.2086 18.7744 41.0703 20.4782 42.932C21.6141 44.1679 22.7987 45.4037 24.0481 46.6234C25.2976 47.8432 26.5957 49.095 27.8776 50.2345C29.5003 49.1111 31.2041 47.8592 32.8917 46.495C34.0601 45.5641 35.2446 44.5851 36.4292 43.5419L35.3582 42.595C34.7578 43.1086 34.1736 43.5901 33.5895 44.0555C32.2427 45.195 30.8309 46.1901 29.5977 47.0888Z" fill="#B4D245"/>
<path d="M14.8962 16.2901C14.7664 16.0493 14.6041 15.6802 14.6041 15.3752C14.0686 15.953 13.5656 16.5308 13.095 17.1407C13.6105 16.7072 14.2313 16.414 14.8962 16.2901V16.2901Z" fill="#C2192E"/>
<path d="M12.1863 18.2641C12.4622 17.8789 12.7381 17.5098 13.0301 17.1406L12.8841 17.2851C12.5915 17.5652 12.3548 17.8973 12.1863 18.2641Z" fill="#B4D245"/>
<path d="M27.2448 34.5221C26.2063 33.3666 25.2002 32.211 24.2591 31.0555C22.8798 29.3703 21.6303 27.7012 20.4782 26.0802C19.8291 25.1493 19.2125 24.2184 18.6446 23.3197C17.2033 21.0815 15.9496 18.7305 14.8962 16.29C14.1913 16.3949 13.5289 16.6891 12.9814 17.1407C12.6893 17.5098 12.4135 17.8789 12.1376 18.2641C11.6736 19.5017 11.5889 20.8471 11.8942 22.132C12.491 24.7757 13.5157 27.3067 14.9286 29.6271C15.9197 31.321 17.0031 32.9605 18.174 34.5382C18.7419 35.2925 19.3099 36.0629 19.9265 36.8493C21.0948 38.3098 22.3443 39.7863 23.7073 41.2629C24.616 42.2419 25.5572 43.237 26.547 44.216C27.5369 45.195 28.5754 46.174 29.6139 47.0888C30.912 46.19 32.2589 45.195 33.6057 44.1036C34.1899 43.6382 34.774 43.1567 35.3744 42.6431C34.1412 41.5357 32.8917 40.3641 31.6585 39.1444C30.1007 37.6197 28.6241 36.0629 27.2448 34.5221Z" fill="#C2192E"/>
<path d="M58.7735 17.6544C59.6702 17.6931 60.5353 17.9937 61.2595 18.5181C61.9838 19.0426 62.5347 19.7675 62.8428 20.6013C63.151 21.4352 63.2025 22.3406 62.9909 23.2034C62.7793 24.0661 62.314 24.8476 61.6539 25.4491C60.9937 26.0506 60.1682 26.4452 59.2815 26.5832C58.3948 26.7212 57.4866 26.5963 56.6716 26.2243C55.8566 25.8523 55.1713 25.2499 54.7021 24.493C54.2329 23.7362 54.0009 22.8588 54.0353 21.9717C54.0582 21.38 54.1992 20.7986 54.45 20.261C54.7009 19.7234 55.0567 19.2401 55.497 18.8389C55.9373 18.4377 56.4534 18.1265 57.0157 17.9232C57.578 17.72 58.1754 17.6286 58.7735 17.6544Z" fill="#D7000F"/>
<path d="M88.3874 5.5851H84.7202L84.1035 9.03571H88.2089L88.0304 10.0629H82.7567L84.3794 0.529541H89.5233L89.3286 1.60485H85.4341L84.8987 4.62213H88.5659L88.3874 5.5851Z" fill="#191419"/>
<path d="M93.2879 5.0716C93.4177 4.34938 93.4989 3.7716 93.5638 3.20987H94.651L94.5212 4.34938C94.8031 3.95665 95.175 3.63555 95.6065 3.41238C96.0381 3.18921 96.5169 3.07031 97.0039 3.06543C97.945 3.06543 99.3081 3.64321 98.8862 5.98642L98.1722 10.063H96.9227L97.6367 6.11481C97.8314 5.0074 97.6367 4.09259 96.4197 4.09259C96.0176 4.11698 95.6294 4.24744 95.2956 4.47041C94.9617 4.69338 94.6943 5.00072 94.5212 5.36049C94.433 5.54324 94.3728 5.73798 94.3427 5.93827L93.6287 10.063H92.3954L93.2879 5.0716Z" fill="#191419"/>
<path d="M104.29 6.86913C104.014 8.47407 104.955 9.24444 106.204 9.24444C106.871 9.2599 107.534 9.13972 108.152 8.89136V9.77407C107.407 10.0826 106.606 10.2356 105.799 10.2235C103.689 10.2235 102.683 8.81111 103.056 6.74074C103.154 5.77712 103.594 4.879 104.298 4.20606C105.003 3.53312 105.925 3.12896 106.902 3.06543C109.158 3.06543 109.385 5.02345 109.158 6.27531C109.123 6.47103 109.074 6.66409 109.012 6.85308L104.29 6.86913ZM108.087 5.97037C108.233 5.2 108.087 3.9642 106.724 3.9642C106.179 4.01693 105.665 4.23974 105.257 4.60039C104.848 4.96104 104.566 5.44083 104.452 5.97037H108.087Z" fill="#191419"/>
<path d="M113.734 5.34444C113.88 4.54197 113.993 3.85185 114.058 3.20987H115.21L115.032 4.57407C115.226 4.15431 115.53 3.7933 115.912 3.52816C116.294 3.26302 116.741 3.1033 117.206 3.06543H117.531L117.336 4.23703H116.833C116.38 4.26961 115.948 4.44196 115.598 4.72985C115.249 5.01774 115 5.40668 114.886 5.84197C114.82 6.02995 114.771 6.22329 114.74 6.41975L114.091 10.079H112.857L113.734 5.34444Z" fill="#191419"/>
<path d="M126.212 9.05178C126.135 10.2747 125.59 11.4226 124.687 12.2617C123.92 12.8146 122.99 13.1023 122.042 13.0802C121.282 13.11 120.53 12.9144 119.884 12.5185L120.37 11.5555C120.93 11.9283 121.594 12.119 122.269 12.1012C122.611 12.1207 122.953 12.0715 123.275 11.9565C123.597 11.8415 123.892 11.663 124.142 11.432C124.393 11.2009 124.593 10.9221 124.731 10.6123C124.869 10.3025 124.943 9.96816 124.946 9.62956L125.092 8.89129C124.813 9.2487 124.454 9.53747 124.043 9.73511C123.632 9.93275 123.18 10.0339 122.723 10.0308C121.101 10.0308 120.078 8.58635 120.419 6.69253C120.511 5.75319 120.933 4.87552 121.612 4.21263C122.291 3.54974 123.184 3.14371 124.135 3.06536C124.545 3.02244 124.957 3.11595 125.307 3.33109C125.657 3.54623 125.924 3.87068 126.066 4.25302V4.25302L126.212 3.20981H127.315C127.186 3.69129 127.072 4.25302 126.926 5.08759L126.212 9.05178ZM125.531 5.84191C125.57 5.66206 125.57 5.47607 125.531 5.29623C125.51 4.92436 125.341 4.57574 125.061 4.32626C124.782 4.07678 124.414 3.94662 124.038 3.96413C122.853 3.96413 121.831 4.97524 121.539 6.56413C121.312 7.89623 121.798 9.01969 123.161 9.01969C123.572 9.0038 123.97 8.8773 124.313 8.65385C124.657 8.4304 124.932 8.11849 125.109 7.75178C125.199 7.53363 125.269 7.30807 125.32 7.07771L125.531 5.84191Z" fill="#191419"/>
<path d="M132.151 6.86913C131.875 8.47407 132.816 9.24444 134.066 9.24444C134.733 9.2599 135.395 9.13972 136.013 8.89136V9.77407C135.269 10.0844 134.468 10.2375 133.66 10.2235C131.567 10.2235 130.561 8.81111 130.934 6.74074C131.031 5.76555 131.479 4.85734 132.197 4.18239C132.915 3.50745 133.855 3.11093 134.845 3.06543C137.084 3.06543 137.311 5.02345 137.084 6.27531C137.057 6.47259 137.008 6.66634 136.938 6.85308L132.151 6.86913ZM135.948 5.97037C136.094 5.2 135.948 3.9642 134.585 3.9642C134.042 4.01774 133.531 4.24116 133.125 4.60196C132.72 4.96276 132.441 5.44213 132.33 5.97037H135.948Z" fill="#191419"/>
<path d="M143.769 1.60498L143.477 3.20992H145.262L145.084 4.15683H143.315L142.65 7.84819C142.504 8.69881 142.65 9.18029 143.348 9.18029C143.589 9.21952 143.836 9.21952 144.078 9.18029L143.964 10.1272C143.597 10.2432 143.214 10.3028 142.828 10.3037C142.582 10.3034 142.34 10.2414 142.124 10.1235C141.908 10.0057 141.727 9.83579 141.595 9.62967C141.309 9.0735 141.251 8.42964 141.433 7.83214L142.098 4.09263H141.043L141.173 3.20992H142.244L142.471 1.94202L143.769 1.60498Z" fill="#191419"/>
<path d="M148.248 10.0629L149.465 3.20985H150.698L149.481 10.0629H148.248ZM151.185 1.28392C151.153 1.5022 151.042 1.70131 150.871 1.84336C150.701 1.9854 150.483 2.06048 150.26 2.05429C150.164 2.05864 150.068 2.03994 149.98 1.99979C149.893 1.95963 149.816 1.8992 149.757 1.82362C149.698 1.74803 149.659 1.65951 149.642 1.56557C149.625 1.47162 149.631 1.37501 149.66 1.28392C149.694 1.06984 149.805 0.874868 149.971 0.733775C150.138 0.592682 150.349 0.514635 150.569 0.513551C150.666 0.506469 150.764 0.523148 150.854 0.562132C150.944 0.601116 151.022 0.66122 151.083 0.7372C151.144 0.81318 151.185 0.902726 151.203 0.998024C151.221 1.09332 151.215 1.19148 151.185 1.28392V1.28392Z" fill="#191419"/>
<path d="M159.25 9.82211C158.609 10.0925 157.918 10.2291 157.221 10.2233C156.779 10.2564 156.335 10.1808 155.929 10.0031C155.523 9.82548 155.167 9.55133 154.894 9.20505C154.621 8.85878 154.439 8.45114 154.364 8.01838C154.289 7.58563 154.323 7.14118 154.463 6.72458C154.615 5.7052 155.134 4.77418 155.923 4.10213C156.713 3.43007 157.721 3.06199 158.763 3.06532C159.326 3.05703 159.883 3.18368 160.386 3.43446L159.931 4.38137C159.513 4.15804 159.043 4.04734 158.568 4.06039C157.868 4.09069 157.201 4.36785 156.69 4.84175C156.178 5.31565 155.854 5.95504 155.777 6.64434C155.485 8.24927 156.329 9.21224 157.676 9.21224C158.233 9.21309 158.785 9.10396 159.299 8.89125L159.25 9.82211Z" fill="#191419"/>
<path d="M170.998 0.67406C171.867 0.527341 172.746 0.452186 173.627 0.449368C174.284 0.384462 174.948 0.458185 175.575 0.665672C176.201 0.873159 176.776 1.20969 177.262 1.65307C177.65 2.12421 177.92 2.67956 178.05 3.27371C178.18 3.86786 178.165 4.48394 178.008 5.07159C177.773 6.49798 177.059 7.80423 175.98 8.779C174.699 9.73446 173.12 10.217 171.517 10.1432C170.78 10.1451 170.044 10.1076 169.311 10.0308L170.998 0.67406ZM170.722 9.09999C171.133 9.1289 171.545 9.1289 171.956 9.09999C173.126 9.16709 174.277 8.78071 175.165 8.02273C176.052 7.26475 176.606 6.19475 176.71 5.03949C177.132 2.79258 176.11 1.36418 173.465 1.36418C172.971 1.39739 172.482 1.47802 172.004 1.60492L170.722 9.09999Z" fill="#191419"/>
<path d="M186.608 8.40987C186.505 8.93961 186.44 9.47594 186.414 10.0148H185.294V9.14814C185.012 9.46698 184.666 9.72333 184.277 9.90036C183.888 10.0774 183.466 10.1711 183.038 10.1753C182.781 10.2004 182.521 10.1641 182.28 10.0695C182.039 9.97489 181.825 9.82469 181.655 9.63145C181.485 9.43821 181.364 9.20755 181.303 8.95874C181.242 8.70993 181.241 8.45019 181.302 8.20123C181.594 6.59629 183.217 5.64937 185.846 5.64937V5.50493C185.943 4.95925 185.975 3.89999 184.58 3.89999C183.919 3.89883 183.27 4.07047 182.698 4.39752L182.568 3.56295C183.317 3.19432 184.15 3.02296 184.986 3.06542C187.063 3.06542 187.322 4.49382 187.079 5.85802L186.608 8.40987ZM185.732 6.56419C184.385 6.56419 182.811 6.77283 182.584 8.16913C182.535 8.31098 182.522 8.46279 182.547 8.61073C182.572 8.75868 182.634 8.89804 182.728 9.01611C182.822 9.13418 182.944 9.22721 183.083 9.28672C183.222 9.34622 183.374 9.37031 183.525 9.35678C183.914 9.35196 184.293 9.24355 184.625 9.04299C184.956 8.84244 185.226 8.55717 185.407 8.21728C185.463 8.08898 185.501 7.9541 185.521 7.81604L185.732 6.56419Z" fill="#191419"/>
<path d="M191.979 5.0716C192.109 4.34938 192.19 3.7716 192.239 3.20987H193.342L193.213 4.34938C193.494 3.95665 193.866 3.63555 194.298 3.41238C194.729 3.18921 195.208 3.07031 195.695 3.06543C196.636 3.06543 197.999 3.64321 197.578 5.98642L196.847 10.063H195.614L196.344 6.11481C196.539 5.0074 196.344 4.09259 195.127 4.09259C194.728 4.1181 194.342 4.24919 194.011 4.4722C193.68 4.69521 193.415 5.00196 193.245 5.36049C193.158 5.54524 193.093 5.73906 193.05 5.93827L192.32 10.063H191.087L191.979 5.0716Z" fill="#191419"/>
<path d="M207.703 9.05192C207.626 10.2749 207.081 11.4228 206.178 12.2618C205.412 12.817 204.482 13.1049 203.533 13.0803C202.773 13.1101 202.021 12.9145 201.375 12.5186L201.861 11.5556C202.422 11.9284 203.085 12.1191 203.76 12.1013C204.099 12.1142 204.436 12.0601 204.754 11.9422C205.071 11.8244 205.361 11.6451 205.607 11.415C205.854 11.1848 206.051 10.9084 206.188 10.6018C206.325 10.2953 206.399 9.96478 206.405 9.6297L206.535 8.89143C206.255 9.24884 205.896 9.5376 205.485 9.73524C205.074 9.93289 204.623 10.0341 204.166 10.0309C202.543 10.0309 201.521 8.58649 201.861 6.69266C201.954 5.7508 202.378 4.87114 203.061 4.20792C203.743 3.5447 204.64 3.14026 205.594 3.0655C206.001 3.0263 206.409 3.12159 206.756 3.33647C207.102 3.55135 207.367 3.87371 207.508 4.25315V4.25315L207.703 3.20994H208.807C208.677 3.69143 208.563 4.25315 208.417 5.08772L207.703 9.05192ZM207.038 5.84204C207.069 5.66148 207.069 5.47692 207.038 5.29636C207.03 5.11151 206.984 4.93013 206.904 4.76277C206.825 4.5954 206.712 4.44538 206.573 4.32144C206.434 4.19749 206.272 4.10209 206.095 4.04077C205.919 3.97946 205.732 3.95345 205.545 3.96427C204.36 3.96427 203.338 4.97538 203.062 6.56427C202.819 7.89636 203.306 9.01982 204.685 9.01982C205.095 9.00393 205.494 8.87744 205.837 8.65399C206.18 8.43054 206.455 8.11863 206.632 7.75192C206.73 7.53643 206.8 7.3101 206.843 7.07785L207.038 5.84204Z" fill="#191419"/>
<path d="M210.364 12.0692C210.902 12.0664 211.42 11.8728 211.825 11.5235C212.23 11.1544 212.458 10.6087 212.75 8.97165L213.788 3.20992H215.021L213.902 9.45313C213.818 10.5181 213.345 11.5165 212.571 12.2618C211.931 12.7692 211.136 13.0465 210.316 13.0482L210.364 12.0692ZM215.508 1.284C215.473 1.50082 215.361 1.69794 215.191 1.83938C215.021 1.98081 214.805 2.05712 214.583 2.05437C214.487 2.05776 214.391 2.03862 214.303 1.9985C214.215 1.95838 214.138 1.89841 214.078 1.82343C214.018 1.74844 213.977 1.66055 213.957 1.56684C213.938 1.47314 213.941 1.37625 213.967 1.284C214.007 1.07258 214.119 0.881091 214.284 0.741062C214.45 0.601034 214.658 0.520819 214.875 0.513628C214.973 0.5076 215.071 0.524791 215.161 0.563772C215.251 0.602753 215.33 0.662397 215.392 0.737744C215.454 0.813092 215.497 0.901966 215.517 0.996977C215.537 1.09199 215.534 1.19039 215.508 1.284V1.284Z" fill="#191419"/>
<path d="M218.64 10.063L219.857 3.20992H221.106L219.873 10.063H218.64ZM221.593 1.284C221.558 1.50082 221.446 1.69794 221.276 1.83938C221.106 1.98081 220.89 2.05712 220.668 2.05437C220.571 2.06145 220.473 2.04477 220.383 2.00579C220.293 1.9668 220.215 1.9067 220.154 1.83072C220.093 1.75474 220.052 1.66519 220.034 1.5699C220.016 1.4746 220.022 1.37644 220.052 1.284C220.092 1.07258 220.204 0.881091 220.369 0.741062C220.535 0.601034 220.743 0.520819 220.96 0.513628C221.058 0.5076 221.156 0.524791 221.246 0.563772C221.336 0.602753 221.415 0.662396 221.477 0.737744C221.539 0.813092 221.582 0.901966 221.602 0.996976C221.622 1.09199 221.619 1.19039 221.593 1.284V1.284Z" fill="#191419"/>
<path d="M225.65 5.0716C225.78 4.34938 225.861 3.7716 225.926 3.20987H227.013L226.883 4.34938C227.165 3.95665 227.537 3.63555 227.969 3.41238C228.4 3.18921 228.879 3.07031 229.366 3.06543C230.307 3.06543 231.67 3.64321 231.248 5.98642L230.518 10.063H229.285L229.983 6.11481C230.177 5.0074 229.983 4.09259 228.765 4.09259C228.366 4.11976 227.981 4.25151 227.651 4.47432C227.32 4.69713 227.055 5.00299 226.883 5.36049C226.797 5.54524 226.731 5.73906 226.688 5.93827L225.958 10.063H224.725L225.65 5.0716Z" fill="#191419"/>
<path d="M135.705 26.8828C135.283 27.0433 135.332 27.1556 137.1 26.7705C139.404 22.2766 132.005 20.2544 128.841 22.71C124.735 25.8877 132.167 26.9309 135.705 26.8828Z" fill="#231815"/>
<path fill-rule="evenodd" clip-rule="evenodd" d="M215.476 60.1211C211.614 63.0581 203.257 63.7001 204.734 56.7828C205.529 52.9631 209.715 50.0421 212.555 48.1001C213.301 51.6952 221.399 51.9359 220.782 55.4347C220.311 58.131 216.579 57.3927 215.476 60.1211ZM209.164 59.126C211.63 57.4408 216.157 58.1149 216.563 54.1026C213.301 51.3581 209.196 56.0606 209.164 59.126Z" fill="#231815"/>
<path fill-rule="evenodd" clip-rule="evenodd" d="M205.399 55.1617C207.508 50.4271 211.89 48.2444 215.427 45.1308C211.76 39.658 213.675 29.9 217.163 23.0469C218.697 23.8972 220.048 25.0368 221.139 26.4012C219.163 30.2281 217.639 34.267 216.595 38.4382C219.094 37.058 226.332 36.2876 225.309 41.7765C222.277 42.3977 219.123 42.0492 216.303 40.7814C216.823 42.5256 217.171 44.3154 217.342 46.1259C214.664 49.3358 210.478 50.8444 207.882 54.1506L205.399 55.1617Z" fill="#231815"/>
<path fill-rule="evenodd" clip-rule="evenodd" d="M208.093 25.8716C207.188 26.2081 206.254 26.4607 205.302 26.6259C200.627 31.7686 196.685 37.5194 193.586 43.7185C197.67 42.4574 201.451 40.3879 204.701 37.6358C205.496 38.9519 204.068 39.9309 203.078 41.4395C201.732 43.4938 197.107 48.6136 195.208 49.0469C185.472 51.2457 188.296 38.2136 192.628 32.7086C189.643 30.9432 184.158 31.3605 184.986 26.2889C189.351 27.9901 195.16 22.0519 199.427 21.3617C203.208 20.6877 207.508 22.0839 208.093 25.8716Z" fill="#231815"/>
<path fill-rule="evenodd" clip-rule="evenodd" d="M260.018 41.8086C256.773 45.4037 253.187 48.6617 251.597 54.1506C255.345 54.1506 266.753 45.0506 264.773 55.4185C261.917 58.6284 250.071 61.1642 249.698 55.6432C249.52 53.0753 251.954 49.7691 253.252 47.763C254.874 45.3074 256.221 43.1087 257.487 41.3432C256.042 38.9806 255.469 36.1962 255.864 33.463C256.351 29.8358 258.947 26.4654 259.11 23.4803C260.456 23.7531 259.386 22.7099 260.505 22.6296C266.704 23.1272 265.519 31.7938 262.014 36.4482C260.603 38.2938 257.649 39.6741 260.018 41.8086Z" fill="#231815"/>
<path fill-rule="evenodd" clip-rule="evenodd" d="M248.968 42.0333C248.205 39.6741 245.512 39.0321 243.775 37.5395C242.35 39.6612 241.475 42.0976 241.228 44.6333C241.228 44.6333 241.406 53.3161 238.096 52.4333C237.395 52.3232 236.731 52.0493 236.159 51.6345C235.587 51.2197 235.123 50.676 234.805 50.0483C234.488 49.4207 234.327 48.7272 234.334 48.0255C234.342 47.3238 234.519 46.6341 234.851 46.0136C237.203 38.6951 241.455 33.4951 245.463 28.0383C239.719 29.7395 237.625 32.5321 232.595 36.4963C231.281 37.5235 229.187 40.3803 227.338 38.3901C228.561 36.3197 230.156 34.4869 232.043 32.9815C236.725 28.8697 242.265 25.8285 248.27 24.0741C249.227 23.8012 250.98 24.9568 251.661 25.679C250.866 28.3432 248.416 31.1679 246.615 33.4951C248.855 34.608 250.859 36.1332 252.522 37.9889C252.522 39.4975 256.221 38.663 254.047 41.0704C253.409 41.7368 252.575 42.1882 251.664 42.361C250.753 42.5338 249.81 42.4192 248.968 42.0333Z" fill="#231815"/>
<path d="M150.909 53.6851C152.418 48.5012 156.134 44.6975 159.769 40.6851C157.676 38.8073 164.637 30.7666 164.832 27.1715C164.945 25.6468 160.759 17.8308 159.656 20.8641C158.666 23.5925 155.907 28.2308 155.42 31.9542C155.003 34.8167 155.575 37.7348 157.043 40.2357C155.42 42.4184 154.057 44.7135 152.597 46.9604C149.627 51.5024 146.106 58.3394 153.733 58.6765C156.978 58.8209 162.236 57.858 164.718 55.0333C166.795 44.5851 155.566 53.6209 150.909 53.6851Z" fill="#231815"/>
<path d="M151.072 39.1123C148.93 38.2456 146.836 35.2123 144.662 33.9765C149.757 27.5567 150.212 22.7419 141.108 27.011C135.202 29.7394 126.504 34.3616 123.47 40.4604C125.514 42.6271 139.794 29.916 143.494 28.8086C140.167 33.3666 126.829 49.2876 136.549 51.8876C139.08 52.5616 140.654 39.5135 141.936 37.7802C143.559 39.1765 146.106 39.7703 146.804 42.0333C149.011 43.0604 154.463 40.4765 151.072 39.1123Z" fill="#231815"/>
<path d="M172.897 28.7766C168.564 29.0495 166.86 32.3075 163.988 34.2013C166.73 39.3371 178.738 32.5161 172.897 28.7766Z" fill="#231815"/>
<path d="M99.6002 52.963L99.6975 52.7544L99.6002 52.963Z" fill="#231815"/>
<path d="M99.6001 52.9629C99.6001 53.1073 99.4541 53.2678 99.3892 53.4444C99.4703 53.1876 99.5514 52.9629 99.6001 52.9629Z" fill="#231815"/>
<path d="M110.569 37.1383C112.517 30.7186 117.807 24.4272 111.17 20.9285C108.217 26.7383 106.399 33.768 107.6 39.7544C108.606 44.9383 109.693 43.9112 104.647 47.8914C102.708 49.3236 101.029 51.0711 99.6813 53.0593C97.945 55.2741 97.0201 57.7618 98.4156 60.1692C100.038 63.0741 104.76 62.4964 107.924 60.8593C108.467 60.6526 108.964 60.3417 109.385 59.9445C110.423 57.3766 118.261 55.8038 113.685 52.5297C111.965 51.3581 108.72 50.6359 107.097 48.8544C111.186 45.9013 111.803 44.4248 110.229 39.5939C113.166 41.05 116.53 41.4255 119.721 40.6532C120.614 35.6297 114.172 35.1482 110.569 37.1383ZM98.7726 54.7927C98.7757 54.7499 98.7757 54.707 98.7726 54.6643C98.774 54.6856 98.774 54.7071 98.7726 54.7285V54.7927ZM109.904 52.963C109.498 57.184 104.728 56.4939 102.132 58.2593C102.229 55.0494 106.48 50.1704 109.904 52.963Z" fill="#231815"/>
<path d="M98.8375 54.5679C98.8406 54.6106 98.8406 54.6535 98.8375 54.6963C98.8433 54.6537 98.8433 54.6105 98.8375 54.5679V54.5679Z" fill="#231815"/>
<path d="M98.0586 36.3037C94.6081 39.1791 90.6228 41.3599 86.3266 42.7234C89.6693 35.421 94.7646 27.621 101.612 23.9136C101.554 23.3672 101.434 22.8289 101.255 22.3086C98.1235 12.4383 82.919 26.4815 77.2721 24.2988C76.4445 29.4988 82.1401 29.258 85.3855 31.1197C82.2861 35.0518 78.7162 44.2321 83.0001 47.6667C87.6248 51.358 100.314 40.1234 98.0586 36.3037Z" fill="#231815"/>
</g>
<defs>
<clipPath id="clip0_2434_2916">
<rect width="265" height="65" fill="white"/>
</clipPath>
</defs>
</svg>
