<svg width="1056" height="669" viewBox="0 0 1056 669" fill="none" xmlns="http://www.w3.org/2000/svg">
<g clip-path="url(#clip0_2434_1919)">
<path d="M914.127 388.89C907.966 391.631 902.792 396.193 899.302 401.961" stroke="white" stroke-width="1.98" stroke-linecap="round" stroke-linejoin="round"/>
<path d="M867.121 237.514C888.8 223.967 907.702 206.419 922.817 185.807C886.984 175.94 850.38 163.941 822.622 139.22C806.833 144.714 789.236 148.099 772.518 147.593C776.303 168.134 786.162 187.205 798.757 203.866C811.353 220.528 826.636 234.96 842.377 248.694C851.308 244.996 858.841 242.647 867.121 237.514Z" fill="#291D10"/>
<path d="M682.243 299.787C683.026 300.24 683.714 300.842 684.267 301.558C685.412 303.1 685.557 305.546 684.111 306.811C685.171 305.883 691.957 311.437 692.548 312.533C692.954 313.286 693.11 314.148 692.993 314.995C692.876 315.842 692.492 316.63 691.897 317.244C690.378 318.557 688.064 318.075 686.124 317.521C688.908 318.424 692.246 320.099 692.15 323.014C692.021 323.904 691.633 324.737 691.036 325.409C690.438 326.082 689.656 326.564 688.787 326.797C687.04 327.223 685.225 327.301 683.448 327.026C684.154 327.208 684.811 327.543 685.373 328.006C685.936 328.469 686.39 329.049 686.704 329.707C687.018 330.364 687.185 331.082 687.191 331.811C687.198 332.539 687.044 333.26 686.742 333.923C686.44 334.586 685.996 335.175 685.442 335.648C684.888 336.121 684.237 336.467 683.535 336.662C682.832 336.857 682.096 336.895 681.377 336.775C680.658 336.654 679.975 336.378 679.374 335.965C680.626 336.574 681.619 337.611 682.172 338.889C682.725 340.166 682.801 341.6 682.387 342.929C681.013 346.603 673.384 346.073 670.334 345.627C665.958 344.992 661.875 343.052 658.619 340.062C657.173 338.772 656.057 337.155 655.363 335.347C654.669 333.538 654.418 331.59 654.63 329.665C655.473 319.123 658.776 308.293 661.271 298.028C661.345 297.488 661.59 296.986 661.97 296.595C662.408 296.305 662.927 296.161 663.452 296.185C668.902 295.914 674.352 296.712 679.495 298.534C680.448 298.865 681.368 299.285 682.243 299.787V299.787Z" fill="#EFC1AB"/>
<path d="M675.324 314.618C678.554 315.907 684.617 317.642 688.064 318.834" stroke="#B68572" stroke-width="1.97" stroke-linecap="round" stroke-linejoin="round"/>
<path d="M671.467 323.219C675.602 324.533 680.17 326.388 684.304 327.689" stroke="#B68572" stroke-width="1.97" stroke-linecap="round" stroke-linejoin="round"/>
<path d="M668.647 333.508C672.564 335.134 677.783 336.471 681.17 337.821" stroke="#B68572" stroke-width="1.97" stroke-linecap="round" stroke-linejoin="round"/>
<path d="M667.393 342.315C666.339 341.03 665.719 339.444 665.622 337.785C665.597 336.959 665.841 336.147 666.317 335.472C666.793 334.796 667.475 334.293 668.261 334.038C667.548 333.237 667.065 332.258 666.866 331.204C666.666 330.15 666.757 329.062 667.129 328.056C667.5 327.05 668.138 326.164 668.975 325.492C669.811 324.821 670.814 324.389 671.877 324.244C671.002 323.475 670.39 322.45 670.129 321.315C669.868 320.18 669.971 318.992 670.423 317.918C670.875 316.845 671.653 315.94 672.647 315.333C673.641 314.725 674.801 314.446 675.963 314.533C675.6 313.901 675.386 313.194 675.335 312.467C675.285 311.74 675.401 311.011 675.674 310.334C675.946 309.658 676.369 309.053 676.91 308.563C677.45 308.074 678.095 307.714 678.795 307.51" stroke="#B68572" stroke-width="1.97" stroke-linecap="round" stroke-linejoin="round"/>
<path d="M564.221 166.724C574.936 221.094 616.048 268.416 668.382 286.668C663.681 309.614 658.985 332.564 654.292 355.518C580.239 329.797 523.434 260.067 513.274 182.374C531.281 177.494 546.781 173.41 564.221 166.724Z" fill="#4E556A"/>
<path d="M1002.92 550.276C999.956 541.421 999.642 532.928 998.811 523.772C998.316 518.242 998.22 518.519 993.097 515.11C988.192 511.857 983.25 508.665 978.333 505.472C959.928 493.376 911.114 464.752 892.661 452.656C896.711 443.079 931.061 449.994 935.111 440.416L1017.59 483.594C1018.95 484.199 1020.18 485.071 1021.2 486.16C1022.18 487.555 1022.82 489.16 1023.06 490.847C1026.22 505.424 1029.36 523.748 1021.4 537.373C1018.76 541.741 1015.47 545.685 1011.65 549.071C1011.19 549.556 1010.63 549.931 1010.01 550.168C1009.31 550.294 1008.6 550.294 1007.9 550.168C1006.24 549.946 1004.56 549.982 1002.92 550.276V550.276Z" fill="#EFC1AB"/>
<path d="M1048.36 510.351C1045.23 509.556 1037.01 506.918 1033.9 506.171C1036.65 510.395 1039.23 514.74 1041.62 519.206C1042.03 519.868 1042.3 520.605 1042.42 521.374C1042.42 522.211 1042.22 523.036 1041.85 523.784C1037.03 535.566 1031.28 546.915 1025.4 558.227C1023.49 561.842 1020.42 566.106 1016 565.323C1009.04 564.118 1003.47 555.89 1002.16 549.469C1002 548.971 1002 548.437 1002.16 547.939C1002.45 547.472 1002.87 547.1 1003.37 546.867C1007.14 544.3 1010.03 540.631 1011.65 536.361C1013.39 532.028 1014.52 527.476 1015.02 522.832C1015.97 514.953 1016.66 507.05 1017.11 499.123C1017.41 493.593 1017.58 487.967 1016.12 482.63C1021.73 484.184 1026.64 486.967 1031.79 489.437C1038.85 492.786 1045.9 496.171 1053 499.448L1048.36 510.351Z" fill="white"/>
<path d="M819.235 604.911C823.164 596.478 828.781 590.069 834.47 582.852C837.917 578.479 837.652 578.624 836.278 572.624C834.964 566.89 833.566 561.179 832.216 555.457L816.969 491.063L845.559 478.534L875.691 566.564C876.268 567.95 876.563 569.437 876.558 570.937C876.311 572.621 875.671 574.222 874.69 575.612C866.952 588.418 856.611 603.815 841.473 608.248C836.548 609.598 831.45 610.203 826.346 610.043C825.678 610.078 825.011 609.962 824.394 609.706C823.8 609.326 823.281 608.84 822.863 608.272C821.835 606.971 820.611 605.837 819.235 604.911V604.911Z" fill="#EFC1AB"/>
<path d="M879.68 607.152C877.957 604.417 873.81 596.851 872.039 594.153C871.147 599.132 870.03 604.056 868.688 608.923C868.583 609.737 868.244 610.503 867.711 611.128C867.178 611.753 866.475 612.209 865.687 612.441C854.116 617.705 842.111 621.958 830.047 626.138C826.141 627.488 821.007 628.439 818.343 624.825C814.149 619.139 815.74 609.368 819.199 603.803C819.437 603.336 819.817 602.956 820.284 602.718C820.803 602.568 821.355 602.568 821.875 602.718C826.388 603.454 831.019 602.776 835.133 600.779C839.379 598.834 843.335 596.308 846.884 593.273C853.007 588.213 858.949 582.953 864.711 577.491C868.736 573.684 872.726 569.709 875.341 564.829C878.354 569.817 880.006 575.214 882.079 580.575C884.899 587.864 887.683 595.165 890.588 602.417L879.68 607.152Z" fill="white"/>
<path d="M949.647 444.512C908.667 463.27 847.005 487.883 805.013 504.303C791.514 450.436 778.006 396.552 764.491 342.652C802.434 331.725 838.014 319.762 875.185 306.642C899.772 350.808 927.892 398.889 949.647 444.512Z" fill="#F4D76E"/>
<path d="M678.121 75.3327C677.663 67.5742 677.201 59.8157 676.734 52.0572C676.349 45.5035 675.963 38.8895 677.036 32.42C677.143 31.1177 677.601 29.8686 678.362 28.8058C678.753 28.2953 679.309 27.936 679.935 27.7888C680.561 27.6417 681.219 27.7158 681.797 27.9986C682.539 28.6115 683.046 29.4632 683.231 30.4081L684.894 35.5523C684.679 32.2081 684.736 28.852 685.063 25.5169C685.1 24.0585 685.516 22.6347 686.268 21.3846C686.665 20.774 687.262 20.3201 687.957 20.1004C688.651 19.8807 689.401 19.9088 690.077 20.1799C690.814 20.6694 691.386 21.3709 691.716 22.1918C693.029 24.7443 694.052 27.4356 694.766 30.2154C695.669 27.6854 694.874 24.8904 694.922 22.2039C694.97 19.5173 696.646 16.3368 699.334 16.5055C702.021 16.6741 703.142 19.5655 703.793 22.0111C704.645 25.2237 705.364 28.4685 705.951 31.7454C705.757 28.7285 706.084 25.7008 706.915 22.7942C707.252 21.5894 707.831 20.3847 709 20.0233C710.844 19.5414 712.146 21.7822 712.616 23.6375C714.679 31.2044 715.324 39.0874 714.52 46.8889C714.872 44.6027 715.783 42.4386 717.172 40.5881C717.576 39.9538 718.171 39.4644 718.871 39.1906C720.727 38.6003 722.282 40.7568 722.812 42.6362C725.223 51.0694 721.607 59.8519 717.991 67.8272C710.482 70.9716 702.684 73.6461 695.091 76.5134C692.943 77.4484 690.661 78.038 688.329 78.2602C684.725 78.2179 681.199 77.2067 678.121 75.3327V75.3327Z" fill="#DBA995"/>
<path d="M708.024 40.9736C699.912 43.5604 692.098 47.0011 684.713 51.238" stroke="#B68572" stroke-width="2.45" stroke-linecap="round" stroke-linejoin="round"/>
<path d="M926.24 281.246C932.267 274.657 931.688 261.754 929.591 253.67C927.747 246.514 923.986 240.008 919.816 233.924C896.18 199.385 848.704 165.254 804.603 172.073C799.515 172.822 794.579 174.38 789.983 176.687C787.476 175.627 785.017 174.495 782.607 173.242C774.305 168.947 766.646 163.514 759.851 157.098C754.098 151.66 748.997 145.572 744.652 138.955C739.871 131.724 736.123 123.861 733.515 115.595C728.694 100.175 727.911 82.9348 729.478 66.9238L664.308 67.6949C666.984 92.3197 670.178 117.318 680.218 139.979C688.329 158.279 700.093 173.977 714.472 188.048C727.513 200.83 743.242 211.565 760.707 217.275C756.102 232.166 754.813 248.092 753.583 263.85C751.173 294.33 752.872 324.858 756.512 355.35C771.474 353.446 786.431 351.559 801.385 349.688C823.369 346.901 845.35 344.09 867.326 341.254C877.836 339.869 889.214 336.713 899.76 336.701C897.398 326.701 895.031 316.702 892.661 306.703C905.324 300.352 916.708 291.723 926.24 281.246V281.246Z" fill="white"/>
<path d="M790.284 123.787C792.436 125.412 794.673 126.92 796.986 128.305C799.757 129.904 802.675 131.236 805.7 132.281C810.923 134.096 816.405 135.056 821.935 135.124C823.377 138.534 824.074 142.212 823.979 145.913C823.883 149.614 822.998 153.252 821.382 156.583C819.765 159.914 817.456 162.862 814.607 165.228C811.759 167.595 808.437 169.325 804.865 170.304C801.293 171.284 797.553 171.489 793.896 170.906C790.238 170.323 786.747 168.965 783.657 166.924C780.567 164.883 777.949 162.206 775.978 159.072C774.007 155.937 772.729 152.418 772.229 148.749C771.903 146.289 771.927 143.794 772.301 141.34C779.425 137.208 785.065 130.365 790.284 123.787Z" fill="#EFC1AB"/>
<path d="M796.986 128.341C794.673 126.956 792.436 125.448 790.284 123.824C785.065 130.401 779.437 137.244 772.302 141.377C773.149 135.78 775.801 130.614 779.856 126.663C783.911 122.712 789.146 120.193 794.764 119.489C800.383 118.786 806.078 119.936 810.982 122.764C815.887 125.593 819.733 129.946 821.935 135.16C816.387 135.086 810.888 134.114 805.652 132.281C802.645 131.244 799.743 129.925 796.986 128.341V128.341Z" fill="#291D10"/>
<path d="M827.745 139.497C827.871 140.441 827.716 141.401 827.297 142.257C826.878 143.112 826.215 143.825 825.391 144.304C824.568 144.783 823.621 145.007 822.67 144.949C821.719 144.89 820.806 144.551 820.048 143.974C819.289 143.398 818.719 142.61 818.408 141.709C818.098 140.809 818.061 139.837 818.303 138.915C818.545 137.994 819.055 137.165 819.768 136.533C820.481 135.901 821.365 135.495 822.309 135.365C822.937 135.278 823.577 135.317 824.19 135.478C824.804 135.639 825.38 135.919 825.885 136.303C826.39 136.687 826.814 137.167 827.133 137.715C827.452 138.263 827.66 138.869 827.745 139.497V139.497Z" fill="#EFC1AB"/>
<path d="M776.978 146.412C777.105 147.356 776.949 148.316 776.53 149.172C776.111 150.027 775.448 150.74 774.625 151.219C773.801 151.698 772.854 151.922 771.903 151.864C770.952 151.805 770.04 151.466 769.281 150.889C768.523 150.313 767.952 149.525 767.642 148.624C767.331 147.724 767.295 146.752 767.537 145.83C767.779 144.909 768.288 144.08 769.001 143.448C769.714 142.816 770.598 142.41 771.542 142.28C772.171 142.193 772.81 142.232 773.424 142.393C774.037 142.554 774.613 142.834 775.118 143.218C775.623 143.602 776.048 144.082 776.367 144.63C776.686 145.178 776.894 145.784 776.978 146.412V146.412Z" fill="#EFC1AB"/>
<path d="M786.439 141.907C786.469 142.12 786.456 142.337 786.401 142.546C786.346 142.754 786.251 142.95 786.121 143.122C785.99 143.294 785.827 143.438 785.641 143.547C785.455 143.655 785.249 143.727 785.035 143.756C784.822 143.785 784.604 143.772 784.396 143.717C784.187 143.663 783.991 143.567 783.819 143.437C783.648 143.307 783.503 143.144 783.394 142.958C783.286 142.772 783.214 142.566 783.185 142.352C783.126 141.921 783.241 141.484 783.504 141.137C783.767 140.79 784.158 140.562 784.589 140.503C785.021 140.444 785.458 140.559 785.805 140.822C786.152 141.085 786.38 141.475 786.439 141.907V141.907Z" fill="#463030"/>
<path d="M797.636 140.389C797.678 140.709 797.625 141.035 797.482 141.325C797.339 141.615 797.113 141.856 796.833 142.018C796.554 142.181 796.232 142.256 795.909 142.236C795.587 142.216 795.277 142.101 795.019 141.906C794.762 141.71 794.568 141.443 794.462 141.137C794.356 140.832 794.343 140.502 794.425 140.189C794.506 139.876 794.678 139.594 794.919 139.379C795.16 139.164 795.46 139.024 795.78 138.979C795.995 138.948 796.213 138.961 796.423 139.015C796.633 139.07 796.83 139.165 797.003 139.296C797.175 139.428 797.32 139.592 797.429 139.779C797.538 139.966 797.608 140.174 797.636 140.389V140.389Z" fill="#463030"/>
<path d="M790.188 141.967C788.199 143.473 788.802 146.364 788.982 147.713L792.598 147.256" stroke="#463030" stroke-width="1.74" stroke-linecap="round" stroke-linejoin="round"/>
<path d="M785.572 150.46C785.849 151.005 786.233 151.488 786.701 151.882C787.169 152.275 787.711 152.57 788.296 152.749C789.469 153.098 790.71 153.156 791.912 152.918C792.986 152.734 794.009 152.323 794.913 151.713C795.813 151.107 796.471 150.203 796.769 149.159" stroke="#463030" stroke-width="1.74" stroke-linecap="round" stroke-linejoin="round"/>
<path d="M782.04 138.304C783.328 137.772 784.698 137.462 786.09 137.389" stroke="#463030" stroke-width="1.74" stroke-linecap="round" stroke-linejoin="round"/>
<path d="M794.045 136.497C795.296 136.174 796.6 136.109 797.877 136.305" stroke="#463030" stroke-width="1.74" stroke-linecap="round" stroke-linejoin="round"/>
<path d="M598.969 588.755C601.155 595.646 603.365 602.529 605.599 609.405C607.792 616.139 609.769 622.958 612.613 629.427C612.651 629.555 612.737 629.664 612.854 629.728C612.948 629.759 613.05 629.759 613.144 629.728C616.928 628.957 620.641 628.042 624.365 626.909C625.1 626.693 632.259 624.584 632.259 624.163C632.567 620.477 633.086 616.813 633.814 613.187C637.599 614.874 641.215 617.271 644.855 619.283C645.162 619.478 645.507 619.605 645.867 619.657C646.147 619.656 646.424 619.608 646.687 619.512C649.483 618.681 652.243 617.669 655.039 616.753C660.065 615.103 665.212 613.284 670.25 611.501C675.77 609.541 681.274 607.533 686.762 605.477C691.427 603.742 696.923 600.658 696.634 595.321C696.465 592.201 693.958 588.418 692.259 585.852C690.095 582.677 687.228 580.043 683.882 578.154C679.14 575.584 673.969 573.898 668.623 573.178C656.942 571.305 644.993 571.979 633.597 575.154C621.665 578.503 610.528 584.117 598.969 588.755Z" fill="#8C6239"/>
<path d="M657.016 580.852C665.767 580.271 674.488 582.373 682.013 586.876" stroke="white" stroke-width="2.58" stroke-linecap="round" stroke-linejoin="round"/>
<path d="M547.721 334.448C527.231 327.942 505.536 322.292 484.576 317.316C474.415 330.737 483.985 358.277 489.023 372.336C497.762 396.769 507.103 420.984 516.89 445.03C537.994 497.111 567.355 561.239 585.591 598.731C612.356 589.816 638.764 579.925 664.814 569.058C661.97 570.287 557.604 354.277 547.721 334.448Z" fill="url(#paint0_linear_2434_1919)"/>
<path d="M282.341 464.089C275.423 466.21 268.517 468.35 261.623 470.511C254.808 472.442 248.094 474.714 241.506 477.317C241.381 477.354 241.274 477.435 241.205 477.546C241.181 477.641 241.181 477.741 241.205 477.835C241.94 481.63 242.808 485.353 243.905 489.088C244.122 489.823 246.159 497.003 246.569 497.015C250.253 497.353 253.915 497.904 257.537 498.665C255.813 502.436 253.378 506.026 251.329 509.64C251.126 509.944 250.994 510.29 250.944 510.652C250.94 510.931 250.985 511.208 251.076 511.472C251.872 514.279 252.872 517.05 253.752 519.905C255.355 524.953 257.115 530.121 258.85 535.169C260.755 540.703 262.699 546.224 264.684 551.734C266.371 556.408 269.36 561.938 274.76 561.697C277.87 561.565 281.678 559.107 284.258 557.432C287.459 555.304 290.127 552.468 292.056 549.144C294.678 544.43 296.418 539.278 297.19 533.94C299.189 522.282 298.638 510.331 295.575 498.906C292.369 486.895 286.873 475.691 282.341 464.089Z" fill="#8C6239"/>
<path d="M289.645 522.194C290.15 530.943 287.963 539.637 283.378 547.108" stroke="white" stroke-width="2.58" stroke-linecap="round" stroke-linejoin="round"/>
<path d="M420.901 411.9C422.648 381.312 425.722 344.266 428.856 314.509C453.769 315.473 495.423 328.436 520.337 329.388C509.489 391.131 499.967 430.477 484.178 483.727C423.347 502.195 359.721 519.11 298.89 537.578C290.453 509.375 278.93 471.559 270.554 443.356L420.901 411.9Z" fill="url(#paint1_linear_2434_1919)"/>
<path d="M571.694 182.253C565.667 168.592 556.11 157.893 541.2 154.689C537.921 154.002 534.562 153.775 531.22 154.014C535.137 194.845 543.042 235.195 554.82 274.488C562.514 244.157 568.151 213.343 571.694 182.253V182.253Z" fill="white"/>
<path d="M571.694 182.253C568.151 213.339 562.513 244.149 554.82 274.476C543.042 235.183 535.137 194.833 531.22 154.002C521.506 154.653 511.827 158.821 503.921 163.845C481.888 177.976 465.87 201.927 454.793 225.19C441.776 252.497 430.057 280.407 419.635 308.919C419.129 310.293 414.947 324.581 414.453 325.99C426.867 330.388 574.755 355.711 574.635 356.518C578.022 316.485 580.36 288.065 581.469 251.2C582.023 232.647 581.192 203.77 571.694 182.253Z" fill="#3E4250"/>
<path d="M554.277 124.847L530.377 128.462C519.276 130.148 519.324 115.523 520.421 108.487C520.695 106.224 521.284 104.01 522.169 101.909C523.736 98.548 527.339 96.0181 530.497 94.211C534.414 91.9461 538.934 90.9582 543.358 90.0908C553 88.1993 562.907 86.6211 571.176 81.4287C574.791 89.4041 574.659 102.054 567.27 107.933C572.67 113.643 571.947 125.51 568.054 131.775C564.1 129.062 559.95 126.646 555.639 124.546" fill="#685542"/>
<path d="M568.994 125.799C568.125 120.589 565.576 115.805 561.737 112.175C557.897 108.545 552.976 106.269 547.723 105.692C542.469 105.115 537.171 106.269 532.634 108.979C528.098 111.689 524.571 115.806 522.591 120.703C521.773 122.681 521.226 124.76 520.964 126.884C520.19 133.274 521.988 139.71 525.961 144.775C529.935 149.84 535.759 153.121 542.152 153.894C548.546 154.667 554.984 152.87 560.052 148.898C565.12 144.926 568.401 139.105 569.175 132.715C569.442 130.412 569.381 128.084 568.994 125.799V125.799Z" fill="#EFC1AB"/>
<path d="M564.691 130.594C564.583 131.479 564.74 132.376 565.142 133.172C565.544 133.967 566.174 134.626 566.95 135.064C567.727 135.502 568.616 135.7 569.506 135.633C570.395 135.566 571.244 135.236 571.946 134.686C572.648 134.137 573.171 133.391 573.449 132.544C573.727 131.697 573.747 130.786 573.507 129.928C573.267 129.069 572.778 128.301 572.101 127.721C571.424 127.14 570.591 126.773 569.705 126.667C568.519 126.524 567.325 126.857 566.385 127.594C565.445 128.33 564.836 129.409 564.691 130.594V130.594Z" fill="#EFC1AB"/>
<path d="M555.796 126.534C555.748 126.938 555.863 127.345 556.115 127.665C556.367 127.984 556.736 128.191 557.14 128.239C557.544 128.287 557.951 128.172 558.271 127.92C558.591 127.668 558.798 127.3 558.845 126.896C558.893 126.491 558.779 126.085 558.527 125.765C558.275 125.445 557.906 125.239 557.502 125.191C557.097 125.143 556.69 125.258 556.37 125.509C556.051 125.761 555.844 126.13 555.796 126.534V126.534Z" fill="#463030"/>
<path d="M545.31 125.269C545.275 125.569 545.329 125.873 545.465 126.143C545.602 126.412 545.816 126.635 546.079 126.783C546.343 126.931 546.644 126.998 546.945 126.976C547.247 126.953 547.535 126.841 547.773 126.655C548.011 126.469 548.189 126.217 548.284 125.93C548.379 125.643 548.386 125.335 548.306 125.043C548.226 124.752 548.061 124.491 547.832 124.293C547.604 124.095 547.322 123.97 547.022 123.932C546.821 123.907 546.618 123.921 546.423 123.975C546.229 124.029 546.047 124.12 545.888 124.245C545.728 124.369 545.596 124.523 545.497 124.699C545.397 124.875 545.334 125.069 545.31 125.269V125.269Z" fill="#463030"/>
<path d="M552.301 126.643C554.181 128.004 553.663 130.727 553.506 131.98L550.167 131.606" stroke="#463030" stroke-width="1.63" stroke-linecap="round" stroke-linejoin="round"/>
<path d="M556.736 134.497C556.484 135.01 556.131 135.466 555.698 135.839C555.265 136.211 554.762 136.493 554.217 136.666C553.186 136.961 552.104 137.041 551.04 136.9C549.977 136.759 548.953 136.401 548.034 135.847C547.173 135.283 546.544 134.427 546.262 133.437" stroke="#463030" stroke-width="1.63" stroke-linecap="round" stroke-linejoin="round"/>
<path d="M559.858 123.113C558.648 122.628 557.364 122.355 556.061 122.305" stroke="#463030" stroke-width="1.63" stroke-linecap="round" stroke-linejoin="round"/>
<path d="M548.625 121.583C547.44 121.301 546.21 121.26 545.009 121.462" stroke="#463030" stroke-width="1.63" stroke-linecap="round" stroke-linejoin="round"/>
<path d="M540.839 165.471C543.653 165.811 546.488 165.02 548.719 163.271C550.949 161.523 552.394 158.96 552.735 156.147L553.94 146.509L532.727 143.943L531.522 153.581C531.185 156.391 531.976 159.221 533.722 161.45C535.469 163.679 538.028 165.125 540.839 165.471V165.471Z" fill="#EFC1AB"/>
<path d="M549.3 106.752C543.828 108.049 538.822 110.834 534.836 114.8C532.257 117.27 526.773 123.004 522.603 120.824C518.432 118.643 523.338 110.571 525.013 108.174C526.803 105.427 529.167 103.1 531.944 101.355C535.62 99.271 540.031 99.006 544.25 99.1144C548.11 99.0761 551.946 99.7248 555.579 101.03C556.712 101.488 564.016 105.162 561.292 107.27C560.581 107.825 556.941 106.475 555.953 106.391C553.729 106.183 551.488 106.305 549.3 106.752V106.752Z" fill="#685542"/>
<path d="M624.63 273.633C625.353 273.633 636.152 273.488 636.261 273.958C634.598 266.729 632.942 259.469 631.295 252.176C616.642 249.728 602.635 244.346 590.115 236.353C577.595 228.36 566.819 217.92 558.436 205.661C553.615 205.035 548.54 205.938 543.888 204.842C540.887 217.227 555.398 235.864 562.859 244.659C567.597 250.117 572.79 255.163 578.383 259.742C581.589 262.416 590.834 272.392 594.932 272.536L624.63 273.633Z" fill="#C2192E"/>
<path d="M644.252 57.1654V57.0088C644.348 51.4911 643.047 39.8774 647.169 35.5163C653.014 29.2517 654.895 41.034 655.088 44.6241C656.341 39.3072 657.767 34.0385 659.366 28.818C660.186 26.1555 661.295 23.2159 663.814 22.0112C664.179 21.8095 664.584 21.6899 665 21.6608C665.417 21.6316 665.834 21.6937 666.224 21.8425C667.43 22.3967 667.767 23.9749 667.864 25.3242C668.192 29.9551 667.981 34.6083 667.237 39.1907C668.177 33.408 669.43 23.6014 674.276 19.5656C674.798 19.0834 675.47 18.7961 676.179 18.7522C676.889 18.7083 677.591 18.9105 678.169 19.3246C678.555 19.7806 678.844 20.3108 679.019 20.8826C679.193 21.4544 679.248 22.0558 679.181 22.6497C679.279 29.2748 678.468 35.882 676.771 42.2869C677.435 37.2314 678.998 32.3353 681.387 27.8301C681.749 26.9047 682.458 26.1571 683.364 25.7459C683.964 25.63 684.586 25.7205 685.129 26.0026C685.671 26.2848 686.103 26.742 686.353 27.3C686.817 28.4446 686.986 29.6871 686.847 30.9142C686.629 36.215 685.788 41.4718 684.34 46.5758C685.424 43.3788 687.095 40.4125 689.269 37.8294C689.675 37.2412 690.258 36.798 690.933 36.5644C692.451 36.191 693.705 37.7691 694.127 39.3233C694.994 42.4435 694.259 45.7686 693.44 48.9009C689.402 64.3577 683.303 79.188 677.229 93.9701C676.973 94.7923 676.498 95.5294 675.855 96.1025C673.119 98.1265 659.414 90.5125 656.449 89.0789C652.436 87.1513 643.794 83.6335 643.89 78.4049C644.011 71.3211 644.131 64.2412 644.252 57.1654Z" fill="#EFC1AB"/>
<path d="M690.39 108.427C665.561 167.098 605.671 217.07 538.826 210.661C532.691 210.071 526.46 208.914 521.132 205.842C515.805 202.77 511.49 197.409 510.887 191.301C510.478 186.952 511.948 182.639 513.756 178.651C520.722 163.218 533.04 157.918 548.046 152.4C569.103 144.629 587.17 130.715 601.501 113.619C604.815 109.668 624.582 82.2963 632.717 58.3943C654.851 67.6413 677.567 75.4285 700.72 81.7059C701.37 81.8746 695.886 95.452 690.39 108.427Z" fill="#3E4250"/>
<path d="M511.044 207.083C521.067 209.011 531.192 210.37 541.369 211.155" stroke="#42495C" stroke-width="1.97" stroke-linecap="round" stroke-linejoin="round"/>
<path d="M521.771 219.335C531.727 239.767 542.172 259.943 553.108 279.861" stroke="#4E5465" stroke-width="1.97" stroke-linecap="round" stroke-linejoin="round"/>
<path d="M548.757 297.004C548.687 295.746 549.092 294.508 549.89 293.533C550.689 292.558 551.824 291.918 553.072 291.74C555.483 291.547 556.809 293.125 557.11 295.354C558.086 302.594 549.203 304.377 548.757 297.004Z" stroke="#4E5465" stroke-width="1.97" stroke-linecap="round" stroke-linejoin="round"/>
<path d="M542.9 330.05C542.829 328.791 543.233 327.551 544.032 326.574C544.83 325.598 545.966 324.955 547.215 324.774C549.625 324.593 550.951 326.171 551.252 328.388C552.204 335.556 543.322 337.387 542.9 330.05Z" stroke="#4E5465" stroke-width="1.97" stroke-linecap="round" stroke-linejoin="round"/>
<path d="M569.512 256.176C565.26 263.029 561.366 270.099 557.845 277.355" stroke="#4E5465" stroke-width="1.97" stroke-linecap="round" stroke-linejoin="round"/>
<path d="M510.261 328.725L463.351 317.208C466.665 301.763 471.065 285.523 474.379 270.066C489.952 272.99 505.371 276.604 520.638 280.909C517.227 295.98 513.672 313.666 510.261 328.725Z" stroke="#4E5465" stroke-width="1.97" stroke-linecap="round" stroke-linejoin="round"/>
<path d="M412.524 425.08C411.311 429.578 410.105 434.075 408.908 438.573" stroke="#42495C" stroke-width="1.97" stroke-linecap="round" stroke-linejoin="round"/>
<path d="M509.248 382.263C506.95 394.696 504.644 407.145 502.33 419.61" stroke="#42495C" stroke-width="1.97" stroke-linecap="round" stroke-linejoin="round"/>
<path d="M789.9 173.747C785.971 175.265 783.235 178.915 781.463 182.758C779.691 186.601 778.811 190.77 777.232 194.673C775.38 198.998 772.947 203.051 770.001 206.72C761.349 217.935 749.996 226.776 737 232.417C757.032 234.489 777.341 227.972 794.215 216.973C805.412 209.672 815.705 199.817 819.707 187.071C820.879 183.791 821.191 180.265 820.611 176.831C820.308 175.12 819.588 173.509 818.514 172.143C817.439 170.777 816.044 169.698 814.452 169" stroke="#E7C46A" stroke-width="2" stroke-linecap="round" stroke-linejoin="round"/>
<path d="M803.109 183.386C801.618 183.589 800.103 183.497 798.648 183.115C797.193 182.733 795.828 182.069 794.63 181.159C793.433 180.249 792.426 179.113 791.668 177.814C790.91 176.516 790.415 175.081 790.212 173.591L788.778 163.279L811.473 160.182L812.884 170.507C813.295 173.51 812.497 176.554 810.664 178.969C808.831 181.384 806.113 182.973 803.109 183.386V183.386Z" fill="#EFC1AB"/>
<path d="M734.151 221.602L700.433 232.015L707.645 255.347L741.363 244.933L734.151 221.602Z" fill="#FFE500"/>
<path d="M840.942 264.609C858.724 260.465 875.584 253.068 890.672 242.791" stroke="#E7E7E7" stroke-width="2.29" stroke-linecap="round" stroke-linejoin="round"/>
<path d="M852.911 210.902C863.32 220.639 871.894 232.166 878.222 244.936" stroke="#E7E7E7" stroke-width="2.29" stroke-linecap="round" stroke-linejoin="round"/>
<path d="M846.8 315.232C860.446 314.516 873.966 312.261 887.105 308.51" stroke="#E7E7E7" stroke-width="2.29" stroke-linecap="round" stroke-linejoin="round"/>
<g opacity="0.26">
<path d="M929.5 405.5C930.569 473.624 930.66 466.796 930.652 534.952" stroke="#8B6107" stroke-width="1.46" stroke-miterlimit="10"/>
<path d="M911.171 371C910.135 398.504 908.99 432.004 907.735 459.5" stroke="#8B6107" stroke-width="1.46" stroke-miterlimit="10"/>
<path d="M890.54 317.328C893.713 387.203 895.674 398.569 892.5 468.5" stroke="#8B6107" stroke-width="1.46" stroke-miterlimit="10"/>
<path d="M876.269 335.797C875.667 399.327 874.619 412.478 874 476" stroke="#8B6107" stroke-width="1.46" stroke-miterlimit="10"/>
<path d="M859.13 342.399L854 484.5" stroke="#8B6107" stroke-width="1.46" stroke-miterlimit="10"/>
<path d="M835.856 334.869C834 393.552 836.368 432.317 834.5 491" stroke="#8B6107" stroke-width="1.46" stroke-miterlimit="10"/>
<path d="M813.522 355.591C814.325 413.627 814.465 441.472 816 499.5" stroke="#8B6107" stroke-width="1.46" stroke-miterlimit="10"/>
<path d="M797.058 362.771C795.355 398.808 795.579 430.87 795.732 466.956" stroke="#8B6107" stroke-width="1.46" stroke-miterlimit="10"/>
<path d="M779.786 366.132V404" stroke="#8B6107" stroke-width="1.46" stroke-miterlimit="10"/>
<path d="M906.5 363C855.139 361.393 848.7 360.397 797.516 355.844" stroke="#8B6107" stroke-width="1.46" stroke-miterlimit="10"/>
<path d="M919 386C840.472 385.052 854.004 384.147 775.5 382.541" stroke="#8B6107" stroke-width="1.46" stroke-miterlimit="10"/>
<path d="M931.5 410L781.5 404.861" stroke="#8B6107" stroke-width="1.46" stroke-miterlimit="10"/>
<path d="M942 431C850.856 425.675 877.377 425.457 786 426.766" stroke="#8B6107" stroke-width="1.46" stroke-miterlimit="10"/>
<path d="M968.485 450.343C893.758 448.737 866.316 447.492 791.5 449.5" stroke="#8B6107" stroke-width="1.46" stroke-miterlimit="10"/>
<path d="M888.5 470.5C830.646 468.46 854.354 469.626 796.5 469" stroke="#8B6107" stroke-width="1.46" stroke-miterlimit="10"/>
<path d="M801.5 489.5C815.472 489.382 828.665 489.438 841.5 489.614" stroke="#8B6107" stroke-width="1.46" stroke-miterlimit="10"/>
</g>
<path d="M726.392 245.381C727.733 244.963 728.942 244.201 729.897 243.171C730.852 242.142 731.521 240.88 731.838 239.512C732.154 238.143 732.107 236.716 731.701 235.372C731.294 234.028 730.543 232.813 729.522 231.849C728.5 230.884 727.244 230.204 725.878 229.875C724.513 229.546 723.084 229.581 721.736 229.974C720.387 230.368 719.165 231.108 718.191 232.12C717.217 233.132 716.525 234.381 716.183 235.743C716.697 235.263 717.313 234.904 717.985 234.694C718.656 234.484 719.367 234.427 720.063 234.529C720.759 234.63 721.424 234.887 722.007 235.281C722.591 235.674 723.078 236.193 723.434 236.801C723.789 237.408 724.003 238.087 724.059 238.788C724.116 239.489 724.014 240.194 723.761 240.851C723.508 241.507 723.111 242.098 722.598 242.58C722.085 243.062 721.471 243.422 720.8 243.635C720.126 243.845 719.413 243.903 718.715 243.803C719.754 244.698 721.005 245.313 722.348 245.589C723.692 245.865 725.084 245.794 726.392 245.381V245.381Z" fill="white"/>
<path d="M723.873 237.743C723.636 236.985 723.21 236.3 722.635 235.751C722.06 235.203 721.355 234.81 720.586 234.609C719.817 234.408 719.01 234.405 718.239 234.602C717.469 234.798 716.762 235.187 716.183 235.731C715.817 237.177 715.859 238.697 716.306 240.12C716.753 241.543 717.587 242.814 718.715 243.791C719.498 243.903 720.296 243.815 721.036 243.536C721.776 243.257 722.434 242.796 722.948 242.195C723.463 241.594 723.817 240.874 723.979 240.1C724.141 239.326 724.104 238.524 723.873 237.767V237.743Z" fill="#605F5C"/>
<path d="M726.308 240.08C725.748 240.259 725.149 240.267 724.585 240.104C724.021 239.942 723.518 239.615 723.14 239.166C722.761 238.718 722.525 238.167 722.46 237.584C722.395 237.001 722.505 236.411 722.776 235.891C723.047 235.37 723.466 234.941 723.98 234.659C724.495 234.377 725.082 234.253 725.666 234.305C726.251 234.356 726.808 234.58 727.265 234.947C727.723 235.315 728.061 235.81 728.236 236.37C728.354 236.74 728.398 237.13 728.364 237.517C728.331 237.904 728.222 238.281 728.043 238.625C727.864 238.97 727.618 239.276 727.32 239.526C727.023 239.776 726.678 239.964 726.308 240.08Z" fill="#605F5C"/>
<path d="M744.99 6.13274C744.99 7.00431 744.731 7.85633 744.247 8.58118C743.763 9.30603 743.075 9.87118 742.269 10.2053C741.464 10.5394 740.577 10.6274 739.722 10.4582C738.867 10.2891 738.081 9.8703 737.463 9.25485C736.846 8.6394 736.425 7.85486 736.253 7.00032C736.082 6.14579 736.167 5.25959 736.499 4.45369C736.831 3.64778 737.395 2.95831 738.119 2.47236C738.843 1.98641 739.694 1.72579 740.566 1.72341C741.147 1.72182 741.722 1.8347 742.258 2.05558C742.795 2.27646 743.282 2.601 743.693 3.0106C744.104 3.4202 744.43 3.90682 744.653 4.44257C744.875 4.97833 744.99 5.55268 744.99 6.13274V6.13274Z" stroke="#888786" stroke-width="3" stroke-linecap="round" stroke-linejoin="round"/>
<path d="M732.129 18.0476L723.921 28.1674" stroke="#888786" stroke-width="3" stroke-linecap="round" stroke-linejoin="round"/>
<path d="M733.648 35.9742L748.256 27.3" stroke="#888786" stroke-width="3" stroke-linecap="round" stroke-linejoin="round"/>
<path d="M845.052 350.145L757.259 374.324L723.777 252.863L765.949 241.261L775.074 223.443L807.628 215.612L845.052 350.145Z" fill="#9C7E44"/>
<path d="M820.537 266.139C821.579 269.649 823.785 272.699 826.792 274.789C825.201 275.632 822.658 275.187 820.862 275.608C818.643 276.137 816.501 276.947 814.486 278.018C812.877 278.754 811.51 279.932 810.545 281.415C810.078 282.165 809.864 283.044 809.933 283.924C810.002 284.804 810.352 285.639 810.931 286.306C812.413 287.764 814.836 287.415 816.873 286.957C813.956 287.716 810.4 289.246 810.376 292.258C810.452 293.187 810.8 294.073 811.377 294.806C811.953 295.538 812.733 296.085 813.618 296.378C815.396 296.925 817.264 297.114 819.114 296.932C818.372 297.071 817.669 297.371 817.055 297.811C816.441 298.251 815.931 298.821 815.562 299.479C815.193 300.138 814.972 300.87 814.917 301.623C814.861 302.376 814.972 303.132 815.241 303.837C815.51 304.543 815.931 305.181 816.474 305.706C817.017 306.231 817.669 306.631 818.383 306.876C819.097 307.122 819.857 307.208 820.608 307.128C821.359 307.048 822.084 306.804 822.73 306.413C821.4 306.967 820.313 307.979 819.665 309.265C819.017 310.552 818.852 312.027 819.199 313.425C820.404 317.304 828.311 317.22 831.433 316.931C835.992 316.545 840.328 314.79 843.871 311.895C845.452 310.655 846.714 309.056 847.552 307.231C848.391 305.407 848.781 303.408 848.692 301.402C848.653 294.174 847.131 287.031 844.221 280.415C840.906 273.283 835.012 268.85 829.227 263.79C827.952 262.454 826.347 261.478 824.574 260.959C822.767 260.597 820.573 261.501 820.199 263.308C820.101 263.956 820.142 264.617 820.32 265.248C820.38 265.549 820.452 265.85 820.537 266.139Z" fill="#EFC1AB"/>
<path d="M828.166 284.62C824.743 285.752 818.379 287.174 814.751 288.234" stroke="#463030" stroke-width="2.03" stroke-linecap="round" stroke-linejoin="round"/>
<path d="M831.625 293.74C827.274 294.836 822.441 296.486 818.09 297.571" stroke="#463030" stroke-width="2.03" stroke-linecap="round" stroke-linejoin="round"/>
<path d="M833.916 304.534C829.757 305.968 824.273 307.04 820.657 308.22" stroke="#463030" stroke-width="2.03" stroke-linecap="round" stroke-linejoin="round"/>
<path d="M788.589 258.366L755.867 267.375L757.909 274.785L790.631 265.776L788.589 258.366Z" fill="white"/>
<path d="M620.448 15.9634L640.467 30.8901" stroke="#888786" stroke-width="3" stroke-linecap="round" stroke-linejoin="round"/>
<path d="M621.798 35.9741L635.369 41.0702" stroke="#888786" stroke-width="3" stroke-linecap="round" stroke-linejoin="round"/>
<path d="M651.665 4.09668L658.113 15.2887" stroke="#888786" stroke-width="3" stroke-linecap="round" stroke-linejoin="round"/>
<path d="M712.122 49.166C708.376 51.7671 705.14 55.034 702.576 58.8039" stroke="#B68572" stroke-width="2.45" stroke-linecap="round" stroke-linejoin="round"/>
<path d="M706.119 31.3721V38.8294" stroke="#B68572" stroke-width="2.45" stroke-linecap="round" stroke-linejoin="round"/>
<path d="M695.44 31.8298C696.21 35.1017 696.754 38.4225 697.068 41.7689" stroke="#B68572" stroke-width="2.45" stroke-linecap="round" stroke-linejoin="round"/>
<path d="M667.924 31.8298C667.008 36.1187 666.096 40.4116 665.188 44.7085" stroke="#B68572" stroke-width="2.45" stroke-linecap="round" stroke-linejoin="round"/>
<path d="M678.892 32.0708C677.928 37.3395 676.968 42.6082 676.011 47.877" stroke="#B68572" stroke-width="2.45" stroke-linecap="round" stroke-linejoin="round"/>
<path d="M686.075 39.5281C685.497 43.7326 684.87 47.9612 684.328 52.1658" stroke="#B68572" stroke-width="2.45" stroke-linecap="round" stroke-linejoin="round"/>
<path d="M180.95 579.349C182.21 579.113 195.754 600.864 196.917 603.183C200.907 611.058 206.97 619.151 210.785 627.069C211.157 627.711 211.451 628.396 211.66 629.108C211.795 629.907 211.795 630.724 211.66 631.523C210.619 639.721 208.396 648.007 206.559 656.109C203.864 668.201 201.003 680.241 197.897 692.227C210.024 694.537 223.646 697.293 235.344 699.306C238.362 677.817 241.687 656.127 243.76 634.559C244.268 629.309 245.151 623.596 242.71 618.95C240.269 614.304 225.3 583.75 222.675 579.122" fill="#878787"/>
<path d="M132.734 690.425C144.589 693.864 157.879 697.889 169.349 701.003C184.319 658.883 194.468 617.795 209.595 577.809C200.496 574.239 188.991 571.685 179.664 568.587C163.4 608.923 147.975 650.921 132.734 690.425Z" fill="#878787"/>
<path d="M182.893 639.161C177.81 642.441 172.345 645.086 166.619 647.036" stroke="#757575" stroke-width="1.66" stroke-linecap="round" stroke-linejoin="round"/>
<path d="M169.813 650.194L164.038 652.294" stroke="#757575" stroke-width="1.66" stroke-linecap="round" stroke-linejoin="round"/>
<path d="M202.771 598.843C201.196 602.763 199.682 606.715 198.23 610.699" stroke="#757575" stroke-width="1.66" stroke-linecap="round" stroke-linejoin="round"/>
<path d="M184.179 585.981C182.617 588.275 180.861 590.429 178.929 592.421C177.002 594.415 174.59 595.874 171.93 596.656" stroke="#757575" stroke-width="1.66" stroke-linecap="round" stroke-linejoin="round"/>
<path d="M284.067 472.298C284.919 468.909 285.773 465.523 286.631 462.14C287.455 459.305 287.963 456.389 288.144 453.443C288.201 452.867 288.101 452.286 287.856 451.763C287.728 451.504 287.514 451.298 287.25 451.179C286.987 451.061 286.691 451.038 286.412 451.115C286.022 451.314 285.713 451.641 285.537 452.043C285.152 452.76 284.767 453.469 284.374 454.177C284.752 452.72 285.01 451.233 285.144 449.733C285.248 449.085 285.181 448.422 284.951 447.808C284.832 447.501 284.609 447.245 284.322 447.086C284.034 446.926 283.7 446.872 283.376 446.933C283.018 447.093 282.714 447.355 282.501 447.685C281.713 448.706 281.039 449.809 280.489 450.975C280.297 449.776 280.883 448.613 281.093 447.423C281.303 446.233 280.821 444.684 279.623 444.535C278.424 444.387 277.689 445.568 277.191 446.592C276.543 447.939 275.96 449.31 275.441 450.704C275.78 449.391 275.889 448.029 275.764 446.679C275.778 446.407 275.723 446.136 275.604 445.891C275.484 445.646 275.305 445.436 275.082 445.279C274.303 444.912 273.542 445.795 273.166 446.557C271.623 449.725 270.677 453.151 270.375 456.662C270.415 455.624 270.195 454.593 269.736 453.661C269.616 453.352 269.402 453.089 269.124 452.909C268.354 452.489 267.488 453.311 267.094 454.099C265.344 457.599 266.219 461.807 267.094 465.631C270.139 467.643 273.358 469.481 276.482 471.379C277.349 471.976 278.306 472.431 279.317 472.727C280.91 473.007 282.55 472.859 284.067 472.298V472.298Z" fill="#EFC1AB"/>
<path d="M290.787 470.093C287.541 480.741 284.032 491.512 277.707 500.664C272.556 507.957 266.055 514.194 258.555 519.038C250.795 524.201 241.731 527.919 232.308 528.357C229.296 528.629 226.26 528.332 223.357 527.482C222.106 527.122 220.906 526.601 219.788 525.933C218.729 525.146 218.598 523.396 218.458 522.188C217.968 517.784 217.603 513.371 217.364 508.95C219.114 508.215 221.503 508.443 223.366 508.163C229.675 507.228 235.716 504.971 241.092 501.539C244.085 499.616 246.847 497.355 249.325 494.802C252.041 492.01 254.355 488.853 256.202 485.422C259.596 479.018 261.407 471.476 262.063 464.275L290.787 470.093Z" fill="#9C9C9C"/>
<path d="M273.726 454.624C277.096 456.442 280.263 458.612 283.175 461.098" stroke="#463030" stroke-width="1.31" stroke-linecap="round" stroke-linejoin="round"/>
<path d="M153.224 455.77V445.27C153.13 442.32 153.361 439.368 153.916 436.468C154.006 435.896 154.247 435.358 154.615 434.911C154.807 434.694 155.069 434.551 155.356 434.508C155.642 434.465 155.934 434.524 156.182 434.675C156.5 434.965 156.705 435.359 156.759 435.786L157.363 438.14C157.363 436.626 157.492 435.116 157.748 433.625C157.805 432.971 158.031 432.344 158.404 431.805C158.602 431.543 158.884 431.357 159.202 431.279C159.521 431.201 159.857 431.235 160.154 431.376C160.474 431.616 160.712 431.949 160.836 432.33C161.354 433.51 161.736 434.746 161.973 436.013C162.455 434.902 162.175 433.625 162.271 432.426C162.367 431.227 163.181 429.862 164.406 430.011C165.631 430.16 166.024 431.49 166.243 432.636C166.541 434.106 166.768 435.585 166.934 437.063C166.935 435.707 167.169 434.36 167.625 433.082C167.809 432.566 168.098 431.997 168.64 431.892C169.515 431.735 169.996 432.767 170.171 433.642C170.886 437.1 170.951 440.66 170.364 444.142C170.59 443.129 171.058 442.186 171.729 441.394C171.923 441.127 172.195 440.925 172.507 440.817C173.382 440.607 173.995 441.613 174.178 442.471C175.053 446.312 173.129 450.161 171.291 453.635C167.844 454.834 164.292 455.814 160.792 456.881C159.803 457.238 158.764 457.439 157.713 457.476C156.09 457.323 154.539 456.733 153.224 455.77Z" fill="#EFC1AB"/>
<path d="M147.258 451.999C147.765 463.12 148.482 474.415 152.341 484.862C155.522 493.199 160.274 500.848 166.339 507.393C172.569 514.296 180.425 520.141 189.428 522.871C192.275 523.89 195.287 524.368 198.309 524.279C199.611 524.246 200.903 524.037 202.149 523.658C203.374 523.159 203.899 521.506 204.363 520.368C205.932 516.233 207.39 512.047 208.738 507.813C207.241 506.666 204.862 506.29 203.121 505.564C197.229 503.102 191.923 499.426 187.547 494.776C185.13 492.17 183.02 489.296 181.257 486.21C179.302 482.832 177.83 479.198 176.882 475.413C175.132 468.369 175.298 460.609 176.453 453.478L147.258 451.999Z" fill="#9C9C9C"/>
<path d="M167.617 441.228C163.905 442.154 160.301 443.468 156.864 445.148" stroke="#463030" stroke-width="1.31" stroke-linecap="round" stroke-linejoin="round"/>
<path d="M214.801 544.657C210.376 532.105 206.609 519.331 203.514 506.386C204.373 506.033 205.249 505.723 206.139 505.459C208.613 504.643 211.262 504.52 213.801 505.103C216.34 505.686 218.67 506.953 220.54 508.766C219.72 520.879 217.799 532.892 214.801 544.657V544.657Z" fill="white"/>
<path d="M179.979 531.06C185.535 521.768 192.972 510.744 203.514 506.386C206.609 519.331 210.376 532.105 214.801 544.657C217.8 532.898 219.724 520.891 220.549 508.784C223.943 511.855 226.507 516.3 228.493 520.692C231.732 528 233.96 535.715 235.116 543.624C236.294 551.643 236.695 559.756 236.315 567.852C236 575.849 234.355 583.654 233.786 591.598C233.69 592.902 203.759 587.486 200.741 586.961C187.676 584.68 174.639 582.274 161.632 579.743C165.998 563.775 171.099 545.899 179.979 531.06Z" fill="#9C9C9C"/>
<path d="M212.631 513.185C214.165 513.22 215.651 512.646 216.762 511.588C217.874 510.53 218.522 509.075 218.563 507.541L218.694 502.291L207.128 501.994L206.996 507.244C206.976 508.004 207.105 508.761 207.377 509.471C207.649 510.181 208.058 510.831 208.581 511.383C209.105 511.935 209.732 512.378 210.427 512.687C211.122 512.996 211.871 513.165 212.631 513.185V513.185Z" fill="#EFC1AB"/>
<path d="M210.846 556.565C210.835 556.866 210.91 557.164 211.063 557.424C211.216 557.683 211.44 557.893 211.709 558.029C211.978 558.165 212.28 558.221 212.579 558.191C212.879 558.16 213.164 558.045 213.399 557.857C213.635 557.67 213.812 557.419 213.91 557.134C214.007 556.849 214.021 556.542 213.949 556.249C213.878 555.957 213.724 555.691 213.505 555.483C213.287 555.276 213.014 555.135 212.718 555.078C212.273 555.028 211.827 555.157 211.476 555.436C211.125 555.714 210.899 556.12 210.846 556.565V556.565Z" stroke="#757575" stroke-width="1.31" stroke-linecap="round" stroke-linejoin="round"/>
<path d="M209.446 568.185C209.435 568.486 209.51 568.784 209.663 569.043C209.816 569.303 210.04 569.513 210.309 569.649C210.578 569.785 210.88 569.841 211.179 569.811C211.479 569.78 211.764 569.664 211.999 569.477C212.235 569.29 212.412 569.038 212.51 568.753C212.607 568.468 212.621 568.161 212.55 567.869C212.478 567.576 212.324 567.31 212.106 567.103C211.887 566.895 211.614 566.754 211.318 566.697C210.873 566.648 210.427 566.777 210.076 567.055C209.725 567.334 209.499 567.74 209.446 568.185Z" stroke="#757575" stroke-width="1.31" stroke-linecap="round" stroke-linejoin="round"/>
<path d="M222.622 513.946C221.045 526.481 218.574 538.887 215.229 551.071" stroke="#757575" stroke-width="1.31" stroke-linecap="round" stroke-linejoin="round"/>
<path d="M213.261 548.673C207.74 538.978 203.908 522.424 201.38 509.799" stroke="#757575" stroke-width="1.31" stroke-linecap="round" stroke-linejoin="round"/>
<path d="M191.257 561.955C190.697 564.973 190.172 568.648 188.632 571.168C187.538 572.918 185.132 574.668 182.928 574.388C180.723 574.108 177.818 573.329 176.173 571.973C174.292 570.407 174.073 568.657 174.021 566.461C174.021 565.787 174.73 558.954 175.272 559.006C180.644 559.557 186.147 560.179 191.458 561.141L191.257 561.955Z" stroke="#757575" stroke-width="1.65" stroke-linecap="round" stroke-linejoin="round"/>
<path d="M234.486 567.773C231.914 567.511 229.175 567.1 226.516 566.898C226.139 569.882 225.772 572.944 226.428 575.884C227.084 578.824 229.377 580.793 232.229 581.738" stroke="#757575" stroke-width="1.65" stroke-linecap="round" stroke-linejoin="round"/>
<path d="M226.673 481.538C227.776 484.626 227.286 488.065 226.236 491.162C223.707 486.892 219.665 483.786 215.956 480.496C215.806 480.388 215.701 480.23 215.658 480.05C215.653 479.894 215.699 479.74 215.789 479.613C216.997 477.521 218.991 475.675 221.476 476.402C222.679 476.8 223.774 477.471 224.676 478.361C225.577 479.252 226.261 480.339 226.673 481.538V481.538Z" fill="#685542"/>
<path d="M197.521 490.541C197.489 491.036 197.605 491.53 197.854 491.959C198.103 492.389 198.474 492.734 198.92 492.952C199.366 493.17 199.867 493.25 200.359 493.183C200.85 493.115 201.311 492.903 201.682 492.573C202.052 492.243 202.317 491.81 202.441 491.329C202.565 490.849 202.543 490.342 202.379 489.874C202.214 489.405 201.914 488.997 201.516 488.699C201.119 488.402 200.642 488.23 200.146 488.205C199.489 488.169 198.844 488.394 198.352 488.832C197.86 489.269 197.562 489.884 197.521 490.541Z" fill="#EFC1AB"/>
<path d="M224.049 492.247C224.016 492.742 224.132 493.236 224.381 493.665C224.63 494.095 225.001 494.44 225.447 494.658C225.893 494.876 226.394 494.957 226.886 494.889C227.378 494.821 227.838 494.609 228.209 494.279C228.58 493.949 228.844 493.516 228.968 493.036C229.092 492.555 229.071 492.048 228.906 491.58C228.741 491.112 228.441 490.703 228.044 490.406C227.646 490.108 227.169 489.936 226.673 489.911C226.017 489.877 225.373 490.103 224.882 490.541C224.391 490.978 224.091 491.591 224.049 492.247V492.247Z" fill="#EFC1AB"/>
<path d="M226.288 489.456C225.535 486.132 223.55 483.216 220.733 481.296C217.917 479.376 214.478 478.594 211.108 479.108C207.739 479.621 204.688 481.392 202.572 484.064C200.455 486.736 199.429 490.111 199.7 493.509C199.971 496.907 201.519 500.076 204.032 502.379C206.545 504.681 209.837 505.947 213.246 505.92C216.654 505.893 219.926 504.576 222.403 502.234C224.879 499.892 226.377 496.699 226.595 493.297C226.676 492.009 226.573 490.715 226.288 489.456V489.456Z" fill="#EFC1AB"/>
<path d="M200.47 489.08C204.393 488.8 208.182 487.533 211.485 485.396C213.795 483.948 215.997 482.334 218.073 480.566C218.782 479.989 220.75 478.869 221.074 478.046C221.398 477.224 220.61 476.375 220.059 475.763C217.548 472.963 213.278 472.7 209.858 473.593C204.459 474.993 200.137 480.4 199.63 486.376C199.542 487.321 199.726 488.572 200.47 489.08Z" fill="#685542"/>
<path d="M220.47 486.997C219.746 486.754 218.986 486.636 218.222 486.647" stroke="#463030" stroke-width="1.32" stroke-linecap="round" stroke-linejoin="round"/>
<path d="M213.182 486.271C212.486 486.148 211.772 486.166 211.082 486.323" stroke="#463030" stroke-width="1.32" stroke-linecap="round" stroke-linejoin="round"/>
<path d="M214.486 490.497C214.449 490.976 214.272 491.433 213.977 491.811C213.681 492.19 213.281 492.473 212.826 492.625C212.37 492.777 211.88 492.792 211.416 492.667C210.953 492.542 210.537 492.283 210.219 491.923C209.902 491.562 209.698 491.116 209.633 490.641C209.568 490.165 209.645 489.681 209.854 489.248C210.063 488.816 210.394 488.455 210.807 488.21C211.22 487.965 211.696 487.848 212.176 487.872C212.501 487.89 212.819 487.972 213.112 488.114C213.405 488.256 213.666 488.455 213.882 488.7C214.097 488.944 214.261 489.229 214.364 489.538C214.468 489.846 214.509 490.172 214.486 490.497V490.497Z" stroke="white" stroke-width="1.54" stroke-miterlimit="10"/>
<path d="M221.669 490.934C221.631 491.415 221.453 491.873 221.156 492.252C220.859 492.631 220.456 492.913 219.999 493.064C219.542 493.215 219.05 493.227 218.586 493.099C218.122 492.971 217.706 492.708 217.39 492.344C217.075 491.98 216.874 491.531 216.814 491.054C216.753 490.576 216.835 490.091 217.049 489.66C217.263 489.229 217.6 488.87 218.017 488.63C218.434 488.39 218.914 488.278 219.394 488.31C219.717 488.33 220.032 488.414 220.322 488.557C220.612 488.7 220.871 488.9 221.083 489.144C221.294 489.389 221.455 489.673 221.556 489.98C221.657 490.288 221.695 490.612 221.669 490.934V490.934Z" stroke="white" stroke-width="1.54" stroke-miterlimit="10"/>
<path d="M217.924 490.497C217.913 490.618 217.928 490.741 217.967 490.856C218.006 490.972 218.069 491.077 218.151 491.167C218.233 491.257 218.333 491.329 218.445 491.377C218.557 491.426 218.677 491.451 218.799 491.451C218.921 491.463 219.044 491.449 219.161 491.411C219.277 491.373 219.384 491.31 219.475 491.228C219.566 491.145 219.638 491.044 219.688 490.932C219.737 490.82 219.762 490.698 219.762 490.576C219.772 490.454 219.758 490.332 219.719 490.217C219.68 490.101 219.617 489.995 219.535 489.906C219.452 489.816 219.352 489.744 219.241 489.695C219.129 489.647 219.008 489.622 218.887 489.622C218.765 489.61 218.641 489.623 218.525 489.662C218.408 489.7 218.301 489.763 218.211 489.845C218.12 489.928 218.047 490.028 217.998 490.141C217.949 490.253 217.924 490.374 217.924 490.497Z" fill="#463030"/>
<path d="M211.738 490.068C211.739 490.237 211.789 490.403 211.882 490.544C211.975 490.685 212.107 490.797 212.261 490.865C212.416 490.933 212.587 490.955 212.754 490.927C212.921 490.9 213.077 490.825 213.202 490.711C213.327 490.598 213.416 490.45 213.459 490.286C213.502 490.123 213.497 489.95 213.444 489.79C213.391 489.629 213.293 489.487 213.161 489.381C213.029 489.276 212.869 489.21 212.701 489.193C212.579 489.181 212.456 489.195 212.339 489.233C212.223 489.272 212.116 489.334 212.025 489.417C211.934 489.499 211.862 489.6 211.812 489.712C211.763 489.824 211.738 489.946 211.738 490.068Z" fill="#463030"/>
<path d="M214.748 489.526C215.398 489.43 216.058 489.43 216.708 489.526" stroke="white" stroke-width="1.54" stroke-miterlimit="10"/>
<path d="M215.912 490.821C217.067 491.565 216.848 493.174 216.787 493.918L214.818 493.804" stroke="#463030" stroke-width="1.32" stroke-linecap="round" stroke-linejoin="round"/>
<path d="M212.421 495.747C213.185 496.46 214.157 496.909 215.195 497.027C216.234 497.145 217.282 496.926 218.187 496.403" stroke="#463030" stroke-width="1.32" stroke-linecap="round" stroke-linejoin="round"/>
<path d="M210.242 626.99C211.852 630.228 213.392 633.509 214.836 636.825" stroke="#E7E7E7" stroke-width="1.8" stroke-linecap="round" stroke-linejoin="round"/>
<path d="M271.425 457.494C272.803 459.051 273.872 460.856 274.574 462.813" stroke="#463030" stroke-width="1.31" stroke-linecap="round" stroke-linejoin="round"/>
<path d="M275.686 450.713C275.376 451.969 275.189 453.252 275.126 454.545" stroke="#463030" stroke-width="1.31" stroke-linecap="round" stroke-linejoin="round"/>
<path d="M280.244 450.372C279.847 452.454 279.457 454.542 279.072 456.636" stroke="#463030" stroke-width="1.31" stroke-linecap="round" stroke-linejoin="round"/>
<path d="M284.47 453.32C284.266 455.486 283.868 457.63 283.28 459.725" stroke="#463030" stroke-width="1.31" stroke-linecap="round" stroke-linejoin="round"/>
<path d="M169.953 444.361C167.781 445.649 165.91 447.389 164.467 449.462" stroke="#463030" stroke-width="1.31" stroke-linecap="round" stroke-linejoin="round"/>
<path d="M167.022 435.69C166.943 437.125 166.926 438.568 167.022 440.003" stroke="#463030" stroke-width="1.31" stroke-linecap="round" stroke-linejoin="round"/>
<path d="M162.044 434.832V440.747" stroke="#463030" stroke-width="1.31" stroke-linecap="round" stroke-linejoin="round"/>
<path d="M157.205 437.177C157.205 439.19 157.275 441.202 157.415 443.214" stroke="#463030" stroke-width="1.31" stroke-linecap="round" stroke-linejoin="round"/>
<path d="M131.435 699.223C128.467 696.151 125.083 694.23 121.54 691.962C119.397 690.575 119.536 690.61 119.231 687.802C118.94 685.125 118.683 682.448 118.413 679.771L115.355 649.647L101.125 648.51C101.172 662.703 101.218 676.898 101.264 691.096C101.225 691.78 101.322 692.466 101.548 693.114C101.907 693.804 102.422 694.4 103.053 694.854C108.316 699.23 115.091 704.341 122.303 703.994C124.632 703.835 126.925 703.331 129.105 702.496C129.398 702.412 129.669 702.263 129.896 702.059C130.097 701.807 130.25 701.521 130.346 701.213C130.603 700.497 130.97 699.825 131.435 699.223V699.223Z" fill="#EFC1AB"/>
<path d="M29.0581 691.685C29.3008 687.42 28.4132 683.634 27.6712 679.494C27.2274 676.991 27.3037 677.102 29.1552 674.98C31.0066 672.858 32.7124 670.944 34.4945 668.926C41.1791 661.367 47.8614 653.804 54.5414 646.236L45.7211 635.015C35.3243 644.682 24.923 654.351 14.517 664.023C13.982 664.454 13.5408 664.989 13.2203 665.597C12.954 666.329 12.8661 667.113 12.9637 667.885C13.3243 674.723 14.1633 683.142 19.3155 688.225C21.0121 689.828 22.9378 691.169 25.0293 692.205C25.291 692.363 25.5848 692.46 25.8891 692.49C26.2122 692.468 26.5279 692.383 26.8183 692.24C27.5319 691.941 28.2874 691.754 29.0581 691.685V691.685Z" fill="#EFC1AB"/>
<path d="M4.19866 679.543C5.48149 678.814 8.78912 676.658 10.0858 675.95C9.36929 678.151 8.75677 680.379 8.24826 682.635C8.14283 682.976 8.11208 683.336 8.15811 683.689C8.26103 684.061 8.44585 684.404 8.69898 684.695C12.2285 689.32 16.1533 693.634 20.1197 697.912C21.4025 699.299 23.2678 700.79 25.1193 699.91C28.0386 698.523 29.5086 694.237 29.2798 691.248C29.2929 691.002 29.2247 690.758 29.0857 690.555C28.9021 690.387 28.677 690.272 28.4338 690.222C26.4575 689.547 24.7379 688.278 23.5105 686.588C22.2223 684.89 21.1724 683.023 20.3901 681.04C19.0033 677.679 17.7435 674.275 16.611 670.826C15.6986 668.459 15.1741 665.96 15.0577 663.427C12.7694 664.813 10.9387 666.616 8.94168 668.329C6.23039 670.659 3.53297 673.003 0.793945 675.306L4.19866 679.543Z" fill="#4D8C80"/>
<path d="M90.5163 688.551C102.235 689.092 115.424 689.847 126.685 690.159C125.298 647.643 120.001 607.166 119.467 566.598C110.14 565.322 98.8582 567.07 89.4969 566.272C89.1433 607.416 88.7966 652.983 90.5163 688.551Z" fill="#C69C6D"/>
<path d="M32.6637 678.156L83.8731 628.379C89.9683 608.456 95.058 586.771 100.515 565.329C91.5424 562.916 78.3257 560.475 69.1586 558.506C63.8192 577.735 58.3828 597.145 52.6135 616.5L8.33142 650.369L32.6637 678.156Z" fill="#C69C6D"/>
<path d="M94.1844 588.768C92.3122 596.736 90.1972 607.755 88.0892 614.78" stroke="#92693B" stroke-width="1.91" stroke-linecap="round" stroke-linejoin="round"/>
<path d="M94.3231 574.525C93.7545 578.2 93.4702 581.404 92.9016 585.079C94.338 585.239 95.784 585.297 97.2286 585.253C97.7972 581.868 98.4629 578.755 98.9344 575.1" stroke="#92693B" stroke-width="1.91" stroke-linecap="round" stroke-linejoin="round"/>
<path d="M72.383 573.186C70.3755 576.434 67.9896 579.433 65.2754 582.118" stroke="#92693B" stroke-width="1.91" stroke-linecap="round" stroke-linejoin="round"/>
<path d="M73.4647 631.874L62.9385 633.143" stroke="#92693B" stroke-width="1.91" stroke-linecap="round" stroke-linejoin="round"/>
<path d="M120.847 638.406C118.302 642.85 115.481 647.13 112.401 651.222" stroke="#92693B" stroke-width="1.91" stroke-linecap="round" stroke-linejoin="round"/>
<path d="M116.749 651.374L112.068 657.234" stroke="#92693B" stroke-width="1.91" stroke-linecap="round" stroke-linejoin="round"/>
<path d="M179.476 443.335C179.7 443.256 179.933 443.203 180.169 443.176C180.863 443.072 181.507 442.996 182.18 442.954C182.638 442.954 183.192 442.954 183.394 443.363C186.008 440.735 188.886 438.155 191.604 435.576C192.297 434.882 193.212 434.237 194.121 434.542C195.029 434.847 195.376 436.158 195.154 437.164C194.808 438.411 194.182 439.564 193.323 440.534C192.378 441.749 191.362 442.907 190.279 444.001C190.64 443.654 191.93 444.237 192.242 444.507C192.548 444.791 192.774 445.151 192.896 445.551C193.018 445.951 193.031 446.375 192.935 446.782C192.7 447.646 192.292 448.452 191.735 449.154C191.987 448.89 192.292 448.685 192.631 448.553C192.97 448.42 193.334 448.364 193.697 448.387C194.061 448.41 194.414 448.513 194.733 448.688C195.053 448.863 195.33 449.106 195.545 449.399C195.76 449.693 195.908 450.03 195.979 450.387C196.05 450.744 196.042 451.112 195.955 451.465C195.868 451.819 195.705 452.149 195.476 452.432C195.248 452.716 194.961 452.946 194.634 453.106C196.021 452.413 197.761 452.794 198.254 454.493C198.387 455.073 198.382 455.676 198.239 456.253C198.095 456.83 197.818 457.365 197.428 457.815C196.649 458.709 195.708 459.448 194.655 459.992C193.587 460.617 192.484 461.185 191.361 461.712C190.547 462.134 189.668 462.418 188.761 462.551C186.403 462.78 184.697 461.567 183.026 460.124C181.284 458.66 179.77 456.944 178.533 455.034C176.12 451.241 175.891 448.037 178.456 444.383C178.695 443.98 179.028 443.642 179.427 443.398L179.476 443.335Z" fill="#EFC1AB"/>
<path d="M186.209 447.954C187.554 446.858 187.928 446.283 189.288 445.069" stroke="#463030" stroke-width="1.7" stroke-linecap="round" stroke-linejoin="round"/>
<path d="M192.228 448.883C191.097 449.944 189.801 450.963 188.608 451.934C187.609 452.76 185.453 453.592 185.141 451.629" stroke="#463030" stroke-width="1.7" stroke-linecap="round" stroke-linejoin="round"/>
<path d="M187.069 461.095C185.571 462.274 184.621 463.078 183.366 463.98C180.634 459.819 178.013 455.617 174.989 451.331C176.286 450.346 176.709 450.083 178.137 448.98C180.37 451.123 181.75 453.724 183.421 456.338C184.406 457.898 185.619 459.979 187.069 461.095Z" fill="#EFC1AB"/>
<path d="M183.948 444.868C184.684 445.653 185.305 446.538 185.793 447.496C186 447.85 186.123 448.246 186.153 448.654C186.165 448.858 186.121 449.062 186.024 449.242C185.927 449.422 185.782 449.571 185.606 449.674C185.222 449.805 184.801 449.783 184.434 449.611C183.706 449.356 183.008 449.021 182.353 448.613C182.264 448.539 182.15 448.502 182.034 448.509C181.935 448.532 181.847 448.588 181.785 448.668C181.414 449.044 181.078 449.453 180.779 449.889" stroke="#463030" stroke-width="1.7" stroke-linecap="round" stroke-linejoin="round"/>
<path d="M111.672 490.969C110.286 491.587 108.843 492.218 107.443 492.883C104.6 494.27 101.327 494.964 98.1715 495.775L96.4865 496.219L105.335 531.176C109.003 517.994 110.126 504.541 111.672 490.969Z" fill="white"/>
<path d="M125.792 582.534C127.179 577.222 127.331 571.57 127.837 566.127C128.383 560.274 128.704 554.423 128.801 548.575C128.898 542.727 128.737 536.872 128.316 531.01C128.219 529.533 126.277 514.034 126.478 513.964L126.763 513.867C130.035 512.738 133.231 511.399 136.332 509.859C139.203 508.431 142.247 507.612 145.222 506.392C151.108 503.912 156.799 500.992 162.245 497.654C165.088 495.927 194.587 475.956 193.796 474.77C187.049 464.736 180.76 455.45 174.602 447.087C174.761 447.302 170.545 451.567 170.143 451.997C158.389 464.534 144.718 475.123 129.64 483.369C123.94 486.441 117.894 488.715 112 491.274C110.453 504.845 109.33 518.319 105.662 531.495L96.8137 496.538C96.2589 496.69 95.7181 496.85 95.1841 497.016C85.0439 500.115 75.5598 505.051 67.2044 511.579C63.8899 514.159 60.5684 516.898 58.4326 520.518C56.2012 524.317 55.4382 528.802 56.2878 533.126C57.1374 537.449 59.5407 541.312 63.0439 543.984C63.1271 544.047 60.4158 551.758 60.2286 552.403C59.8472 553.714 55.7283 568.602 55.5133 568.554L125.792 582.534Z" fill="#F4766E"/>
<path d="M104.461 501.69C105.139 501.662 105.804 501.5 106.419 501.214C107.034 500.928 107.587 500.523 108.046 500.024C108.504 499.524 108.86 498.938 109.092 498.301C109.324 497.664 109.428 496.987 109.398 496.309L109.197 491.614L98.879 492.065L99.0801 496.76C99.1095 497.437 99.2721 498.102 99.5584 498.716C99.8448 499.33 100.249 499.882 100.749 500.34C101.249 500.798 101.834 501.153 102.471 501.384C103.108 501.616 103.784 501.72 104.461 501.69Z" fill="#EFC1AB"/>
<path d="M104.96 487.024C103.544 487.142 102.123 487.182 100.703 487.142C98.4489 487.142 96.0566 486.961 94.2398 485.63C91.9168 483.924 90.6479 480.88 90.4745 478.064C90.4045 476.669 90.6216 475.274 91.1125 473.966C91.5518 472.436 92.4438 471.075 93.6712 470.062C92.6091 469.297 91.7614 468.273 91.2095 467.087C90.7732 466.26 90.528 465.346 90.492 464.413C90.456 463.479 90.6301 462.549 91.0015 461.691C91.2026 461.178 92.9223 457.794 93.7752 458.113C93.0935 457.854 92.457 457.489 91.8891 457.031C91.4744 456.706 91.116 456.315 90.8282 455.873C89.2888 453.398 90.3705 449.722 92.0555 447.552C92.8548 446.496 93.9018 445.654 95.1039 445.098C96.306 444.543 97.6263 444.293 98.9482 444.369C100.235 444.536 101.463 445.011 102.527 445.753C103.592 446.495 104.462 447.483 105.064 448.632C105.666 449.782 105.982 451.06 105.986 452.358C105.99 453.656 105.681 454.935 105.085 456.088C106.217 456.408 107.252 457.003 108.099 457.82C108.946 458.636 109.578 459.65 109.939 460.769C110.315 461.951 110.392 463.208 110.165 464.428C109.937 465.648 109.412 466.792 108.635 467.759C110.445 468.009 112.29 470.734 113.108 472.204C115.251 476.018 115.882 481.781 111.943 484.687C109.868 486.081 107.456 486.888 104.96 487.024V487.024Z" fill="#564434"/>
<path d="M105.328 473.556C104.507 474.437 103.641 475.275 102.734 476.067C99.7223 478.573 96.1209 480.27 92.2705 480.997C91.9031 482.61 91.8841 484.282 92.2147 485.902C92.5453 487.523 93.2179 489.054 94.1875 490.394C95.1571 491.734 96.4015 492.851 97.8375 493.671C99.2734 494.491 100.868 494.996 102.514 495.151C104.161 495.305 105.821 495.107 107.385 494.569C108.949 494.03 110.379 493.164 111.582 492.029C112.784 490.893 113.73 489.514 114.357 487.984C114.984 486.453 115.276 484.807 115.216 483.154C115.174 482.044 114.971 480.946 114.613 479.895C111.139 478.626 108.143 476.046 105.328 473.556Z" fill="#EFC1AB"/>
<path d="M102.734 476.067C103.641 475.275 104.507 474.437 105.328 473.556C108.143 476.046 111.153 478.626 114.613 479.895C113.806 477.495 112.237 475.424 110.145 473.998C108.054 472.571 105.553 471.867 103.025 471.991C100.496 472.116 98.077 473.063 96.1359 474.689C94.1948 476.315 92.8375 478.53 92.2706 480.997C96.121 480.27 99.7224 478.573 102.734 476.067V476.067Z" fill="#564434"/>
<path d="M89.2333 483.078C89.25 483.504 89.3925 483.915 89.6427 484.26C89.893 484.605 90.2397 484.868 90.6393 485.016C91.0389 485.164 91.4734 485.19 91.8879 485.091C92.3024 484.993 92.6784 484.773 92.9684 484.461C93.2583 484.149 93.4493 483.758 93.5172 483.337C93.5851 482.916 93.5269 482.485 93.3498 482.097C93.1728 481.71 92.8849 481.383 92.5225 481.159C92.1601 480.935 91.7395 480.823 91.3136 480.838C90.7409 480.86 90.2002 481.108 89.8102 481.528C89.4202 481.948 89.2127 482.505 89.2333 483.078V483.078Z" fill="#EFC1AB"/>
<path d="M112.415 482.017C112.431 482.443 112.574 482.854 112.824 483.199C113.074 483.544 113.421 483.807 113.821 483.955C114.22 484.103 114.655 484.129 115.069 484.03C115.484 483.932 115.86 483.712 116.15 483.4C116.44 483.088 116.631 482.697 116.699 482.276C116.766 481.855 116.708 481.424 116.531 481.036C116.354 480.649 116.066 480.322 115.704 480.098C115.341 479.874 114.921 479.762 114.495 479.777C114.211 479.787 113.932 479.853 113.674 479.971C113.415 480.089 113.183 480.256 112.989 480.465C112.796 480.673 112.646 480.917 112.547 481.183C112.449 481.45 112.403 481.733 112.415 482.017V482.017Z" fill="#EFC1AB"/>
<path d="M108.427 481.24C108.435 481.435 108.519 481.619 108.662 481.752C108.733 481.817 108.816 481.868 108.907 481.902C108.997 481.936 109.094 481.951 109.19 481.947C109.287 481.944 109.382 481.921 109.469 481.881C109.557 481.84 109.636 481.783 109.702 481.712C109.767 481.642 109.819 481.559 109.852 481.468C109.886 481.377 109.901 481.281 109.897 481.185C109.885 480.993 109.798 480.813 109.656 480.684C109.514 480.554 109.327 480.485 109.135 480.491C108.942 480.498 108.76 480.581 108.628 480.721C108.496 480.861 108.424 481.047 108.427 481.24V481.24Z" fill="#463030"/>
<path d="M103.379 481.434C103.385 481.58 103.434 481.721 103.52 481.839C103.606 481.957 103.725 482.046 103.862 482.096C103.999 482.146 104.148 482.154 104.29 482.119C104.432 482.084 104.56 482.008 104.658 481.9C104.756 481.792 104.82 481.657 104.841 481.513C104.862 481.369 104.84 481.221 104.777 481.089C104.715 480.958 104.614 480.848 104.489 480.773C104.363 480.699 104.218 480.663 104.073 480.672C103.88 480.682 103.7 480.768 103.57 480.911C103.44 481.054 103.372 481.242 103.379 481.434V481.434Z" fill="#463030"/>
<path d="M106.784 481.559C107.775 482.058 107.734 483.383 107.775 483.993L106.167 484.062" stroke="#463030" stroke-width="1.35" stroke-linecap="round" stroke-linejoin="round"/>
<path d="M105.127 486.725C105.127 487.772 105.543 489.354 106.971 489.104C107.222 489.05 107.458 488.941 107.661 488.784C107.864 488.626 108.029 488.425 108.143 488.195C108.364 487.732 108.473 487.224 108.462 486.711" stroke="#463030" stroke-width="1.35" stroke-linecap="round" stroke-linejoin="round"/>
<path d="M110.092 479.312C109.482 479.176 108.854 479.143 108.233 479.215" stroke="#463030" stroke-width="1.35" stroke-linecap="round" stroke-linejoin="round"/>
<path d="M104.662 479.444C104.087 479.397 103.509 479.47 102.963 479.659" stroke="#463030" stroke-width="1.35" stroke-linecap="round" stroke-linejoin="round"/>
<path d="M93.9834 499.208L91.0156 503.16C90.9026 503.255 90.8154 503.377 90.7621 503.514C90.7087 503.651 90.6908 503.8 90.7102 503.946C90.7296 504.091 90.7855 504.23 90.8728 504.349C90.9602 504.467 91.0761 504.562 91.2097 504.624L95.0166 508.042C93.4265 509.309 91.9402 510.7 90.5718 512.203L101.299 528.097" stroke="#463030" stroke-width="1.35" stroke-linecap="round" stroke-linejoin="round"/>
<path d="M113.476 495.477C115.143 497.397 116.622 499.473 117.893 501.676C116.4 502.837 114.913 503.993 113.434 505.144C115.401 506.925 117.149 508.934 118.642 511.128C114.335 518.146 108.934 527.57 104.669 533.964" stroke="#463030" stroke-width="1.35" stroke-linecap="round" stroke-linejoin="round"/>
<path d="M100.03 573.332L62.9041 562.916L77.3203 511.531L95.1552 516.537L102.353 512.071L115.875 516.343L100.03 573.332Z" fill="#FCF27C"/>
<path d="M106.86 541.627C106.293 543.069 105.251 544.275 103.906 545.045C104.544 545.462 105.633 545.364 106.375 545.614C107.291 545.918 108.165 546.338 108.975 546.862C109.627 547.233 110.161 547.781 110.514 548.443C110.691 548.78 110.753 549.165 110.692 549.54C110.63 549.916 110.449 550.261 110.175 550.524C109.481 551.086 108.483 550.843 107.644 550.572C108.85 551.002 110.292 551.779 110.188 553.055C110.122 553.443 109.943 553.802 109.675 554.089C109.406 554.377 109.059 554.579 108.677 554.671C107.906 554.838 107.109 554.85 106.333 554.705C106.638 554.796 106.919 554.951 107.157 555.161C107.395 555.371 107.585 555.63 107.713 555.921C107.841 556.212 107.904 556.527 107.897 556.845C107.891 557.162 107.815 557.475 107.675 557.76C107.536 558.045 107.336 558.297 107.089 558.497C106.842 558.697 106.555 558.841 106.247 558.918C105.939 558.996 105.617 559.005 105.305 558.946C104.993 558.887 104.698 558.76 104.44 558.575C104.981 558.856 105.404 559.322 105.63 559.889C105.857 560.455 105.872 561.084 105.674 561.661C105.022 563.249 101.694 562.93 100.383 562.694C98.4753 562.362 96.7113 561.463 95.3214 560.114C94.7044 559.531 94.2353 558.809 93.9531 558.008C93.6709 557.208 93.5837 556.351 93.6988 555.51C93.9778 552.457 94.8818 549.495 96.3546 546.807C98.0119 543.922 100.661 542.265 103.289 540.344C103.882 539.827 104.598 539.473 105.369 539.318C105.745 539.257 106.13 539.335 106.452 539.538C106.773 539.741 107.01 540.055 107.117 540.42C107.13 540.698 107.088 540.977 106.992 541.238C106.978 541.384 106.909 541.502 106.86 541.627Z" fill="#EFC1AB"/>
<path d="M102.97 549.144C104.357 549.747 106.999 550.579 108.517 551.141" stroke="#463030" stroke-width="1.5" stroke-linecap="round" stroke-linejoin="round"/>
<path d="M101.174 552.902C102.97 553.52 104.946 554.393 106.721 555.017" stroke="#463030" stroke-width="1.5" stroke-linecap="round" stroke-linejoin="round"/>
<path d="M99.8149 557.341C101.514 558.096 103.774 558.728 105.244 559.379" stroke="#463030" stroke-width="1.5" stroke-linecap="round" stroke-linejoin="round"/>
<path d="M69.8383 551.217C76.7726 556.647 84.8995 560.232 92.9432 563.825L102.034 540.288C95.2246 537.515 88.8035 533.832 82.4795 530.074C80.0078 528.745 77.7267 527.089 75.6978 525.15C73.7562 523.125 72.3347 520.455 72.3971 517.654C72.3971 518.597 61.7946 523.715 60.4771 524.588C57.7797 526.357 55.7757 527.91 56.2125 531.37C57.1972 539.186 63.9234 546.578 69.8383 551.217Z" fill="#F4766E"/>
<path d="M14.274 648.531L35.3264 672.969" stroke="#92693B" stroke-width="1.91" stroke-linecap="round" stroke-linejoin="round"/>
<path d="M143.501 445.964C142.68 444.294 141.496 442.83 140.035 441.679C138.574 440.528 136.873 439.72 135.058 439.313C133.243 438.906 131.36 438.911 129.548 439.328C127.735 439.745 126.039 440.563 124.584 441.722C123.13 442.881 121.954 444.352 121.142 446.026C120.331 447.699 119.905 449.534 119.897 451.394C119.888 453.254 120.297 455.092 121.092 456.773C121.888 458.455 123.05 459.936 124.494 461.109L123.225 466.712L127.607 462.96C129.944 463.925 132.519 464.155 134.989 463.619C137.459 463.083 139.707 461.806 141.433 459.96C143.16 458.114 144.282 455.785 144.652 453.285C145.021 450.784 144.62 448.23 143.501 445.964V445.964Z" stroke="white" stroke-width="3.4" stroke-linecap="round" stroke-linejoin="round"/>
<path d="M126.789 453.571C127.705 453.571 128.447 452.829 128.447 451.913C128.447 450.998 127.705 450.256 126.789 450.256C125.874 450.256 125.132 450.998 125.132 451.913C125.132 452.829 125.874 453.571 126.789 453.571Z" fill="white"/>
<path d="M134.022 451.914C134.026 452.244 133.931 452.569 133.75 452.845C133.569 453.122 133.31 453.339 133.006 453.467C132.701 453.596 132.365 453.631 132.04 453.568C131.716 453.505 131.417 453.347 131.183 453.114C130.949 452.88 130.789 452.583 130.725 452.258C130.661 451.934 130.694 451.598 130.822 451.293C130.949 450.988 131.165 450.727 131.441 450.545C131.717 450.363 132.041 450.267 132.371 450.27C132.807 450.272 133.225 450.445 133.534 450.753C133.843 451.061 134.018 451.478 134.022 451.914V451.914Z" fill="white"/>
<path d="M139.604 451.914C139.607 452.242 139.512 452.564 139.331 452.838C139.151 453.112 138.893 453.327 138.59 453.455C138.288 453.582 137.954 453.617 137.632 453.555C137.309 453.492 137.013 453.335 136.78 453.104C136.546 452.873 136.387 452.578 136.322 452.256C136.257 451.934 136.289 451.6 136.414 451.296C136.539 450.993 136.752 450.733 137.024 450.55C137.297 450.368 137.618 450.27 137.947 450.27C138.384 450.27 138.803 450.443 139.114 450.751C139.424 451.058 139.6 451.476 139.604 451.914V451.914Z" fill="white"/>
<path d="M863.4 362.187C863.119 363.474 862.946 364.78 862.792 366.032C861.042 365.252 859.319 364.472 857.669 363.538C856.644 362.967 855.456 362.404 854.404 363.266C853.532 363.81 852.845 364.607 852.436 365.551C852.046 366.458 852.554 367.764 852.137 368.526C851.72 369.288 850.55 369.487 850.097 370.267C849.834 370.759 849.706 371.312 849.727 371.87C849.748 372.427 849.916 372.97 850.215 373.441C850.89 374.428 851.757 375.27 852.763 375.917C852.332 375.694 851.858 375.568 851.374 375.548C850.889 375.528 850.406 375.614 849.959 375.8C849.512 375.987 849.11 376.269 848.784 376.628C848.457 376.986 848.213 377.411 848.068 377.874C847.924 378.337 847.882 378.826 847.947 379.306C848.011 379.787 848.18 380.247 848.442 380.655C848.704 381.063 849.051 381.409 849.461 381.669C849.871 381.928 850.332 382.094 850.813 382.156C849.922 381.901 848.969 381.974 848.127 382.361C847.285 382.749 846.61 383.426 846.224 384.269C845.318 386.627 847.966 388.577 849.852 389.393C852.119 390.382 853.343 391.098 854.767 393.274L862.411 405.01C862.901 405.762 880.729 398.027 880.231 396.013C878.876 390.572 877.32 385.185 875.56 379.853C873.901 374.874 871.48 370.167 871.471 364.853C871.553 363.496 871.818 362.157 872.26 360.872C872.693 359.579 872.821 358.204 872.631 356.854C872.589 356.279 872.385 355.727 872.044 355.261C871.703 354.796 871.238 354.435 870.703 354.221C870.167 354.006 869.582 353.947 869.014 354.048C868.446 354.15 867.918 354.409 867.49 354.796C865.123 356.591 864.016 359.339 863.4 362.187Z" fill="#EFC1AB"/>
<path d="M854.068 369.768C856.299 370.675 857.025 371.283 859.192 372.072C860.434 372.525 862.012 373.559 863.245 373.087C863.635 372.928 863.977 372.67 864.237 372.34C864.498 372.009 864.669 371.617 864.733 371.201C864.791 370.784 864.752 370.358 864.619 369.958C864.485 369.559 864.26 369.195 863.962 368.897" stroke="#585858" stroke-width="1.74" stroke-linecap="round" stroke-linejoin="round"/>
<path d="M851.992 375.826C853.878 376.679 855.945 377.395 857.877 378.112C859.491 378.719 862.574 378.837 862.13 376.216" stroke="#585858" stroke-width="1.74" stroke-linecap="round" stroke-linejoin="round"/>
<path d="M849.054 382.229C851.484 383.136 854.105 384.877 856.816 384.741C857.313 384.739 857.798 384.586 858.205 384.3C858.612 384.015 858.922 383.612 859.092 383.145C859.2 382.41 859.08 381.66 858.748 380.995" stroke="#585858" stroke-width="1.74" stroke-linecap="round" stroke-linejoin="round"/>
<path d="M850.468 388.867C851.526 389.222 852.612 389.485 853.715 389.656C854.199 389.756 854.699 389.756 855.184 389.656C855.572 389.55 855.927 389.347 856.215 389.066C856.504 388.785 856.717 388.436 856.834 388.051C857.063 387.269 856.975 386.429 856.589 385.711" stroke="#585858" stroke-width="1.74" stroke-linecap="round" stroke-linejoin="round"/>
<path d="M941.877 473.443C903.092 472.237 863.499 435.499 845 404.964C857.049 398.132 869.016 391.18 880.901 384.106C886.524 390.626 892.164 397.455 897.796 403.976C905.477 412.89 913.348 421.896 922.842 428.942C932.872 436.379 942.584 439.036 954.581 442.101C954.787 442.112 954.989 442.165 955.174 442.256C955.359 442.346 955.524 442.473 955.659 442.629C955.795 442.784 955.897 442.965 955.962 443.161C956.026 443.357 956.05 443.564 956.032 443.77C957.175 452.213 957.937 460.719 958.318 469.235C958.44 469.984 958.281 470.753 957.873 471.393C957.38 471.866 956.74 472.157 956.06 472.218C951.398 473.196 946.636 473.607 941.877 473.443V473.443Z" fill="#8DA44B"/>
<path d="M998.808 533.886C997.239 533.478 978.286 559.832 976.608 562.662C970.895 572.302 962.543 582.005 957.057 591.682C956.545 592.465 956.125 593.305 955.806 594.185C955.578 595.187 955.523 596.22 955.642 597.241C956.268 607.697 958.363 618.353 960.022 628.764C962.404 644.272 965.034 659.737 967.912 675.16C952.387 677.046 934.93 679.386 919.977 680.937C917.973 653.513 915.606 625.808 914.808 598.338C914.608 591.627 913.983 584.363 917.456 578.695C920.929 573.027 942.421 535.691 946.075 530.059" fill="#8DA44B"/>
<path d="M1049.92 678.004C1034.64 681.35 1017.5 685.322 1002.77 688.279C987.353 633.766 978.03 580.959 962.333 529.13C974.122 525.385 988.894 523.154 1000.96 519.998C1018.04 572.37 1033.99 626.774 1049.92 678.004Z" fill="#8DA44B"/>
<path d="M991.308 609.339C997.457 613.906 1004.14 617.704 1011.21 620.647" stroke="#546A42" stroke-width="2.03" stroke-linecap="round" stroke-linejoin="round"/>
<path d="M1006.91 624.393L1014.03 627.54" stroke="#546A42" stroke-width="2.03" stroke-linecap="round" stroke-linejoin="round"/>
<path d="M969.572 556.64C971.24 561.737 972.821 566.876 974.314 572.057" stroke="#546A42" stroke-width="2.03" stroke-linecap="round" stroke-linejoin="round"/>
<path d="M994.165 541.994C995.941 545.027 997.977 547.9 1000.25 550.582C1002.54 553.274 1005.49 555.321 1008.81 556.522" stroke="#546A42" stroke-width="2.03" stroke-linecap="round" stroke-linejoin="round"/>
<path d="M1012.05 507.959C1020.02 502.906 1027.73 497.458 1035.16 491.635C1025.48 478.476 1014.56 465.961 1001.54 456.003C992.723 449.247 979.882 440.813 967.622 438.655C966.824 452.321 964.729 473.406 961.873 484.561C956.713 475.021 950.311 456.257 945.822 443.28C939.383 447.932 935.248 455.305 932.364 463.766C929.327 472.663 928.402 482.258 927.495 491.744C925.781 509.618 926.461 527.556 928.284 545.494C947.581 543.39 1007.69 536.961 1017.58 535.374C1017.58 534.702 1017.48 534.031 1017.41 533.36C1017.23 531.637 1011.91 508.049 1012.05 507.959Z" fill="#8DA44B"/>
<path d="M950.138 408.61C951.441 409.631 952.797 410.581 954.201 411.457C958.82 414.215 964.067 415.748 969.445 415.91C969.969 417.217 970.323 418.585 970.496 419.982C970.744 422.066 970.578 424.179 970.009 426.199C969.439 428.219 968.478 430.107 967.179 431.755C965.88 433.404 964.269 434.78 962.438 435.806C960.608 436.832 958.593 437.487 956.509 437.734C954.425 437.981 952.312 437.816 950.292 437.246C948.272 436.677 946.384 435.716 944.736 434.417C941.407 431.793 939.256 427.955 938.757 423.746C938.584 422.236 938.624 420.71 938.875 419.211C943.337 416.736 946.864 412.591 950.138 408.61Z" fill="#EFC1AB"/>
<path d="M954.201 411.457C952.797 410.581 951.441 409.63 950.138 408.61C946.865 412.591 943.337 416.772 938.912 419.193C939.491 415.764 941.174 412.619 943.705 410.235C946.237 407.851 949.478 406.36 952.935 405.988C956.392 405.617 959.876 406.385 962.856 408.176C965.837 409.967 968.15 412.683 969.445 415.91C964.067 415.748 958.82 414.215 954.201 411.457V411.457Z" fill="#685542"/>
<path d="M970.016 421.968C971.654 421.968 972.981 420.64 972.981 419.003C972.981 417.365 971.654 416.037 970.016 416.037C968.378 416.037 967.051 417.365 967.051 419.003C967.051 420.64 968.378 421.968 970.016 421.968Z" fill="#EFC1AB"/>
<path d="M941.732 422.358C941.801 422.941 941.696 423.531 941.43 424.054C941.164 424.577 940.749 425.009 940.238 425.296C939.726 425.583 939.141 425.712 938.556 425.666C937.971 425.62 937.413 425.402 936.952 425.039C936.491 424.676 936.148 424.184 935.967 423.626C935.786 423.068 935.774 422.469 935.933 421.904C936.092 421.34 936.416 420.835 936.862 420.454C937.308 420.073 937.857 419.833 938.44 419.764C938.826 419.718 939.218 419.748 939.593 419.853C939.968 419.958 940.319 420.136 940.625 420.377C940.931 420.618 941.186 420.917 941.376 421.257C941.566 421.597 941.687 421.971 941.732 422.358V422.358Z" fill="#EFC1AB"/>
<path d="M947.59 419.701C947.604 419.834 947.591 419.968 947.553 420.096C947.515 420.224 947.452 420.343 947.368 420.447C947.283 420.55 947.18 420.636 947.062 420.7C946.945 420.763 946.816 420.803 946.683 420.816C946.417 420.848 946.15 420.772 945.94 420.606C945.73 420.44 945.594 420.198 945.563 419.932C945.532 419.666 945.607 419.399 945.773 419.189C945.939 418.979 946.181 418.843 946.447 418.812C946.717 418.779 946.988 418.854 947.202 419.02C947.416 419.187 947.556 419.432 947.59 419.701V419.701Z" fill="#585858"/>
<path d="M954.473 418.876C954.491 419.073 954.451 419.271 954.357 419.445C954.263 419.619 954.12 419.762 953.946 419.855C953.772 419.949 953.574 419.989 953.377 419.97C953.18 419.952 952.993 419.876 952.839 419.752C952.685 419.627 952.571 419.461 952.511 419.272C952.451 419.084 952.448 418.882 952.503 418.691C952.557 418.501 952.666 418.331 952.817 418.203C952.967 418.074 953.152 417.993 953.348 417.969C953.482 417.953 953.618 417.963 953.747 418C953.877 418.037 953.997 418.1 954.102 418.184C954.207 418.269 954.294 418.374 954.358 418.493C954.421 418.611 954.46 418.742 954.473 418.876V418.876Z" fill="#585858"/>
<path d="M949.884 419.774C948.651 420.681 948.978 422.494 949.059 423.292L951.254 423.038" stroke="#585858" stroke-width="1.42" stroke-linecap="round" stroke-linejoin="round"/>
<path d="M946.955 424.934C947.121 425.272 947.353 425.574 947.638 425.82C947.924 426.066 948.256 426.252 948.615 426.367C949.332 426.599 950.095 426.649 950.836 426.512C951.481 426.418 952.099 426.189 952.65 425.841C953.212 425.477 953.624 424.923 953.811 424.281" stroke="#585858" stroke-width="1.42" stroke-linecap="round" stroke-linejoin="round"/>
<path d="M944.924 417.443C945.718 417.123 946.562 416.945 947.418 416.917" stroke="#585858" stroke-width="1.42" stroke-linecap="round" stroke-linejoin="round"/>
<path d="M952.314 416.454C953.084 416.272 953.883 416.247 954.663 416.382" stroke="#585858" stroke-width="1.42" stroke-linecap="round" stroke-linejoin="round"/>
<path d="M943.545 445.937C942.404 448.398 941.407 450.923 940.562 453.5C942.635 454.413 944.676 455.402 946.683 456.466C945.087 459.703 943.781 463.05 942.149 466.269C943.832 467.764 945.391 469.392 946.81 471.139C951.797 476.925 956.758 482.735 961.691 488.569" stroke="#546A42" stroke-width="2.03" stroke-linecap="round" stroke-linejoin="round"/>
<path d="M971.276 441.076C972.983 443.029 974.479 445.157 975.738 447.424L969.834 452.866C972.226 455.412 974.353 458.196 976.182 461.173C972.782 467.757 967.912 478.966 963.949 486.665" stroke="#546A42" stroke-width="2.03" stroke-linecap="round" stroke-linejoin="round"/>
<path d="M962.172 451.387L957.212 446C955.822 447.393 954.768 449.083 954.128 450.943L956.196 454.235C956.363 454.463 956.483 454.722 956.55 454.997C956.586 455.301 956.561 455.609 956.477 455.904C955.679 459.44 954.884 462.98 954.092 466.523C956.314 472.698 958.912 478.731 961.873 484.588C963.49 477.548 964.68 470.416 965.437 463.231C964.006 460.354 962.404 457.564 960.639 454.879C961.281 453.777 961.795 452.606 962.172 451.387V451.387Z" fill="#546A42"/>
<path d="M958.354 438.383C953.832 438.94 949.523 440.624 945.822 443.28C948.206 450.145 951.117 458.624 954.092 466.514C954.89 462.965 955.685 459.425 956.477 455.895C956.561 455.6 956.585 455.292 956.549 454.988C956.482 454.713 956.362 454.454 956.196 454.226L954.128 450.934C954.768 449.074 955.822 447.384 957.211 445.991L962.172 451.378C961.794 452.593 961.28 453.762 960.639 454.861C962.404 457.546 964.006 460.335 965.436 463.213C966.461 454.643 967.25 445.674 967.622 438.664C964.566 438.084 961.439 437.989 958.354 438.383V438.383Z" fill="white"/>
<path d="M951.598 453.99C953.339 451.759 955.543 448.504 957.121 446.155" stroke="#546A42" stroke-width="1.42" stroke-linecap="round" stroke-linejoin="round"/>
<path d="M957.347 446.046C959.252 447.987 962.09 450.925 963.913 452.947" stroke="#546A42" stroke-width="1.42" stroke-linecap="round" stroke-linejoin="round"/>
<path d="M957.365 445.003C956.489 445.108 955.6 445.039 954.75 444.801C953.9 444.562 953.106 444.159 952.412 443.613C951.718 443.067 951.138 442.39 950.706 441.62C950.274 440.851 949.998 440.003 949.893 439.126L949.177 433.05L962.525 431.49L963.242 437.567C963.446 439.332 962.942 441.106 961.841 442.5C960.739 443.894 959.13 444.794 957.365 445.003Z" fill="#EFC1AB"/>
<path d="M962.616 493.276C964.551 507.599 966.364 521.934 968.057 536.28" stroke="#546A42" stroke-width="2.03" stroke-linecap="round" stroke-linejoin="round"/>
<path d="M953.62 536.489L949.213 511.704L930.877 513.862C932.591 521.816 933.28 530.576 934.214 538.666C940.408 538.004 947.408 537.033 953.62 536.489Z" stroke="#546A42" stroke-width="2.03" stroke-linecap="round" stroke-linejoin="round"/>
<path d="M981.741 507.986C982.86 515.93 984.193 523.835 985.74 531.701L1008.93 529.687C1008.32 522.019 1007.28 514.392 1005.8 506.843" stroke="#546A42" stroke-width="2.03" stroke-linecap="round" stroke-linejoin="round"/>
<path d="M969.553 517.499L1002.68 516.801L1002.47 507.033L956.622 508.004L969.553 517.499Z" fill="#E6E6E6"/>
<path d="M970.025 517.49L1048.99 515.821L1068.31 460.719L989.34 462.388L970.025 517.49Z" fill="white"/>
<path d="M1010.65 489.621L1029.88 489.213" stroke="#546A42" stroke-width="3.97" stroke-linecap="round" stroke-linejoin="round"/>
<path d="M1034.16 516.619C1032.01 516.857 1030 517.815 1028.45 519.34C1028.13 518.315 1028.66 516.882 1028.61 515.794C1028.53 514.442 1028.28 513.105 1027.87 511.813C1027.61 510.795 1027.07 509.871 1026.31 509.147C1025.92 508.796 1025.43 508.578 1024.91 508.524C1024.39 508.47 1023.86 508.584 1023.41 508.847C1022.4 509.564 1022.35 511.015 1022.4 512.248C1022.27 510.434 1021.76 508.222 1019.99 507.895C1019.45 507.842 1018.9 507.951 1018.41 508.21C1017.93 508.468 1017.53 508.863 1017.27 509.346C1016.76 510.323 1016.45 511.394 1016.36 512.493C1016.36 512.045 1016.25 511.604 1016.06 511.201C1015.87 510.797 1015.59 510.441 1015.24 510.158C1014.89 509.874 1014.49 509.67 1014.05 509.56C1013.62 509.449 1013.17 509.435 1012.73 509.519C1012.29 509.602 1011.87 509.781 1011.51 510.043C1011.14 510.304 1010.84 510.642 1010.62 511.033C1010.41 511.424 1010.28 511.857 1010.24 512.304C1010.21 512.751 1010.27 513.199 1010.43 513.618C1010.24 512.787 1009.77 512.05 1009.09 511.536C1008.41 511.022 1007.57 510.763 1006.72 510.806C1004.33 511.096 1003.53 515.722 1003.37 517.572C1003.11 520.274 1003.67 522.992 1004.97 525.371C1005.54 526.419 1006.34 527.319 1007.32 527.997C1008.29 528.675 1009.42 529.111 1010.6 529.27C1014.81 530.012 1019.13 529.886 1023.29 528.898C1027.83 527.729 1031.03 524.763 1034.59 521.934C1035.51 521.327 1036.25 520.493 1036.75 519.512C1036.98 519.017 1037.01 518.453 1036.84 517.934C1036.67 517.415 1036.32 516.979 1035.84 516.71C1035.47 516.582 1035.08 516.536 1034.69 516.574L1034.16 516.619Z" fill="#EFC1AB"/>
<path d="M1022.57 519.095C1022.27 516.982 1022.11 513.119 1021.91 510.933" stroke="#546A42" stroke-width="1.6" stroke-linecap="round" stroke-linejoin="round"/>
<path d="M1016.87 520.147C1016.7 517.49 1016.26 514.488 1016.07 511.831" stroke="#546A42" stroke-width="1.6" stroke-linecap="round" stroke-linejoin="round"/>
<path d="M1010.32 520.365C1009.93 517.789 1009.89 514.488 1009.58 512.266" stroke="#546A42" stroke-width="1.6" stroke-linecap="round" stroke-linejoin="round"/>
</g>
<defs>
<linearGradient id="paint0_linear_2434_1919" x1="572.501" y1="598.731" x2="572.501" y2="317.316" gradientUnits="userSpaceOnUse">
<stop stop-color="#3E4250"/>
<stop offset="1" stop-color="#414A63"/>
</linearGradient>
<linearGradient id="paint1_linear_2434_1919" x1="395.421" y1="314.509" x2="395.421" y2="537.578" gradientUnits="userSpaceOnUse">
<stop stop-color="#575C6F"/>
<stop offset="1" stop-color="#2D3345"/>
</linearGradient>
<clipPath id="clip0_2434_1919">
<rect width="1069" height="720" fill="white"/>
</clipPath>
</defs>
</svg>
